<svg width="55" height="55" viewBox="0 0 55 55" fill="none" xmlns="http://www.w3.org/2000/svg">
<path d="M23.7018 39.9518L42.7956 20.8581L39.0039 17.0664L23.7018 32.3685L15.9831 24.6497L12.1914 28.4414L23.7018 39.9518ZM27.4935 54.5768C23.747 54.5768 20.2261 53.8659 16.931 52.444C13.6359 51.0221 10.7695 49.0924 8.33203 46.6549C5.89453 44.2174 3.96484 41.3511 2.54297 38.056C1.12109 34.7608 0.410156 31.24 0.410156 27.4935C0.410156 23.747 1.12109 20.2261 2.54297 16.931C3.96484 13.6358 5.89453 10.7695 8.33203 8.33203C10.7695 5.89453 13.6359 3.96484 16.931 2.54297C20.2261 1.12109 23.747 0.410156 27.4935 0.410156C31.24 0.410156 34.7609 1.12109 38.056 2.54297C41.3511 3.96484 44.2174 5.89453 46.6549 8.33203C49.0924 10.7695 51.0221 13.6358 52.444 16.931C53.8659 20.2261 54.5768 23.747 54.5768 27.4935C54.5768 31.24 53.8659 34.7608 52.444 38.056C51.0221 41.3511 49.0924 44.2174 46.6549 46.6549C44.2174 49.0924 41.3511 51.0221 38.056 52.444C34.7609 53.8659 31.24 54.5768 27.4935 54.5768Z" fill="#ADADAD"/>
</svg>
