<svg width="16" height="16" viewBox="0 0 16 16" fill="none"
     xmlns="http://www.w3.org/2000/svg">
    <rect x="0.5" y="0.5" width="15" height="15" rx="7.5" fill="#F92C0D"
          stroke="#F92C0D"/>
    <path
            d="M8.00586 8.88477L5.07617 11.8203C4.95508 11.9414 4.80664 12.002 4.63086 12.002C4.45508 12.002 4.30664 11.9434 4.18555 11.8262C4.06836 11.7051 4.00977 11.5566 4.00977 11.3809C4.00977 11.2051 4.07031 11.0566 4.19141 10.9355L7.12109 8L4.19141 5.07031C4.07031 4.94922 4.00977 4.80273 4.00977 4.63086C4.00977 4.54492 4.02539 4.46289 4.05664 4.38477C4.08789 4.30664 4.13086 4.24023 4.18555 4.18555C4.24414 4.13086 4.31055 4.08789 4.38477 4.05664C4.45898 4.02148 4.54102 4.00391 4.63086 4.00391C4.80273 4.00391 4.94922 4.06445 5.07031 4.18555L8.00586 7.12109L10.9355 4.18555C11.0605 4.06055 11.209 3.99805 11.3809 3.99805C11.4668 3.99805 11.5469 4.01562 11.6211 4.05078C11.6992 4.08203 11.7656 4.12695 11.8203 4.18555C11.8789 4.24023 11.9238 4.30664 11.9551 4.38477C11.9863 4.45898 12.002 4.53906 12.002 4.625C12.002 4.79688 11.9414 4.94336 11.8203 5.06445L8.88477 8L11.8203 10.9355C11.9453 11.0605 12.0078 11.209 12.0078 11.3809C12.0078 11.4668 11.9902 11.5469 11.9551 11.6211C11.9238 11.6953 11.8789 11.7617 11.8203 11.8203C11.7656 11.875 11.6992 11.9199 11.6211 11.9551C11.5469 11.9863 11.4668 12.002 11.3809 12.002C11.2051 12.002 11.0566 11.9414 10.9355 11.8203L8.00586 8.88477Z"
            fill="#FBFBFB"/>
</svg>