<svg width="12" height="8" viewBox="0 0 12 8" fill="none"
     xmlns="http://www.w3.org/2000/svg">
    <path
            d="M0 4.5C0 4.45703 0.00585938 4.41406 0.0175781 4.37109C0.134766 3.92969 0.300781 3.51562 0.515625 3.12891C0.734375 2.73828 0.990234 2.38086 1.2832 2.05664C1.58008 1.73242 1.90625 1.44336 2.26172 1.18945C2.62109 0.935547 3.00195 0.720703 3.4043 0.544922C3.81055 0.365234 4.23242 0.230469 4.66992 0.140625C5.10742 0.046875 5.55078 0 6 0C6.44531 0 6.88477 0.046875 7.31836 0.140625C7.75586 0.230469 8.17578 0.363281 8.57812 0.539062C8.98438 0.714844 9.36719 0.931641 9.72656 1.18945C10.0898 1.44336 10.418 1.73242 10.7109 2.05664C11.0078 2.37695 11.2637 2.73047 11.4785 3.11719C11.6973 3.50391 11.8652 3.91797 11.9824 4.35938C11.9941 4.40234 12 4.44727 12 4.49414C12 4.63477 11.9512 4.75391 11.8535 4.85156C11.7598 4.94531 11.6426 4.99219 11.502 4.99219C11.3848 4.99219 11.2832 4.95898 11.1973 4.89258C11.1152 4.82617 11.0547 4.73828 11.0156 4.62891C10.9805 4.51953 10.9453 4.41797 10.9102 4.32422C10.8789 4.23047 10.8457 4.13867 10.8105 4.04883C10.7754 3.95508 10.7363 3.86328 10.6934 3.77344C10.6504 3.68359 10.5977 3.58789 10.5352 3.48633C10.3047 3.09961 10.0254 2.75391 9.69727 2.44922C9.37305 2.14062 9.01562 1.88086 8.625 1.66992C8.23438 1.45508 7.82031 1.29102 7.38281 1.17773C6.94922 1.06055 6.50977 1.00195 6.06445 1.00195H5.93555C5.49023 1.00195 5.04883 1.06055 4.61133 1.17773C4.17773 1.29102 3.76562 1.45508 3.375 1.66992C2.98438 1.88477 2.625 2.14648 2.29688 2.45508C1.96875 2.75977 1.69141 3.10547 1.46484 3.49219C1.40234 3.59375 1.34961 3.69141 1.30664 3.78516C1.26367 3.875 1.22461 3.96484 1.18945 4.05469C1.1543 4.14453 1.11914 4.23633 1.08398 4.33008C1.05273 4.42383 1.01953 4.52539 0.984375 4.63477C0.945312 4.74414 0.884766 4.83398 0.802734 4.9043C0.720703 4.9707 0.619141 5.00391 0.498047 5.00391C0.431641 5.00391 0.367188 4.99023 0.304688 4.96289C0.246094 4.93555 0.193359 4.90039 0.146484 4.85742C0.103516 4.81055 0.0683594 4.75781 0.0410156 4.69922C0.0136719 4.63672 0 4.57031 0 4.5ZM3 5.00391V4.94531C3 4.53906 3.08008 4.1582 3.24023 3.80273C3.4043 3.44336 3.62305 3.13086 3.89648 2.86523C4.17383 2.59961 4.49219 2.39062 4.85156 2.23828C5.21484 2.08203 5.59766 2.00391 6 2.00391C6.41406 2.00391 6.80273 2.08203 7.16602 2.23828C7.5332 2.39453 7.85156 2.60938 8.12109 2.88281C8.39453 3.15234 8.60938 3.4707 8.76562 3.83789C8.92188 4.20117 9 4.58984 9 5.00391C9 5.41797 8.92188 5.80859 8.76562 6.17578C8.60938 6.53906 8.39453 6.85742 8.12109 7.13086C7.85156 7.40039 7.5332 7.61328 7.16602 7.76953C6.80273 7.92578 6.41406 8.00391 6 8.00391C5.58594 8.00391 5.19531 7.92578 4.82812 7.76953C4.46484 7.61328 4.14648 7.40039 3.87305 7.13086C3.60352 6.85742 3.39062 6.53906 3.23438 6.17578C3.07812 5.80859 3 5.41797 3 5.00391ZM7.99805 5.00391V4.96289C7.99805 4.69336 7.94336 4.43945 7.83398 4.20117C7.72852 3.96289 7.58398 3.75586 7.40039 3.58008C7.2168 3.40039 7.00391 3.25977 6.76172 3.1582C6.51953 3.05273 6.26562 3 6 3C5.72266 3 5.46289 3.05273 5.2207 3.1582C4.97852 3.26367 4.76758 3.4082 4.58789 3.5918C4.4082 3.77148 4.26562 3.98438 4.16016 4.23047C4.05469 4.47266 4.00195 4.73047 4.00195 5.00391C4.00195 5.28125 4.05469 5.54102 4.16016 5.7832C4.26562 6.02539 4.4082 6.23633 4.58789 6.41602C4.76758 6.5957 4.97852 6.73828 5.2207 6.84375C5.46289 6.94922 5.72266 7.00195 6 7.00195C6.27344 7.00195 6.53125 6.94922 6.77344 6.84375C7.01953 6.73828 7.23242 6.5957 7.41211 6.41602C7.5918 6.23633 7.73438 6.02539 7.83984 5.7832C7.94531 5.54102 7.99805 5.28125 7.99805 5.00391Z"
            fill="#FBFBFB"/>
</svg>