<svg width="18" height="22" viewBox="0 0 18 22" fill="none"
     xmlns="http://www.w3.org/2000/svg">
    <path fill-rule="evenodd" clip-rule="evenodd"
          d="M9 2.75C5.41015 2.75 2.5 5.66015 2.5 9.25C2.5 9.87116 2.73637 10.6858 3.20404 11.6506C3.66372 12.5989 4.30616 13.6104 5.02286 14.6022C6.43705 16.5594 8.07985 18.3575 9 19.3206C9.92014 18.3575 11.563 16.5594 12.9771 14.6022C13.6938 13.6104 14.3363 12.5989 14.796 11.6506C15.2636 10.6858 15.5 9.87116 15.5 9.25C15.5 5.66015 12.5899 2.75 9 2.75ZM0.5 9.25C0.5 4.55558 4.30558 0.75 9 0.75C13.6944 0.75 17.5 4.55558 17.5 9.25C17.5 10.3134 17.1162 11.4492 16.5957 12.523C16.0672 13.6132 15.3535 14.7284 14.5982 15.7736C13.0872 17.8647 11.3479 19.7604 10.4086 20.7414C9.63806 21.5462 8.36194 21.5462 7.59141 20.7414C6.6521 19.7604 4.91276 17.8647 3.40177 15.7736C2.64655 14.7284 1.93284 13.6132 1.40434 12.523C0.883829 11.4492 0.5 10.3134 0.5 9.25ZM9 6.5C7.8264 6.5 6.875 7.4514 6.875 8.625C6.875 9.7986 7.8264 10.75 9 10.75C10.1736 10.75 11.125 9.7986 11.125 8.625C11.125 7.4514 10.1736 6.5 9 6.5ZM4.875 8.625C4.875 6.34683 6.72183 4.5 9 4.5C11.2782 4.5 13.125 6.34683 13.125 8.625C13.125 10.9032 11.2782 12.75 9 12.75C6.72183 12.75 4.875 10.9032 4.875 8.625Z"
          fill="#282828"/>
</svg>