<svg width="368" height="79" viewBox="0 0 368 79" fill="none"
     xmlns="http://www.w3.org/2000/svg">
    <path
            d="M127.126 45.7949H115.614V40.8892H118.616V27.2983L111.4 45.7913H107.104L99.8031 27.3374V40.8857H102.805V45.7913H91.2931V40.8857H94.295V22.8474H91.2931V17.9417H101.971L109.229 36.687L116.531 17.9417H127.126V22.8474H124.124V40.8857H127.126V45.7949Z"
            fill="#FF0000"/>
    <path
            d="M154.364 45.7933H146.271V43.5482C145.715 44.3226 144.853 44.9762 143.687 45.502C142.517 46.0277 141.391 46.2907 140.307 46.2907C138.749 46.2907 137.298 46.0064 135.947 45.4381C134.599 44.8697 133.416 44.0883 132.4 43.0901C131.384 42.0919 130.585 40.9303 130 39.5982C129.416 38.2696 129.123 36.8559 129.123 35.3604C129.123 33.8649 129.416 32.451 130 31.1225C130.585 29.7939 131.384 28.6289 132.4 27.6307C133.416 26.6325 134.596 25.851 135.947 25.2826C137.294 24.7142 138.749 24.4301 140.307 24.4301C141.419 24.4301 142.567 24.7071 143.747 25.2613C144.927 25.8154 145.854 26.5081 146.521 27.3394V24.9274H154.364V29.8331H151.78V40.8876H154.364V45.7933ZM146.271 35.3604C146.271 34.5576 146.125 33.8009 145.833 33.094C145.541 32.3871 145.131 31.7797 144.603 31.2646C144.075 30.7531 143.462 30.3446 142.767 30.0391C142.072 29.7336 141.334 29.5809 140.557 29.5809C139.779 29.5809 139.034 29.7336 138.325 30.0391C137.615 30.3446 137.002 30.7531 136.489 31.2646C135.975 31.7761 135.565 32.3871 135.259 33.094C134.952 33.8009 134.799 34.5576 134.799 35.3604C134.799 36.1632 134.952 36.9198 135.259 37.6267C135.565 38.3336 135.975 38.9446 136.489 39.4561C137.002 39.9677 137.615 40.3761 138.325 40.6816C139.034 40.9871 139.776 41.1399 140.557 41.1399C141.334 41.1399 142.072 40.9871 142.767 40.6816C143.462 40.3761 144.075 39.9677 144.603 39.4561C145.131 38.9446 145.541 38.3336 145.833 37.6267C146.125 36.9198 146.271 36.1667 146.271 35.3604Z"
            fill="#FF0000"/>
    <path
            d="M178.433 38.2696C178.126 39.3779 177.613 40.4188 176.889 41.385C176.165 42.3547 175.31 43.2073 174.322 43.9426C173.335 44.6779 172.258 45.2534 171.089 45.669C169.919 46.0846 168.754 46.2907 167.584 46.2907C165.998 46.2907 164.518 46.0064 163.142 45.4381C161.766 44.8697 160.557 44.0883 159.513 43.0901C158.472 42.0919 157.648 40.9303 157.053 39.5982C156.454 38.2696 156.154 36.8559 156.154 35.3604C156.154 33.8649 156.44 32.451 157.01 31.1225C157.58 29.7939 158.358 28.6289 159.345 27.6307C160.333 26.6325 161.481 25.851 162.786 25.2826C164.094 24.7142 165.495 24.4301 167 24.4301C168.14 24.4301 169.288 24.6645 170.44 25.137C171.595 25.6094 172.436 26.192 172.964 26.8811V24.9274H177.47V31.8258H172.757C172.23 31.1331 171.506 30.5861 170.59 30.1847C169.673 29.7833 168.714 29.5809 167.713 29.5809C166.073 29.5809 164.682 30.1421 163.541 31.2646C162.401 32.3871 161.83 33.7512 161.83 35.3568C161.83 36.1596 161.983 36.9162 162.29 37.6231C162.597 38.33 163.014 38.9411 163.541 39.4526C164.069 39.9641 164.689 40.3726 165.399 40.6781C166.108 40.9836 166.878 41.1363 167.713 41.1363C168.739 41.1363 169.741 40.8664 170.714 40.3264C171.688 39.7865 172.383 39.1009 172.8 38.2696H178.433Z"
            fill="#FF0000"/>
    <path
            d="M182.807 40.8887V22.8504H180.222V17.9447H188.315V26.9639C188.9 26.2143 189.749 25.6069 190.861 25.1345C191.973 24.662 193.071 24.4276 194.155 24.4276C195.267 24.4276 196.315 24.6442 197.303 25.074C198.291 25.5039 199.153 26.0865 199.888 26.8254C200.626 27.5607 201.203 28.4309 201.62 29.4291C202.037 30.4273 202.244 31.4965 202.244 32.6368V40.8851H204.829V45.7908H194.151V40.8851H196.736V33.5426C196.736 32.4308 196.333 31.493 195.528 30.7257C194.722 29.962 193.749 29.5784 192.608 29.5784C191.413 29.5784 190.397 29.962 189.563 30.7257C188.729 31.4895 188.312 32.4308 188.312 33.5426V40.8851H190.896V45.7908H180.219V40.8851H182.807V40.8887Z"
            fill="#FF0000"/>
    <path
            d="M209.378 40.888V29.8335H206.793V24.9278H214.886V40.888H217.471V45.7937H206.793V40.888H209.378ZM214.886 23.1837H209.381V17.9477H214.886V23.1837Z"
            fill="#FF0000"/>
    <path
            d="M243.958 45.7933H233.363V40.8876H235.947V33.5736C235.947 32.4653 235.545 31.5239 234.739 30.746C233.933 29.9716 232.96 29.5809 231.819 29.5809C230.625 29.5809 229.609 29.9681 228.774 30.746C227.94 31.5204 227.523 32.4653 227.523 33.5736V40.8876H230.026V45.7933H219.473V40.8876H222.018V29.8331H219.434V24.9274H227.277V27.3394C227.972 26.6467 228.903 25.9895 230.072 25.3643C231.241 24.7391 232.339 24.4301 233.366 24.4301C234.479 24.4301 235.527 24.6467 236.514 25.073C237.502 25.5028 238.365 26.0926 239.099 26.8385C239.837 27.5881 240.414 28.4583 240.832 29.4565C241.249 30.4547 241.456 31.5204 241.456 32.6571V40.8876H243.958V45.7933Z"
            fill="#FF0000"/>
    <path
            d="M257.183 41.1393C257.989 41.1393 258.755 40.9723 259.475 40.6419C260.199 40.308 260.823 39.8675 261.35 39.3134H267.818C267.401 40.34 266.823 41.2743 266.085 42.1197C265.347 42.9651 264.506 43.7004 263.561 44.3221C262.616 44.9437 261.579 45.4303 260.452 45.7749C259.325 46.1195 258.149 46.2936 256.926 46.2936C255.368 46.2936 253.917 46.0094 252.566 45.441C251.218 44.8726 250.035 44.0912 249.019 43.093C248.003 42.0948 247.204 40.9332 246.619 39.6011C246.035 38.2726 245.742 36.8588 245.742 35.3633C245.742 33.8678 246.035 32.4539 246.619 31.1254C247.204 29.7969 248.003 28.6318 249.019 27.6336C250.035 26.6354 251.215 25.8539 252.566 25.2855C253.914 24.7172 255.368 24.433 256.926 24.433C258.538 24.433 260.053 24.7172 261.472 25.2855C262.891 25.8539 264.128 26.6354 265.183 27.6336C266.238 28.6318 267.073 29.7933 267.686 31.1254C268.295 32.4539 268.602 33.8678 268.602 35.3633C268.602 35.9459 268.531 36.5817 268.395 37.2744H251.753C252.142 38.4111 252.83 39.3383 253.817 40.0594C254.812 40.7769 255.931 41.1393 257.183 41.1393ZM257.183 29.5838C256.042 29.5838 255.008 29.8963 254.074 30.518C253.144 31.1396 252.441 31.9531 251.967 32.9478H262.395C261.921 31.9496 261.219 31.1396 260.288 30.518C259.358 29.8963 258.324 29.5838 257.183 29.5838Z"
            fill="#FF0000"/>
    <path
            d="M289.55 37.6913C289.55 38.9666 289.336 40.1282 288.905 41.1832C288.473 42.2347 287.864 43.144 287.069 43.9042C286.277 44.6679 285.322 45.2541 284.213 45.6697C283.101 46.0854 281.849 46.2914 280.459 46.2914C279.764 46.2914 278.915 46.1031 277.913 45.7301C276.912 45.3571 276.12 44.8491 275.535 44.2133V45.794H270.779V37.1905H275.91C275.91 38.2988 276.284 39.1797 277.036 39.8298C277.789 40.4798 278.691 40.8066 279.749 40.8066C280.776 40.8066 281.667 40.5438 282.42 40.0181C283.172 39.4923 283.546 38.8671 283.546 38.1496C283.546 37.3183 283.339 36.6683 282.922 36.1958C282.505 35.7234 281.956 35.3291 281.275 35.013C280.594 34.6933 279.806 34.4091 278.919 34.1604C278.027 33.9117 277.125 33.5921 276.209 33.2049C274.569 32.4838 273.207 31.5069 272.12 30.2743C271.036 29.0416 270.494 27.4964 270.494 25.6386C270.494 24.4734 270.715 23.3936 271.161 22.3954C271.607 21.3972 272.202 20.534 272.954 19.7987C273.706 19.0634 274.587 18.4879 275.603 18.0722C276.619 17.6566 277.71 17.4506 278.876 17.4506C280.156 17.4506 281.211 17.678 282.045 18.1362C282.88 18.5945 283.489 19.0563 283.881 19.5287V17.948H288.512V25.8019H283.09C283.09 24.8038 282.701 24.0081 281.921 23.4113C281.143 22.8145 280.334 22.5161 279.5 22.5161C278.637 22.5161 277.888 22.8074 277.247 23.39C276.608 23.9725 276.288 24.7079 276.288 25.5924C276.288 26.3668 276.516 26.9778 276.976 27.4218C277.436 27.8658 278.031 28.2317 278.769 28.523C279.507 28.8143 280.32 29.0772 281.207 29.3116C282.099 29.5461 282.972 29.8586 283.835 30.2458C285.393 30.9669 286.733 31.9509 287.86 33.1978C288.987 34.4481 289.55 35.9436 289.55 37.6913Z"
            fill="white"/>
    <path
            d="M303.064 29.834H299.685V40.8886H302.187V45.7943H294.18V29.834H291.303V24.9284H294.18V17.9447H299.685V24.9284H303.064V29.834Z"
            fill="white"/>
    <path
            d="M316.162 46.2907C314.605 46.2907 313.154 46.0064 311.802 45.4381C310.455 44.8697 309.271 44.0883 308.255 43.0901C307.239 42.0919 306.44 40.9303 305.856 39.5982C305.271 38.2696 304.979 36.8559 304.979 35.3604C304.979 33.8649 305.271 32.451 305.856 31.1225C306.44 29.7939 307.239 28.6289 308.255 27.6307C309.271 26.6325 310.451 25.851 311.802 25.2826C313.15 24.7142 314.605 24.4301 316.162 24.4301C317.774 24.4301 319.289 24.7142 320.708 25.2826C322.127 25.851 323.364 26.6325 324.419 27.6307C325.475 28.6289 326.309 29.7904 326.922 31.1225C327.532 32.451 327.838 33.8649 327.838 35.3604C327.838 36.8559 327.532 38.2696 326.922 39.5982C326.309 40.9267 325.475 42.0919 324.419 43.0901C323.36 44.0883 322.123 44.8697 320.708 45.4381C319.289 46.0064 317.774 46.2907 316.162 46.2907ZM322.17 35.3604C322.17 34.5576 322.016 33.8009 321.71 33.094C321.403 32.3871 320.993 31.7797 320.48 31.2646C319.966 30.7531 319.353 30.3446 318.644 30.0391C317.934 29.7336 317.189 29.5809 316.412 29.5809C315.635 29.5809 314.89 29.7336 314.18 30.0391C313.471 30.3446 312.858 30.7531 312.344 31.2646C311.831 31.7761 311.421 32.3871 311.114 33.094C310.808 33.8009 310.654 34.5576 310.654 35.3604C310.654 36.1632 310.808 36.9198 311.114 37.6267C311.421 38.3336 311.831 38.9446 312.344 39.4561C312.858 39.9677 313.471 40.3761 314.18 40.6816C314.89 40.9871 315.635 41.1399 316.412 41.1399C317.189 41.1399 317.934 40.9871 318.644 40.6816C319.353 40.3761 319.963 39.9677 320.48 39.4561C320.993 38.9446 321.403 38.3336 321.71 37.6267C322.016 36.9198 322.17 36.1667 322.17 35.3604Z"
            fill="white"/>
    <path
            d="M332.388 40.8876V29.8331H329.803V24.9274H337.646V27.3394C338.12 26.6183 338.84 25.9539 339.814 25.343C340.787 24.7355 341.76 24.4301 342.734 24.4301H343.735V29.5844H342.734C341.4 29.5844 340.259 30.1172 339.315 31.1829C338.37 32.2486 337.896 33.5309 337.896 35.0264V40.8876H340.48V45.7933H329.803V40.8876H332.388Z"
            fill="white"/>
    <path
            d="M356.581 41.1393C357.387 41.1393 358.154 40.9723 358.874 40.6419C359.597 40.308 360.221 39.8675 360.749 39.3134H367.216C366.799 40.34 366.221 41.2743 365.483 42.1197C364.745 42.9651 363.904 43.7004 362.959 44.3221C362.014 44.9437 360.977 45.4303 359.851 45.7749C358.724 46.1195 357.547 46.2936 356.325 46.2936C354.767 46.2936 353.316 46.0094 351.964 45.441C350.617 44.8726 349.433 44.0912 348.417 43.093C347.401 42.0948 346.602 40.9332 346.018 39.6011C345.433 38.2726 345.141 36.8588 345.141 35.3633C345.141 33.8678 345.433 32.4539 346.018 31.1254C346.602 29.7969 347.401 28.6318 348.417 27.6336C349.433 26.6354 350.613 25.8539 351.964 25.2855C353.312 24.7172 354.767 24.433 356.325 24.433C357.936 24.433 359.451 24.7172 360.87 25.2855C362.289 25.8539 363.526 26.6354 364.581 27.6336C365.637 28.6318 366.471 29.7933 367.084 31.1254C367.694 32.4539 368 33.8678 368 35.3633C368 35.9459 367.929 36.5817 367.794 37.2744H351.152C351.54 38.4111 352.228 39.3383 353.216 40.0594C354.21 40.7769 355.33 41.1393 356.581 41.1393ZM356.581 29.5838C355.44 29.5838 354.407 29.8963 353.472 30.518C352.542 31.1396 351.84 31.9531 351.365 32.9478H361.794C361.319 31.9496 360.617 31.1396 359.686 30.518C358.756 29.8963 357.722 29.5838 356.581 29.5838Z"
            fill="white"/>
    <path
            d="M94.9159 66.5905C94.096 66.5905 93.39 66.3987 92.7982 66.0115C92.2064 65.6243 91.7501 65.0949 91.4328 64.4165C91.1119 63.738 90.9551 62.9672 90.9551 62.0934C90.9551 61.2088 91.1191 60.4238 91.4471 59.7453C91.7751 59.0668 92.235 58.534 92.8268 58.1503C93.4186 57.7667 94.1066 57.5749 94.8981 57.5749C95.5149 57.5749 96.0675 57.6886 96.563 57.9159C97.0586 58.1433 97.4614 58.4594 97.7752 58.8679C98.0889 59.2764 98.2849 59.7524 98.3634 60.2995H97.0194C96.916 59.9016 96.6914 59.5499 96.3384 59.2409C95.9855 58.9318 95.5149 58.7791 94.9231 58.7791C94.399 58.7791 93.9391 58.914 93.5469 59.184C93.1547 59.454 92.8481 59.8341 92.6307 60.3243C92.4132 60.8146 92.3027 61.39 92.3027 62.0471C92.3027 62.7221 92.4096 63.3082 92.6235 63.8055C92.8374 64.3063 93.1405 64.6936 93.5362 64.9706C93.932 65.2477 94.3919 65.3863 94.9231 65.3863C95.2724 65.3863 95.5897 65.3259 95.8749 65.2051C96.1601 65.0844 96.4026 64.9102 96.5987 64.6829C96.7947 64.4555 96.9374 64.1821 97.0194 63.8659H98.3634C98.2885 64.381 98.0996 64.8428 97.8037 65.2548C97.5042 65.6669 97.112 65.9901 96.6236 66.2317C96.128 66.4697 95.5612 66.5905 94.9159 66.5905Z"
            fill="white"/>
    <path
            d="M101.186 69.6794C100.957 69.6794 100.754 69.6617 100.576 69.6261C100.398 69.5906 100.273 69.5551 100.205 69.5195L100.547 68.3402C100.875 68.4219 101.164 68.4538 101.414 68.429C101.663 68.4077 101.888 68.294 102.084 68.0986C102.28 67.9033 102.458 67.58 102.622 67.136L102.872 66.454L99.6348 57.6905H101.093L103.51 64.6388H103.603L106.02 57.6905H107.478L103.763 67.6795C103.596 68.1306 103.389 68.5036 103.143 68.802C102.897 69.1004 102.612 69.3207 102.287 69.4627C101.959 69.6084 101.592 69.6794 101.186 69.6794Z"
            fill="white"/>
    <path d="M109.25 66.4079V57.6871H116.131V66.4079H114.787V58.9375H110.594V66.4079H109.25Z"
          fill="white"/>
    <path
            d="M122.262 66.5899C121.421 66.5899 120.693 66.4016 120.084 66.0322C119.474 65.6592 119.004 65.137 118.676 64.4657C118.348 63.7943 118.184 63.0127 118.184 62.1176C118.184 61.226 118.348 60.4374 118.676 59.7518C119.004 59.0698 119.463 58.5334 120.055 58.1497C120.647 57.7661 121.335 57.5743 122.127 57.5743C122.583 57.5743 123.032 57.6489 123.478 57.8016C123.923 57.9544 124.326 58.1995 124.69 58.537C125.054 58.8744 125.346 59.322 125.563 59.8797C125.781 60.4374 125.888 61.1194 125.888 61.9329V62.5013H119.143V61.3432H124.519C124.519 60.853 124.423 60.4125 124.226 60.0253C124.03 59.6381 123.752 59.3362 123.396 59.1124C123.039 58.8886 122.615 58.7785 122.127 58.7785C121.592 58.7785 121.128 58.91 120.74 59.1728C120.351 59.4357 120.052 59.7767 119.841 60.1958C119.631 60.615 119.528 61.0662 119.528 61.5457V62.3165C119.528 62.9737 119.642 63.5314 119.873 63.9896C120.102 64.4443 120.422 64.7925 120.832 65.0269C121.242 65.2614 121.72 65.3822 122.262 65.3822C122.615 65.3822 122.936 65.3324 123.221 65.2329C123.506 65.1334 123.756 64.9807 123.966 64.7782C124.177 64.5757 124.337 64.3236 124.451 64.0216L125.749 64.384C125.613 64.8244 125.382 65.2081 125.061 65.5384C124.736 65.8688 124.341 66.1281 123.863 66.3093C123.389 66.4975 122.854 66.5899 122.262 66.5899Z"
            fill="white"/>
    <path
            d="M127.938 69.6768V57.6879H129.235V59.0734H129.396C129.495 58.9206 129.631 58.7287 129.809 58.4907C129.987 58.2527 130.241 58.0431 130.572 57.8549C130.904 57.6666 131.356 57.5743 131.927 57.5743C132.665 57.5743 133.314 57.759 133.877 58.1249C134.44 58.4907 134.879 59.013 135.193 59.6843C135.506 60.3593 135.667 61.1514 135.667 62.0679C135.667 62.9915 135.51 63.7907 135.193 64.4657C134.875 65.1406 134.44 65.6627 133.881 66.0322C133.321 66.4016 132.679 66.5863 131.948 66.5863C131.385 66.5863 130.936 66.494 130.597 66.3057C130.258 66.1174 129.998 65.9043 129.816 65.6627C129.635 65.4212 129.492 65.2223 129.396 65.0624H129.282V69.6732H127.938V69.6768ZM129.26 62.0466C129.26 62.7037 129.356 63.2863 129.549 63.7872C129.741 64.2881 130.027 64.6788 130.397 64.9629C130.768 65.2436 131.225 65.3857 131.766 65.3857C132.33 65.3857 132.8 65.2365 133.178 64.9417C133.556 64.6433 133.841 64.2418 134.034 63.7374C134.226 63.233 134.323 62.6682 134.323 62.0501C134.323 61.4356 134.23 60.885 134.041 60.3912C133.852 59.8975 133.57 59.5067 133.192 59.2154C132.815 58.9277 132.34 58.7821 131.77 58.7821C131.225 58.7821 130.765 58.9206 130.39 59.1941C130.02 59.4676 129.738 59.8512 129.545 60.3415C129.353 60.8317 129.26 61.3965 129.26 62.0466Z"
            fill="white"/>
    <path
            d="M139.061 57.6907V66.4115H137.717V57.6907H139.061ZM142.501 64.5928L145.557 57.6907H146.833L143.05 66.4115H141.956L138.241 57.6907H139.496L142.501 64.5928ZM145.942 66.4079V57.6871H147.286V66.4079H145.942Z"
            fill="white"/>
    <path
            d="M152.32 66.6119C151.764 66.6119 151.261 66.5052 150.812 66.2957C150.359 66.0861 150.003 65.7806 149.735 65.3828C149.468 64.9849 149.336 64.5018 149.336 63.9334C149.336 63.4326 149.436 63.0276 149.632 62.715C149.828 62.4024 150.092 62.1573 150.423 61.9797C150.755 61.8021 151.119 61.6671 151.521 61.5783C151.921 61.4895 152.327 61.4185 152.733 61.3652C153.265 61.2977 153.696 61.2444 154.031 61.2089C154.363 61.1734 154.605 61.113 154.762 61.0242C154.915 60.9354 154.994 60.7862 154.994 60.5695V60.5232C154.994 59.962 154.84 59.5286 154.534 59.2196C154.227 58.9106 153.767 58.7542 153.147 58.7542C152.505 58.7542 152.003 58.8928 151.639 59.1735C151.275 59.4541 151.019 59.7524 150.869 60.0686L149.593 59.6139C149.821 59.0847 150.124 58.669 150.505 58.3742C150.887 58.0758 151.304 57.8698 151.76 57.749C152.213 57.6282 152.662 57.5714 153.101 57.5714C153.382 57.5714 153.707 57.6033 154.07 57.6708C154.438 57.7383 154.791 57.8733 155.136 58.0758C155.479 58.2818 155.767 58.5873 155.992 58.9993C156.217 59.4114 156.334 59.9656 156.334 60.6583V66.4022H154.99V65.2229H154.922C154.83 65.4111 154.68 65.6137 154.466 65.8304C154.252 66.0471 153.971 66.2282 153.618 66.3809C153.258 66.5372 152.826 66.6119 152.32 66.6119ZM152.523 65.4076C153.054 65.4076 153.504 65.3046 153.871 65.095C154.238 64.8855 154.516 64.619 154.701 64.2887C154.887 63.9583 154.983 63.6138 154.983 63.2514V62.0258C154.926 62.0933 154.801 62.1573 154.609 62.2106C154.416 62.2639 154.195 62.3136 153.949 62.3527C153.7 62.3918 153.461 62.4273 153.225 62.4557C152.99 62.4842 152.801 62.509 152.659 62.5268C152.309 62.5729 151.985 62.6439 151.682 62.747C151.379 62.8464 151.136 62.9956 150.951 63.1945C150.766 63.3935 150.673 63.6635 150.673 64.0045C150.673 64.4698 150.848 64.8215 151.193 65.0559C151.546 65.2904 151.988 65.4076 152.523 65.4076Z"
            fill="white"/>
    <path
            d="M158.793 69.6768V57.6879H160.091V59.0734H160.251C160.351 58.9206 160.486 58.7287 160.665 58.4907C160.843 58.2527 161.096 58.0431 161.428 57.8549C161.759 57.6666 162.212 57.5743 162.782 57.5743C163.52 57.5743 164.169 57.759 164.732 58.1249C165.296 58.4907 165.734 59.013 166.048 59.6843C166.362 60.3593 166.522 61.1514 166.522 62.0679C166.522 62.9915 166.365 63.7907 166.048 64.4657C165.731 65.1406 165.296 65.6627 164.736 66.0322C164.176 66.4016 163.535 66.5863 162.804 66.5863C162.24 66.5863 161.791 66.494 161.453 66.3057C161.114 66.1174 160.854 65.9043 160.672 65.6627C160.49 65.4212 160.347 65.2223 160.251 65.0624H160.137V69.6732H158.793V69.6768ZM160.116 62.0466C160.116 62.7037 160.212 63.2863 160.404 63.7872C160.597 64.2881 160.882 64.6788 161.253 64.9629C161.624 65.2436 162.08 65.3857 162.622 65.3857C163.185 65.3857 163.656 65.2365 164.034 64.9417C164.412 64.6433 164.697 64.2418 164.889 63.7374C165.082 63.233 165.178 62.6682 165.178 62.0501C165.178 61.4356 165.085 60.885 164.896 60.3912C164.708 59.8975 164.426 59.5067 164.048 59.2154C163.67 58.9277 163.196 58.7821 162.625 58.7821C162.08 58.7821 161.62 58.9206 161.246 59.1941C160.875 59.4676 160.593 59.8512 160.401 60.3415C160.208 60.8317 160.116 61.3965 160.116 62.0466Z"
            fill="white"/>
    <path
            d="M168.566 66.4079V57.6871H169.91V61.4774H170.798L173.943 57.6871H175.675L172.142 61.8895L175.722 66.4079H173.989L171.119 62.7278H169.91V66.4079H168.566Z"
            fill="white"/>
    <path
            d="M180.489 66.5899C179.647 66.5899 178.92 66.4016 178.31 66.0322C177.701 65.6592 177.23 65.137 176.902 64.4657C176.574 63.7943 176.41 63.0127 176.41 62.1176C176.41 61.226 176.574 60.4374 176.902 59.7518C177.23 59.0698 177.69 58.5334 178.282 58.1497C178.874 57.7661 179.562 57.5743 180.353 57.5743C180.81 57.5743 181.259 57.6489 181.704 57.8016C182.15 57.9544 182.553 58.1995 182.917 58.537C183.28 58.8744 183.573 59.322 183.79 59.8797C184.007 60.4374 184.114 61.1194 184.114 61.9329V62.5013H177.369V61.3432H182.745C182.745 60.853 182.649 60.4125 182.453 60.0253C182.257 59.6381 181.979 59.3362 181.622 59.1124C181.266 58.8886 180.842 58.7785 180.353 58.7785C179.818 58.7785 179.355 58.91 178.966 59.1728C178.578 59.4357 178.278 59.7767 178.068 60.1958C177.858 60.615 177.754 61.0662 177.754 61.5457V62.3165C177.754 62.9737 177.868 63.5314 178.1 63.9896C178.328 64.4443 178.649 64.7925 179.059 65.0269C179.469 65.2614 179.947 65.3822 180.489 65.3822C180.842 65.3822 181.162 65.3324 181.448 65.2329C181.733 65.1334 181.982 64.9807 182.193 64.7782C182.403 64.5757 182.564 64.3236 182.678 64.0216L183.975 64.384C183.84 64.8244 183.608 65.2081 183.287 65.5384C182.963 65.8688 182.567 66.1281 182.089 66.3093C181.615 66.4975 181.084 66.5899 180.489 66.5899Z"
            fill="white"/>
    <path d="M185.344 58.9375V57.6871H192.453V58.9375H189.583V66.4079H188.239V58.9375H185.344Z"
          fill="white"/>
    <path
            d="M200.268 57.6906V66.4114H198.924V57.6906H200.268ZM203.708 64.5927L206.764 57.6906H208.04L204.257 66.4114H203.163L199.448 57.6906H200.703L203.708 64.5927ZM207.149 66.4078V57.687H208.493V66.4078H207.149Z"
            fill="white"/>
    <path
            d="M214.625 66.5901C213.784 66.5901 213.057 66.4018 212.447 66.0324C211.837 65.6594 211.367 65.1372 211.039 64.4659C210.711 63.7945 210.547 63.0129 210.547 62.1178C210.547 61.2262 210.711 60.4376 211.039 59.752C211.367 59.07 211.827 58.5336 212.419 58.1499C213.01 57.7663 213.698 57.5745 214.49 57.5745C214.946 57.5745 215.395 57.6491 215.841 57.8018C216.287 57.9546 216.69 58.1997 217.053 58.5372C217.417 58.8746 217.709 59.3222 217.927 59.8799C218.144 60.4376 218.251 61.1196 218.251 61.9331V62.5015H211.506V61.3434H216.882C216.882 60.8532 216.786 60.4127 216.59 60.0255C216.394 59.6383 216.116 59.3364 215.759 59.1126C215.403 58.8888 214.978 58.7787 214.49 58.7787C213.955 58.7787 213.492 58.9102 213.103 59.173C212.714 59.4359 212.415 59.7769 212.205 60.196C211.994 60.6152 211.891 61.0664 211.891 61.5459V62.3167C211.891 62.9739 212.005 63.5316 212.237 63.9898C212.465 64.4445 212.786 64.7927 213.196 65.0271C213.606 65.2616 214.084 65.3824 214.625 65.3824C214.978 65.3824 215.299 65.3326 215.584 65.2331C215.87 65.1336 216.119 64.9809 216.33 64.7784C216.54 64.5759 216.7 64.3238 216.814 64.0218L218.112 64.3842C217.977 64.8246 217.745 65.2083 217.424 65.5386C217.1 65.869 216.704 66.1283 216.226 66.3095C215.748 66.4977 215.217 66.5901 214.625 66.5901Z"
            fill="white"/>
    <path
            d="M221.078 57.6905L223.174 61.257L225.271 57.6905H226.822L223.994 62.0492L226.822 66.4078H225.271L223.174 63.026L221.078 66.4078H219.527L222.308 62.0492L219.527 57.6905H221.078Z"
            fill="white"/>
    <path
            d="M231.306 66.6119C230.75 66.6119 230.247 66.5052 229.798 66.2957C229.345 66.0861 228.989 65.7806 228.721 65.3828C228.454 64.9849 228.322 64.5018 228.322 63.9334C228.322 63.4326 228.422 63.0276 228.618 62.715C228.814 62.4024 229.078 62.1573 229.41 61.9797C229.741 61.8021 230.105 61.6671 230.508 61.5783C230.907 61.4895 231.313 61.4185 231.72 61.3652C232.251 61.2977 232.682 61.2444 233.017 61.2089C233.349 61.1734 233.591 61.113 233.748 61.0242C233.902 60.9354 233.98 60.7862 233.98 60.5695V60.5232C233.98 59.962 233.827 59.5286 233.52 59.2196C233.214 58.9106 232.754 58.7542 232.133 58.7542C231.492 58.7542 230.989 58.8928 230.625 59.1735C230.262 59.4541 230.005 59.7524 229.855 60.0686L228.579 59.6139C228.807 59.0847 229.11 58.669 229.492 58.3742C229.873 58.0758 230.29 57.8698 230.747 57.749C231.199 57.6282 231.648 57.5714 232.087 57.5714C232.369 57.5714 232.693 57.6033 233.057 57.6708C233.424 57.7383 233.777 57.8733 234.123 58.0758C234.465 58.2818 234.754 58.5873 234.978 58.9993C235.203 59.4114 235.321 59.9656 235.321 60.6583V66.4022H233.976V65.2229H233.909C233.816 65.4111 233.666 65.6137 233.452 65.8304C233.239 66.0471 232.957 66.2282 232.604 66.3809C232.244 66.5372 231.812 66.6119 231.306 66.6119ZM231.509 65.4076C232.041 65.4076 232.49 65.3046 232.857 65.095C233.224 64.8855 233.502 64.619 233.688 64.2887C233.873 63.9583 233.969 63.6138 233.969 63.2514V62.0258C233.912 62.0933 233.788 62.1573 233.595 62.2106C233.403 62.2639 233.181 62.3136 232.936 62.3527C232.686 62.3918 232.447 62.4273 232.212 62.4557C231.976 62.4842 231.788 62.509 231.645 62.5268C231.296 62.5729 230.971 62.6439 230.668 62.747C230.365 62.8464 230.123 62.9956 229.937 63.1945C229.752 63.3935 229.659 63.6635 229.659 64.0045C229.659 64.4698 229.834 64.8215 230.18 65.0559C230.533 65.2904 230.975 65.4076 231.509 65.4076Z"
            fill="white"/>
    <path
            d="M239.119 57.6905V66.4113H237.775V57.6905H239.119ZM243.633 61.4346V62.685H238.802V61.4346H243.633ZM244.656 57.6905V66.4113H243.312V57.6905H244.656Z"
            fill="white"/>
    <path
            d="M248.467 64.4326L252.681 57.6904H254.232V66.4112H252.888V59.669L248.695 66.4112H247.123V57.6904H248.467V64.4326Z"
            fill="white"/>
    <path
            d="M256.143 64.1821H257.579C257.608 64.5764 257.79 64.8748 258.118 65.0808C258.446 65.2868 258.873 65.3863 259.401 65.3863C259.939 65.3863 260.403 65.2762 260.784 65.0524C261.166 64.8286 261.358 64.4733 261.358 63.976C261.358 63.6847 261.287 63.429 261.141 63.2123C260.995 62.9956 260.795 62.8252 260.531 62.7044C260.267 62.5836 259.961 62.5232 259.604 62.5232H258.1V61.319H259.604C260.139 61.319 260.535 61.1982 260.792 60.9566C261.048 60.7151 261.177 60.4132 261.177 60.0473C261.177 59.6566 261.037 59.3439 260.759 59.1095C260.481 58.8715 260.089 58.7542 259.579 58.7542C259.066 58.7542 258.638 58.8679 258.296 59.0988C257.954 59.3261 257.775 59.621 257.754 59.9797H256.342C256.356 59.5108 256.503 59.0952 256.774 58.7329C257.048 58.3706 257.419 58.0864 257.889 57.8804C258.36 57.6744 258.898 57.5714 259.508 57.5714C260.125 57.5714 260.66 57.6779 261.112 57.8911C261.565 58.1042 261.918 58.3955 262.168 58.7578C262.417 59.1237 262.542 59.5357 262.542 59.9975C262.542 60.4877 262.403 60.8856 262.125 61.1911C261.847 61.4931 261.501 61.7098 261.084 61.8377V61.9265C261.415 61.9478 261.701 62.0543 261.947 62.2426C262.193 62.4308 262.382 62.6724 262.521 62.9744C262.656 63.2763 262.727 63.6067 262.727 63.969C262.727 64.4983 262.585 64.96 262.3 65.3508C262.014 65.7415 261.622 66.0471 261.127 66.2602C260.631 66.4733 260.061 66.5799 259.422 66.5799C258.802 66.5799 258.25 66.4769 257.758 66.2744C257.269 66.0719 256.881 65.7913 256.592 65.4289C256.307 65.0773 256.157 64.6581 256.143 64.1821Z"
            fill="white"/>
    <path
            d="M265.969 57.6907V66.4115H264.625V57.6907H265.969ZM269.409 64.5928L272.465 57.6907H273.741L269.958 66.4115H268.864L265.149 57.6907H266.404L269.409 64.5928ZM272.85 66.4079V57.6871H274.194V66.4079H272.85Z"
            fill="white"/>
    <path
            d="M280.209 66.5899C279.417 66.5899 278.725 66.4016 278.134 66.0286C277.538 65.6556 277.075 65.1299 276.743 64.455C276.412 63.7801 276.244 62.995 276.244 62.0928C276.244 61.1834 276.412 60.3912 276.743 59.7127C277.075 59.0342 277.538 58.5085 278.134 58.1355C278.729 57.7625 279.421 57.5743 280.209 57.5743C280.996 57.5743 281.692 57.7625 282.287 58.1355C282.882 58.5085 283.346 59.0378 283.677 59.7127C284.009 60.3912 284.177 61.1834 284.177 62.0928C284.177 62.995 284.009 63.7801 283.677 64.455C283.346 65.1299 282.882 65.6521 282.287 66.0286C281.692 66.4052 280.996 66.5899 280.209 66.5899ZM280.209 65.3857C280.808 65.3857 281.303 65.233 281.692 64.9275C282.08 64.622 282.365 64.217 282.551 63.7196C282.736 63.2188 282.829 62.6789 282.829 62.0963C282.829 61.5138 282.736 60.9702 282.551 60.4658C282.365 59.9614 282.077 59.5565 281.692 59.2439C281.303 58.9348 280.811 58.7785 280.209 58.7785C279.61 58.7785 279.114 58.9348 278.729 59.2439C278.34 59.5529 278.055 59.9614 277.87 60.4658C277.684 60.9702 277.592 61.5138 277.592 62.0963C277.592 62.6789 277.684 63.2188 277.87 63.7196C278.055 64.2205 278.344 64.622 278.729 64.9275C279.114 65.233 279.61 65.3857 280.209 65.3857Z"
            fill="white"/>
    <path
            d="M286.227 66.4079V57.6871H289.806C290.747 57.6871 291.496 57.9003 292.052 58.323C292.608 58.7457 292.883 59.307 292.883 60.0032C292.883 60.5325 292.726 60.941 292.408 61.2323C292.095 61.52 291.688 61.719 291.196 61.8184C291.521 61.8646 291.834 61.9783 292.138 62.1594C292.441 62.3406 292.697 62.5893 292.897 62.9054C293.097 63.2216 293.2 63.6087 293.2 64.0669C293.2 64.5145 293.086 64.9124 292.858 65.2641C292.63 65.6158 292.302 65.8929 291.877 66.0989C291.453 66.3049 290.943 66.4044 290.351 66.4044H286.227V66.4079ZM287.503 61.346H289.806C290.166 61.346 290.476 61.2962 290.733 61.1968C290.99 61.0973 291.189 60.9517 291.328 60.767C291.467 60.5823 291.535 60.3584 291.535 60.0991C291.535 59.7332 291.382 59.442 291.075 59.2324C290.769 59.0228 290.344 58.9162 289.806 58.9162H287.503V61.346ZM287.503 65.1824H290.351C290.815 65.1824 291.179 65.0723 291.439 64.8521C291.703 64.6318 291.831 64.3334 291.831 63.9569C291.831 63.5058 291.699 63.1505 291.439 62.8912C291.179 62.6319 290.815 62.504 290.351 62.504H287.503V65.1824Z"
            fill="white"/>
    <path
            d="M301.085 64.4327L305.302 57.6905H306.853V66.4113H305.509V59.6692L301.316 66.4113H299.744V57.6905H301.088V64.4327H301.085Z"
            fill="white"/>
    <path
            d="M315.166 57.6907V66.4115H313.822V57.6907H315.166ZM318.607 64.5928L321.662 57.6907H322.938L319.156 66.4115H318.061L314.346 57.6907H315.601L318.607 64.5928ZM322.051 66.4079V57.6871H323.395V66.4079H322.051Z"
            fill="white"/>
    <path
            d="M328.431 66.6119C327.875 66.6119 327.372 66.5052 326.923 66.2957C326.47 66.0861 326.11 65.7806 325.846 65.3828C325.579 64.9849 325.447 64.5018 325.447 63.9334C325.447 63.4326 325.547 63.0276 325.743 62.715C325.939 62.4024 326.203 62.1573 326.534 61.9797C326.866 61.8021 327.23 61.6671 327.633 61.5783C328.035 61.4895 328.438 61.4185 328.845 61.3652C329.376 61.2977 329.807 61.2444 330.142 61.2089C330.474 61.1734 330.716 61.113 330.87 61.0242C331.023 60.9354 331.101 60.7862 331.101 60.5695V60.5232C331.101 59.962 330.948 59.5286 330.642 59.2196C330.335 58.9106 329.871 58.7542 329.255 58.7542C328.613 58.7542 328.11 58.8928 327.747 59.1735C327.383 59.4541 327.126 59.7524 326.977 60.0686L325.7 59.6139C325.928 59.0847 326.231 58.669 326.617 58.3742C326.998 58.0758 327.415 57.8698 327.871 57.749C328.324 57.6282 328.773 57.5714 329.212 57.5714C329.494 57.5714 329.818 57.6033 330.182 57.6708C330.545 57.7383 330.902 57.8733 331.248 58.0758C331.59 58.2818 331.879 58.5873 332.107 58.9993C332.335 59.4114 332.449 59.9656 332.449 60.6583V66.4022H331.105V65.2229H331.037C330.945 65.4111 330.795 65.6137 330.581 65.8304C330.367 66.0471 330.085 66.2282 329.732 66.3809C329.372 66.5372 328.941 66.6119 328.431 66.6119ZM328.638 65.4076C329.169 65.4076 329.618 65.3046 329.986 65.095C330.353 64.8855 330.631 64.619 330.816 64.2887C331.002 63.9583 331.098 63.6138 331.098 63.2514V62.0258C331.041 62.0933 330.916 62.1573 330.724 62.2106C330.531 62.2639 330.31 62.3136 330.064 62.3527C329.814 62.3918 329.576 62.4273 329.34 62.4557C329.105 62.4842 328.916 62.509 328.773 62.5268C328.424 62.5729 328.1 62.6439 327.797 62.747C327.494 62.8464 327.251 62.9956 327.069 63.1945C326.887 63.3935 326.791 63.6635 326.791 64.0045C326.791 64.4698 326.966 64.8215 327.312 65.0559C327.661 65.2904 328.103 65.4076 328.638 65.4076Z"
            fill="white"/>
    <path
            d="M334.9 57.6905H336.244V65.1609H339.549V57.6905H340.893V65.1609H344.198V57.6905H345.542V66.4113H334.9V57.6905Z"
            fill="white"/>
    <path
            d="M349.348 64.4327L353.566 57.6905H355.117V66.4113H353.773V59.6692L349.58 66.4113H348.008V57.6905H349.352V64.4327H349.348Z"
            fill="white"/>
    <path
            d="M358.922 57.6905V66.4113H357.578V57.6905H358.922ZM363.432 61.4346V62.685H358.601V61.4346H363.432ZM364.459 57.6905V66.4113H363.115V57.6905H364.459Z"
            fill="white"/>
    <path
            d="M36.6872 54.0281C29.393 54.0281 23.457 48.1137 23.457 40.8458C23.457 33.5779 29.393 27.6633 36.6872 27.6633C43.9815 27.6633 49.9174 33.5779 49.9174 40.8458C49.9138 48.1137 43.9815 54.0281 36.6872 54.0281ZM36.6872 30.5087C30.9652 30.5087 26.3091 35.148 26.3091 40.8493C26.3091 46.5507 30.9652 51.1899 36.6872 51.1899C42.4092 51.1899 47.0653 46.5507 47.0653 40.8493C47.0653 35.148 42.4092 30.5087 36.6872 30.5087Z"
            fill="white"/>
    <path
            d="M15.7306 38.7752C15.6619 39.4556 15.6259 40.1458 15.6259 40.8433C15.6259 48.1616 19.3832 54.6023 25.0838 58.3579C25.9064 58.8998 26.3032 59.9234 25.9691 60.8501L24.7152 64.3284C24.5193 64.872 23.9046 65.1369 23.3749 64.906L21.6723 64.1638L16.289 69.3288C15.6009 70.0641 14.403 70.057 13.665 69.3714L7.87171 64.139C7.04817 63.4925 6.96975 62.3415 7.6186 61.5209L10.4182 57.995C11.5189 56.6088 11.5575 54.67 10.7933 53.0734C10.0451 51.5103 8.56334 50.3864 6.83077 50.3519L2.23522 50.2603C1.27264 50.1964 0.431276 49.4042 0.370669 48.3989L0.0034935 40.6159C-0.0571137 39.6106 0.67727 38.751 1.70759 38.6267L9.15515 37.7102C9.28337 37.0993 9.44208 36.4898 9.62729 35.8879C9.78969 35.3601 10.3644 35.0902 10.8843 35.2763L14.3706 36.5239C15.2921 36.8537 15.8288 37.8014 15.7306 38.7752Z"
            fill="white"/>
    <path
            d="M32.7959 61.4535C33.6202 61.5469 34.4579 61.598 35.3055 61.602C43.5397 61.6403 50.7977 57.4546 55.0008 51.0899C55.5404 50.2728 56.5594 49.8848 57.4801 50.2181L61.6571 51.73C62.2032 51.9277 62.4666 52.5474 62.23 53.0778L61.3504 55.0491L67.0838 61.0179C67.9005 61.7812 67.8864 63.1033 67.1178 63.9143L61.251 70.2817C60.5256 71.1874 59.2413 71.268 58.3293 70.5475L54.3987 67.4295C52.8622 66.2107 50.7185 66.1573 48.9429 66.9902C47.1852 67.8145 45.9134 69.4679 45.8652 71.4086L45.7404 76.4311C45.6641 77.4933 44.7761 78.4178 43.6544 78.4795L34.9707 78.8444C33.849 78.9061 32.894 78.091 32.7606 76.9531L31.777 68.7279C31.0614 68.5758 30.3478 68.3866 29.644 68.1653C29.1148 67.9989 28.846 67.4199 29.0371 66.8991L30.5454 62.7893C30.8813 61.8741 31.8273 61.3438 32.7959 61.4535Z"
            fill="white"/>
    <path
            d="M58.1512 43.5124C58.2363 42.7972 58.2862 42.0709 58.2972 41.3362C58.4104 33.7737 54.5884 27.0625 48.7013 23.1076C47.8803 22.556 47.4968 21.5214 47.8483 20.5967L49.2341 16.9518C49.4387 16.4135 50.0546 16.1587 50.5796 16.3952L52.3776 17.205L58.0478 11.9636C58.7737 11.2163 60.0176 11.2419 60.7734 11.9599L66.7091 17.4424C67.5544 18.1214 67.6181 19.309 66.9316 20.1449L63.9763 23.7286C62.8097 25.1433 62.74 27.1533 63.5105 28.8169C64.259 30.4329 65.7651 31.6072 67.5451 31.6688L72.3486 31.8348C73.3472 31.9155 74.2087 32.7449 74.2562 33.7821L74.5175 41.8103C74.5649 42.8475 73.789 43.7223 72.7171 43.8346L64.9687 44.665C64.8235 45.3045 64.6454 45.9419 64.439 46.5707C64.2673 47.0937 63.691 47.354 63.1752 47.1621L59.4802 45.7876C58.5602 45.4455 58.0352 44.4871 58.1512 43.5124Z"
            fill="white"/>
    <path
            d="M40.5705 19.5788C39.7263 19.4919 38.8689 19.4489 38.0017 19.455C29.6358 19.5136 22.3136 23.8823 18.1267 30.4416C17.5981 31.2697 16.5796 31.6714 15.6525 31.3461L11.3575 29.8388C10.811 29.647 10.5412 29.0327 10.7697 28.5006L11.6489 26.4538L5.75856 20.4283C4.9206 19.6587 4.91903 18.3088 5.68928 17.4717L11.5666 10.9017C12.292 9.96847 13.5944 9.87096 14.5285 10.5956L18.5479 13.7267C20.1243 14.9546 22.3112 14.9832 24.1086 14.1104C25.8766 13.2519 27.1416 11.5628 27.167 9.59754L27.2336 4.43976C27.2983 3.35451 28.1884 2.40009 29.326 2.32381L38.1342 1.84829C39.2718 1.77202 40.2508 2.59278 40.3998 3.75286L41.4969 12.1383C42.2313 12.2863 42.964 12.473 43.6869 12.693C44.2163 12.8541 44.491 13.428 44.3075 13.95L42.8085 18.2139C42.4845 19.1357 41.5425 19.6789 40.5705 19.5788Z"
            fill="#FF0000"/>
</svg>