<svg width="184" height="41" viewBox="0 0 184 41" fill="none"
     xmlns="http://www.w3.org/2000/svg">
    <path
            d="M63.5595 23.4267H57.8034V20.9428H59.3044V14.0613L55.6963 23.4249H53.5483L49.8975 14.0811V20.941H51.3985V23.4249H45.6424V20.941H47.1434V11.8077H45.6424V9.32379H50.9813L54.6107 18.8151L58.2615 9.32379H63.5595V11.8077H62.0585V20.941H63.5595V23.4267Z"
            fill="#FF0000"/>
    <path
            d="M77.1793 23.4255H73.1328V22.2888C72.8547 22.6809 72.4233 23.0118 71.8404 23.278C71.2557 23.5442 70.6924 23.6773 70.1505 23.6773C69.3715 23.6773 68.6459 23.5334 67.9703 23.2456C67.2965 22.9579 66.7047 22.5622 66.1966 22.0568C65.6886 21.5514 65.2893 20.9632 64.9969 20.2887C64.7046 19.616 64.5584 18.9002 64.5584 18.143C64.5584 17.3858 64.7046 16.6699 64.9969 15.9972C65.2893 15.3245 65.6886 14.7346 66.1966 14.2292C66.7047 13.7238 67.2947 13.3281 67.9703 13.0403C68.6442 12.7525 69.3715 12.6086 70.1505 12.6086C70.7066 12.6086 71.2807 12.7489 71.8707 13.0295C72.4607 13.3101 72.9242 13.6608 73.2576 14.0817V12.8604H77.1793V15.3443H75.8869V20.9416H77.1793V23.4255ZM73.1328 18.143C73.1328 17.7365 73.0597 17.3534 72.9135 16.9954C72.7674 16.6375 72.5624 16.33 72.2985 16.0692C72.0347 15.8102 71.7281 15.6033 71.3805 15.4487C71.0329 15.294 70.6639 15.2166 70.2753 15.2166C69.8867 15.2166 69.5141 15.294 69.1593 15.4487C68.8046 15.6033 68.498 15.8102 68.2413 16.0692C67.9846 16.3282 67.7796 16.6375 67.6263 16.9954C67.473 17.3534 67.3963 17.7365 67.3963 18.143C67.3963 18.5495 67.473 18.9326 67.6263 19.2905C67.7796 19.6484 67.9846 19.9578 68.2413 20.2168C68.498 20.4758 68.8046 20.6826 69.1593 20.8373C69.5141 20.992 69.8849 21.0693 70.2753 21.0693C70.6639 21.0693 71.0329 20.992 71.3805 20.8373C71.7281 20.6826 72.0347 20.4758 72.2985 20.2168C72.5624 19.9578 72.7674 19.6484 72.9135 19.2905C73.0597 18.9326 73.1328 18.5513 73.1328 18.143Z"
            fill="#FF0000"/>
    <path
            d="M89.2116 19.616C89.0583 20.1772 88.8016 20.7042 88.4398 21.1934C88.0779 21.6845 87.6501 22.1161 87.1563 22.4884C86.6625 22.8607 86.1241 23.1521 85.5394 23.3626C84.9547 23.573 84.3718 23.6773 83.7871 23.6773C82.9939 23.6773 82.2541 23.5334 81.566 23.2456C80.8779 22.9579 80.2736 22.5622 79.7513 22.0568C79.2308 21.5514 78.819 20.9632 78.5213 20.2887C78.2218 19.616 78.0721 18.9002 78.0721 18.143C78.0721 17.3858 78.2147 16.6699 78.4999 15.9972C78.7851 15.3245 79.1737 14.7346 79.6675 14.2292C80.1613 13.7238 80.7353 13.3281 81.3877 13.0403C82.042 12.7525 82.7425 12.6086 83.4948 12.6086C84.0652 12.6086 84.6392 12.7273 85.215 12.9666C85.7926 13.2058 86.2133 13.5007 86.4771 13.8497V12.8604H88.7303V16.3533H86.3737C86.1099 16.0026 85.748 15.7256 85.2899 15.5224C84.8318 15.3191 84.3522 15.2166 83.8513 15.2166C83.0313 15.2166 82.3361 15.5008 81.7657 16.0692C81.1952 16.6375 80.91 17.3282 80.91 18.1412C80.91 18.5477 80.9867 18.9308 81.14 19.2887C81.2933 19.6466 81.5018 19.956 81.7657 20.215C82.0295 20.474 82.3397 20.6808 82.6944 20.8355C83.0491 20.9902 83.4342 21.0675 83.8513 21.0675C84.3647 21.0675 84.8656 20.9308 85.3523 20.6574C85.8389 20.3841 86.1865 20.0369 86.3951 19.616H89.2116Z"
            fill="#FF0000"/>
    <path
            d="M91.3995 20.9425V11.8092H90.1071V9.32526H94.1536V13.8919C94.446 13.5124 94.8702 13.2049 95.4264 12.9657C95.9826 12.7264 96.5316 12.6077 97.0735 12.6077C97.6297 12.6077 98.1538 12.7174 98.6476 12.935C99.1414 13.1527 99.5728 13.4477 99.94 13.8218C100.309 14.1941 100.598 14.6347 100.806 15.1402C101.015 15.6456 101.118 16.187 101.118 16.7643V20.9407H102.411V23.4246H97.0718V20.9407H98.3642V17.223C98.3642 16.66 98.1627 16.1852 97.7599 15.7967C97.357 15.41 96.8703 15.2157 96.2999 15.2157C95.7027 15.2157 95.1947 15.41 94.7775 15.7967C94.3604 16.1834 94.1518 16.66 94.1518 17.223V20.9407H95.4442V23.4246H90.1053V20.9407H91.3995V20.9425Z"
            fill="#FF0000"/>
    <path
            d="M104.685 20.9422V15.3449H103.392V12.861H107.439V20.9422H108.731V23.4261H103.392V20.9422H104.685ZM107.439 11.9779H104.687V9.32678H107.439V11.9779Z"
            fill="#FF0000"/>
    <path
            d="M121.977 23.4255H116.679V20.9416H117.972V17.2383C117.972 16.6771 117.77 16.2005 117.367 15.8066C116.965 15.4145 116.478 15.2166 115.907 15.2166C115.31 15.2166 114.802 15.4127 114.385 15.8066C113.968 16.1987 113.759 16.6771 113.759 17.2383V20.9416H115.011V23.4255H109.734V20.9416H111.007V15.3443H109.715V12.8604H113.636V14.0817C113.984 13.731 114.449 13.3982 115.034 13.0817C115.619 12.7651 116.168 12.6086 116.681 12.6086C117.237 12.6086 117.761 12.7183 118.255 12.9342C118.749 13.1518 119.18 13.4504 119.548 13.8281C119.917 14.2076 120.205 14.6483 120.414 15.1537C120.622 15.6591 120.726 16.1987 120.726 16.7742V20.9416H121.977V23.4255Z"
            fill="#FF0000"/>
    <path
            d="M128.589 21.0691C128.992 21.0691 129.376 20.9845 129.736 20.8172C130.097 20.6482 130.409 20.4251 130.673 20.1446H133.907C133.698 20.6644 133.41 21.1374 133.041 21.5655C132.672 21.9936 132.251 22.3659 131.778 22.6806C131.306 22.9954 130.787 23.2418 130.224 23.4162C129.661 23.5907 129.072 23.6789 128.461 23.6789C127.682 23.6789 126.956 23.5349 126.281 23.2472C125.607 22.9594 125.015 22.5637 124.507 22.0583C123.999 21.5529 123.6 20.9647 123.307 20.2903C123.015 19.6176 122.869 18.9017 122.869 18.1445C122.869 17.3873 123.015 16.6714 123.307 15.9987C123.6 15.3261 123.999 14.7361 124.507 14.2307C125.015 13.7253 125.605 13.3296 126.281 13.0418C126.955 12.754 127.682 12.6102 128.461 12.6102C129.267 12.6102 130.024 12.754 130.734 13.0418C131.443 13.3296 132.062 13.7253 132.59 14.2307C133.117 14.7361 133.534 15.3243 133.841 15.9987C134.146 16.6714 134.299 17.3873 134.299 18.1445C134.299 18.4395 134.263 18.7614 134.196 19.1121H125.874C126.069 19.6877 126.413 20.1572 126.907 20.5223C127.404 20.8856 127.964 21.0691 128.589 21.0691ZM128.589 15.2182C128.019 15.2182 127.502 15.3764 127.035 15.6912C126.57 16.0059 126.219 16.4178 125.981 16.9214H131.196C130.958 16.416 130.607 16.0059 130.142 15.6912C129.677 15.3764 129.16 15.2182 128.589 15.2182Z"
            fill="#FF0000"/>
    <path
            d="M144.774 19.3233C144.774 19.969 144.667 20.5572 144.451 21.0914C144.236 21.6238 143.931 22.0842 143.533 22.4691C143.138 22.8558 142.66 23.1526 142.105 23.3631C141.549 23.5735 140.924 23.6778 140.228 23.6778C139.881 23.6778 139.456 23.5825 138.956 23.3936C138.455 23.2048 138.059 22.9476 137.767 22.6256V23.426H135.389V19.0697H137.954C137.954 19.6309 138.141 20.077 138.517 20.4061C138.893 20.7353 139.344 20.9007 139.874 20.9007C140.387 20.9007 140.833 20.7676 141.209 20.5014C141.585 20.2352 141.772 19.9187 141.772 19.5554C141.772 19.1345 141.669 18.8053 141.46 18.5661C141.252 18.3269 140.977 18.1273 140.637 17.9672C140.296 17.8053 139.902 17.6614 139.458 17.5355C139.013 17.4096 138.562 17.2478 138.103 17.0517C137.283 16.6866 136.602 16.192 136.059 15.5678C135.517 14.9437 135.246 14.1613 135.246 13.2206C135.246 12.6307 135.356 12.0839 135.579 11.5785C135.802 11.0731 136.1 10.636 136.476 10.2637C136.852 9.89142 137.292 9.60002 137.8 9.38959C138.308 9.17915 138.854 9.07483 139.437 9.07483C140.077 9.07483 140.604 9.18997 141.022 9.42199C141.439 9.65402 141.744 9.88782 141.94 10.127V9.32666H144.255V13.3034H141.544C141.544 12.798 141.35 12.3951 140.959 12.0929C140.571 11.7907 140.166 11.6397 139.749 11.6397C139.317 11.6397 138.943 11.7871 138.622 12.0821C138.303 12.3771 138.143 12.7494 138.143 13.1973C138.143 13.5894 138.257 13.8987 138.487 14.1236C138.717 14.3484 139.014 14.5337 139.383 14.6811C139.752 14.8286 140.159 14.9617 140.603 15.0804C141.048 15.1991 141.485 15.3574 141.916 15.5534C142.695 15.9186 143.366 16.4168 143.929 17.0481C144.492 17.6812 144.774 18.4384 144.774 19.3233Z"
            fill="white"/>
    <path
            d="M151.531 15.3452H149.841V20.9425H151.093V23.4264H147.089V15.3452H145.65V12.8613H147.089V9.32526H149.841V12.8613H151.531V15.3452Z"
            fill="white"/>
    <path
            d="M158.08 23.6773C157.301 23.6773 156.576 23.5334 155.9 23.2456C155.226 22.9579 154.634 22.5622 154.126 22.0568C153.618 21.5514 153.219 20.9632 152.927 20.2887C152.634 19.616 152.488 18.9002 152.488 18.143C152.488 17.3858 152.634 16.6699 152.927 15.9972C153.219 15.3245 153.618 14.7346 154.126 14.2292C154.634 13.7238 155.224 13.3281 155.9 13.0403C156.574 12.7525 157.301 12.6086 158.08 12.6086C158.886 12.6086 159.644 12.7525 160.353 13.0403C161.062 13.3281 161.681 13.7238 162.209 14.2292C162.736 14.7346 163.153 15.3227 163.46 15.9972C163.765 16.6699 163.918 17.3858 163.918 18.143C163.918 18.9002 163.765 19.616 163.46 20.2887C163.153 20.9614 162.736 21.5514 162.209 22.0568C161.679 22.5622 161.061 22.9579 160.353 23.2456C159.644 23.5334 158.886 23.6773 158.08 23.6773ZM161.084 18.143C161.084 17.7365 161.007 17.3534 160.854 16.9954C160.701 16.6375 160.496 16.33 160.239 16.0692C159.982 15.8102 159.676 15.6033 159.321 15.4487C158.966 15.294 158.594 15.2166 158.205 15.2166C157.816 15.2166 157.444 15.294 157.089 15.4487C156.734 15.6033 156.428 15.8102 156.171 16.0692C155.914 16.3282 155.709 16.6375 155.556 16.9954C155.403 17.3534 155.326 17.7365 155.326 18.143C155.326 18.5495 155.403 18.9326 155.556 19.2905C155.709 19.6484 155.914 19.9578 156.171 20.2168C156.428 20.4758 156.734 20.6826 157.089 20.8373C157.444 20.992 157.816 21.0693 158.205 21.0693C158.594 21.0693 158.966 20.992 159.321 20.8373C159.676 20.6826 159.98 20.4758 160.239 20.2168C160.496 19.9578 160.701 19.6484 160.854 19.2905C161.007 18.9326 161.084 18.5513 161.084 18.143Z"
            fill="white"/>
    <path
            d="M166.195 20.9416V15.3443H164.902V12.8604H168.824V14.0817C169.061 13.7166 169.421 13.3802 169.908 13.0709C170.394 12.7633 170.881 12.6086 171.368 12.6086H171.869V15.2184H171.368C170.701 15.2184 170.131 15.4882 169.658 16.0278C169.186 16.5674 168.949 17.2167 168.949 17.9739V20.9416H170.241V23.4255H164.902V20.9416H166.195Z"
            fill="white"/>
    <path
            d="M178.291 21.0691C178.693 21.0691 179.077 20.9845 179.437 20.8172C179.799 20.6482 180.111 20.4251 180.374 20.1446H183.608C183.4 20.6644 183.111 21.1374 182.742 21.5655C182.373 21.9936 181.952 22.3659 181.48 22.6806C181.007 22.9954 180.489 23.2418 179.925 23.4162C179.362 23.5907 178.774 23.6789 178.162 23.6789C177.383 23.6789 176.658 23.5349 175.982 23.2472C175.308 22.9594 174.716 22.5637 174.208 22.0583C173.7 21.5529 173.301 20.9647 173.009 20.2903C172.716 19.6176 172.57 18.9017 172.57 18.1445C172.57 17.3873 172.716 16.6714 173.009 15.9987C173.301 15.3261 173.7 14.7361 174.208 14.2307C174.716 13.7253 175.306 13.3296 175.982 13.0418C176.656 12.754 177.383 12.6102 178.162 12.6102C178.968 12.6102 179.726 12.754 180.435 13.0418C181.145 13.3296 181.763 13.7253 182.291 14.2307C182.818 14.7361 183.236 15.3243 183.542 15.9987C183.847 16.6714 184 17.3873 184 18.1445C184 18.4395 183.965 18.7614 183.897 19.1121H175.576C175.77 19.6877 176.114 20.1572 176.608 20.5223C177.105 20.8856 177.665 21.0691 178.291 21.0691ZM178.291 15.2182C177.72 15.2182 177.203 15.3764 176.736 15.6912C176.271 16.0059 175.92 16.4178 175.683 16.9214H180.897C180.66 16.416 180.308 16.0059 179.843 15.6912C179.378 15.3764 178.861 15.2182 178.291 15.2182Z"
            fill="white"/>
    <path
            d="M47.4531 33.956C47.0431 33.956 46.6902 33.8589 46.3943 33.6628C46.0983 33.4668 45.8702 33.1987 45.7115 32.8552C45.5511 32.5117 45.4727 32.1214 45.4727 31.6789C45.4727 31.2311 45.5547 30.8336 45.7187 30.49C45.8827 30.1465 46.1126 29.8767 46.4085 29.6825C46.7044 29.4882 47.0485 29.3911 47.4442 29.3911C47.7526 29.3911 48.0289 29.4487 48.2767 29.5638C48.5245 29.6789 48.7259 29.8389 48.8828 30.0458C49.0397 30.2526 49.1377 30.4937 49.1769 30.7706H48.5049C48.4532 30.5692 48.3409 30.3911 48.1644 30.2347C47.9879 30.0782 47.7526 30.0008 47.4567 30.0008C47.1947 30.0008 46.9647 30.0692 46.7686 30.2058C46.5725 30.3425 46.4192 30.535 46.3105 30.7832C46.2017 31.0314 46.1465 31.3228 46.1465 31.6555C46.1465 31.9973 46.2 32.294 46.3069 32.5458C46.4139 32.7995 46.5654 32.9955 46.7633 33.1358C46.9611 33.2761 47.1911 33.3463 47.4567 33.3463C47.6314 33.3463 47.79 33.3157 47.9327 33.2545C48.0753 33.1934 48.1965 33.1052 48.2945 32.9901C48.3926 32.875 48.4639 32.7365 48.5049 32.5765H49.1769C49.1395 32.8373 49.045 33.0711 48.8971 33.2797C48.7473 33.4883 48.5512 33.652 48.307 33.7743C48.0592 33.8948 47.7758 33.956 47.4531 33.956Z"
            fill="white"/>
    <path
            d="M50.5899 35.5199C50.4758 35.5199 50.3742 35.5109 50.2851 35.493C50.1959 35.475 50.1335 35.457 50.0997 35.439L50.2708 34.8418C50.4348 34.8832 50.5792 34.8994 50.704 34.8868C50.8288 34.876 50.9411 34.8185 51.0391 34.7195C51.1372 34.6206 51.2263 34.4569 51.3083 34.2321L51.4331 33.8868L49.8145 29.4496H50.5435L51.7522 32.9677H51.7985L53.0071 29.4496H53.7362L51.8787 34.5073C51.7949 34.7357 51.6915 34.9246 51.5685 35.0757C51.4455 35.2267 51.3029 35.3383 51.1407 35.4102C50.9767 35.484 50.7931 35.5199 50.5899 35.5199Z"
            fill="white"/>
    <path d="M54.6211 33.8634V29.4478H58.0616V33.8634H57.3895V30.0809H55.2931V33.8634H54.6211Z"
          fill="white"/>
    <path
            d="M61.1272 33.9556C60.7065 33.9556 60.3428 33.8603 60.038 33.6732C59.7332 33.4844 59.4979 33.22 59.3339 32.88C59.1699 32.5401 59.0879 32.1444 59.0879 31.6911C59.0879 31.2397 59.1699 30.8404 59.3339 30.4933C59.4979 30.1479 59.7278 29.8764 60.0238 29.6821C60.3197 29.4878 60.6637 29.3907 61.0595 29.3907C61.2876 29.3907 61.5122 29.4285 61.7351 29.5058C61.9579 29.5832 62.1593 29.7073 62.3412 29.8782C62.523 30.049 62.6692 30.2757 62.7779 30.558C62.8866 30.8404 62.9401 31.1857 62.9401 31.5976V31.8854H59.5674V31.2991H62.2556C62.2556 31.0508 62.2075 30.8278 62.1094 30.6318C62.0114 30.4357 61.8723 30.2828 61.6941 30.1695C61.5158 30.0562 61.3037 30.0005 61.0595 30.0005C60.7921 30.0005 60.5603 30.067 60.366 30.2001C60.1717 30.3332 60.022 30.5059 59.9168 30.7181C59.8116 30.9303 59.7599 31.1588 59.7599 31.4016V31.7919C59.7599 32.1246 59.817 32.407 59.9328 32.639C60.0469 32.8692 60.2074 33.0455 60.4124 33.1642C60.6174 33.2829 60.8562 33.3441 61.1272 33.3441C61.3037 33.3441 61.4641 33.3189 61.6067 33.2685C61.7493 33.2182 61.8741 33.1408 61.9793 33.0383C62.0845 32.9358 62.1647 32.8081 62.2217 32.6552L62.8706 32.8387C62.8029 33.0617 62.687 33.256 62.5265 33.4232C62.3643 33.5905 62.1665 33.7218 61.9276 33.8135C61.6905 33.9088 61.4231 33.9556 61.1272 33.9556Z"
            fill="white"/>
    <path
            d="M63.9631 35.5187V29.4484H64.612V30.1499H64.6922C64.7421 30.0725 64.8099 29.9754 64.899 29.8549C64.9881 29.7344 65.1147 29.6282 65.2805 29.5329C65.4463 29.4376 65.6726 29.3909 65.9579 29.3909C66.3269 29.3909 66.6513 29.4844 66.933 29.6696C67.2146 29.8549 67.4339 30.1193 67.5907 30.4592C67.7476 30.801 67.8278 31.2021 67.8278 31.6661C67.8278 32.1337 67.7494 32.5384 67.5907 32.8802C67.4321 33.2219 67.2146 33.4863 66.9347 33.6733C66.6549 33.8604 66.334 33.9539 65.9686 33.9539C65.6869 33.9539 65.4623 33.9072 65.2929 33.8118C65.1236 33.7165 64.9935 33.6086 64.9026 33.4863C64.8116 33.364 64.7403 33.2633 64.6922 33.1823H64.6352V35.5169H63.9631V35.5187ZM64.6245 31.6553C64.6245 31.988 64.6726 32.283 64.7689 32.5366C64.8651 32.7903 65.0077 32.9881 65.1931 33.132C65.3785 33.274 65.6067 33.346 65.8776 33.346C66.1593 33.346 66.3946 33.2705 66.5836 33.1212C66.7725 32.9701 66.9151 32.7668 67.0114 32.5114C67.1076 32.256 67.1558 31.9701 67.1558 31.6571C67.1558 31.3459 67.1094 31.0672 67.015 30.8172C66.9205 30.5672 66.7797 30.3693 66.5907 30.2218C66.4017 30.0761 66.1647 30.0024 65.8794 30.0024C65.6067 30.0024 65.3767 30.0725 65.1896 30.211C65.0042 30.3495 64.8633 30.5437 64.7671 30.792C64.6708 31.0402 64.6245 31.3262 64.6245 31.6553Z"
            fill="white"/>
    <path
            d="M69.5256 29.4496V33.8652H68.8535V29.4496H69.5256ZM71.2458 32.9444L72.7735 29.4496H73.4117L71.5203 33.8652H70.973L69.1156 29.4496H69.743L71.2458 32.9444ZM72.966 33.8634V29.4478H73.6381V33.8634H72.966Z"
            fill="white"/>
    <path
            d="M76.1542 33.9667C75.8761 33.9667 75.6247 33.9127 75.4001 33.8066C75.1737 33.7005 74.9955 33.5458 74.8618 33.3444C74.7281 33.1429 74.6621 32.8983 74.6621 32.6105C74.6621 32.3569 74.712 32.1519 74.8101 31.9936C74.9081 31.8353 75.04 31.7112 75.2058 31.6213C75.3716 31.5314 75.5534 31.463 75.7549 31.418C75.9545 31.3731 76.1577 31.3371 76.3609 31.3101C76.6265 31.276 76.8422 31.249 77.0098 31.231C77.1756 31.213 77.2968 31.1824 77.3752 31.1375C77.4519 31.0925 77.4911 31.017 77.4911 30.9072V30.8838C77.4911 30.5997 77.4145 30.3802 77.2612 30.2238C77.1079 30.0673 76.8779 29.9881 76.5677 29.9881C76.2468 29.9881 75.9955 30.0583 75.8137 30.2004C75.6318 30.3425 75.5035 30.4935 75.4286 30.6536L74.7905 30.4234C74.9045 30.1554 75.0561 29.945 75.2468 29.7957C75.4375 29.6446 75.6461 29.5403 75.8743 29.4792C76.1007 29.418 76.3253 29.3892 76.5445 29.3892C76.6854 29.3892 76.8476 29.4054 77.0294 29.4395C77.213 29.4737 77.3895 29.5421 77.5624 29.6446C77.7335 29.7489 77.8779 29.9036 77.9902 30.1122C78.1025 30.3209 78.1614 30.6015 78.1614 30.9522V33.8606H77.4893V33.2634H77.4555C77.4091 33.3587 77.3342 33.4613 77.2273 33.571C77.1203 33.6807 76.9795 33.7724 76.803 33.8498C76.623 33.9289 76.4073 33.9667 76.1542 33.9667ZM76.2558 33.3569C76.5214 33.3569 76.746 33.3048 76.9296 33.1987C77.1132 33.0926 77.2522 32.9577 77.3449 32.7904C77.4376 32.6231 77.4858 32.4487 77.4858 32.2652V31.6446C77.4572 31.6788 77.3948 31.7112 77.2986 31.7382C77.2023 31.7652 77.0918 31.7904 76.9688 31.8102C76.844 31.8299 76.7246 31.8479 76.6069 31.8623C76.4893 31.8767 76.3948 31.8893 76.3235 31.8983C76.1488 31.9217 75.9866 31.9576 75.8351 32.0098C75.6835 32.0601 75.5623 32.1357 75.4696 32.2364C75.3769 32.3371 75.3306 32.4738 75.3306 32.6465C75.3306 32.8821 75.4179 33.0602 75.5908 33.1789C75.7673 33.2976 75.9884 33.3569 76.2558 33.3569Z"
            fill="white"/>
    <path
            d="M79.3926 35.5186V29.4483H80.0415V30.1498H80.1217C80.1716 30.0724 80.2393 29.9753 80.3285 29.8548C80.4176 29.7343 80.5442 29.6281 80.7099 29.5328C80.8757 29.4375 81.1021 29.3907 81.3873 29.3907C81.7563 29.3907 82.0808 29.4842 82.3624 29.6695C82.6441 29.8548 82.8633 30.1192 83.0202 30.4591C83.1771 30.8009 83.2573 31.2019 83.2573 31.666C83.2573 32.1336 83.1789 32.5383 83.0202 32.88C82.8616 33.2218 82.6441 33.4862 82.3642 33.6732C82.0843 33.8603 81.7635 33.9538 81.398 33.9538C81.1164 33.9538 80.8918 33.907 80.7224 33.8117C80.5531 33.7164 80.4229 33.6085 80.332 33.4862C80.2411 33.3638 80.1698 33.2631 80.1217 33.1822H80.0646V35.5168H79.3926V35.5186ZM80.0539 31.6552C80.0539 31.9879 80.1021 32.2829 80.1983 32.5365C80.2946 32.7901 80.4372 32.9879 80.6226 33.1318C80.808 33.2739 81.0361 33.3459 81.3071 33.3459C81.5888 33.3459 81.8241 33.2704 82.013 33.1211C82.202 32.97 82.3446 32.7667 82.4409 32.5113C82.5371 32.2559 82.5852 31.9699 82.5852 31.657C82.5852 31.3458 82.5389 31.067 82.4444 30.817C82.3499 30.567 82.2091 30.3692 82.0202 30.2217C81.8312 30.076 81.5941 30.0023 81.3089 30.0023C81.0361 30.0023 80.8062 30.0724 80.619 30.2109C80.4336 30.3494 80.2928 30.5436 80.1965 30.7918C80.1003 31.04 80.0539 31.326 80.0539 31.6552Z"
            fill="white"/>
    <path
            d="M84.2793 33.8634V29.4478H84.9513V31.367H85.3952L86.9675 29.4478H87.8338L86.0673 31.5756L87.857 33.8634H86.9906L85.5557 32.0001H84.9513V33.8634H84.2793Z"
            fill="white"/>
    <path
            d="M90.2424 33.9556C89.8218 33.9556 89.4581 33.8603 89.1533 33.6732C88.8484 33.4844 88.6131 33.22 88.4491 32.88C88.2851 32.5401 88.2031 32.1444 88.2031 31.6911C88.2031 31.2397 88.2851 30.8404 88.4491 30.4933C88.6131 30.1479 88.8431 29.8764 89.139 29.6821C89.4349 29.4878 89.779 29.3907 90.1747 29.3907C90.4029 29.3907 90.6275 29.4285 90.8503 29.5058C91.0731 29.5832 91.2746 29.7073 91.4564 29.8782C91.6382 30.049 91.7844 30.2757 91.8932 30.558C92.0019 30.8404 92.0554 31.1857 92.0554 31.5976V31.8854H88.6827V31.2991H91.3708C91.3708 31.0508 91.3227 30.8278 91.2247 30.6318C91.1266 30.4357 90.9876 30.2828 90.8093 30.1695C90.631 30.0562 90.4189 30.0005 90.1747 30.0005C89.9073 30.0005 89.6756 30.067 89.4813 30.2001C89.287 30.3332 89.1372 30.5059 89.032 30.7181C88.9269 30.9303 88.8752 31.1588 88.8752 31.4016V31.7919C88.8752 32.1246 88.9322 32.407 89.0481 32.639C89.1622 32.8692 89.3226 33.0455 89.5276 33.1642C89.7326 33.2829 89.9715 33.3441 90.2424 33.3441C90.4189 33.3441 90.5794 33.3189 90.722 33.2685C90.8646 33.2182 90.9893 33.1408 91.0945 33.0383C91.1997 32.9358 91.2799 32.8081 91.337 32.6552L91.9858 32.8387C91.9181 33.0617 91.8022 33.256 91.6418 33.4232C91.4796 33.5905 91.2817 33.7218 91.0428 33.8135C90.8058 33.9088 90.5401 33.9556 90.2424 33.9556Z"
            fill="white"/>
    <path d="M92.6699 30.0809V29.4478H96.2244V30.0809H94.7895V33.8634H94.1174V30.0809H92.6699Z"
          fill="white"/>
    <path
            d="M100.129 29.4496V33.8652H99.457V29.4496H100.129ZM101.849 32.9444L103.377 29.4496H104.015L102.124 33.8652H101.577L99.7191 29.4496H100.347L101.849 32.9444ZM103.57 33.8634V29.4478H104.242V33.8634H103.57Z"
            fill="white"/>
    <path
            d="M107.311 33.956C106.89 33.956 106.526 33.8606 106.221 33.6736C105.917 33.4847 105.681 33.2203 105.517 32.8804C105.353 32.5405 105.271 32.1448 105.271 31.6915C105.271 31.2401 105.353 30.8408 105.517 30.4936C105.681 30.1483 105.911 29.8767 106.207 29.6825C106.503 29.4882 106.847 29.3911 107.243 29.3911C107.471 29.3911 107.696 29.4289 107.919 29.5062C108.141 29.5835 108.343 29.7077 108.525 29.8785C108.706 30.0494 108.853 30.276 108.961 30.5584C109.07 30.8408 109.124 31.1861 109.124 31.598V31.8858H105.751V31.2994H108.439C108.439 31.0512 108.391 30.8282 108.293 30.6321C108.195 30.4361 108.056 30.2832 107.878 30.1699C107.699 30.0566 107.487 30.0008 107.243 30.0008C106.976 30.0008 106.744 30.0674 106.549 30.2005C106.355 30.3336 106.205 30.5062 106.1 30.7185C105.995 30.9307 105.943 31.1591 105.943 31.402V31.7922C105.943 32.125 106 32.4074 106.116 32.6394C106.23 32.8696 106.391 33.0459 106.596 33.1646C106.801 33.2833 107.04 33.3445 107.311 33.3445C107.487 33.3445 107.648 33.3193 107.79 33.2689C107.933 33.2185 108.058 33.1412 108.163 33.0387C108.268 32.9361 108.348 32.8085 108.405 32.6556L109.054 32.839C108.986 33.0621 108.87 33.2563 108.71 33.4236C108.548 33.5909 108.35 33.7222 108.111 33.8139C107.872 33.9092 107.607 33.956 107.311 33.956Z"
            fill="white"/>
    <path
            d="M110.535 29.4496L111.583 31.2554L112.632 29.4496H113.407L111.993 31.6565L113.407 33.8634H112.632L111.583 32.1511L110.535 33.8634H109.76L111.15 31.6565L109.76 29.4496H110.535Z"
            fill="white"/>
    <path
            d="M115.65 33.9667C115.372 33.9667 115.121 33.9127 114.896 33.8066C114.67 33.7005 114.492 33.5458 114.358 33.3444C114.224 33.1429 114.158 32.8983 114.158 32.6105C114.158 32.3569 114.208 32.1519 114.306 31.9936C114.404 31.8353 114.536 31.7112 114.702 31.6213C114.868 31.5314 115.05 31.463 115.251 31.418C115.451 31.3731 115.654 31.3371 115.857 31.3101C116.123 31.276 116.338 31.249 116.506 31.231C116.672 31.213 116.793 31.1824 116.871 31.1375C116.948 31.0925 116.987 31.017 116.987 30.9072V30.8838C116.987 30.5997 116.911 30.3802 116.757 30.2238C116.604 30.0673 116.374 29.9881 116.064 29.9881C115.743 29.9881 115.492 30.0583 115.31 30.2004C115.128 30.3425 115 30.4935 114.925 30.6536L114.287 30.4234C114.401 30.1554 114.552 29.945 114.743 29.7957C114.934 29.6446 115.142 29.5403 115.37 29.4792C115.597 29.418 115.821 29.3892 116.041 29.3892C116.181 29.3892 116.344 29.4054 116.526 29.4395C116.709 29.4737 116.886 29.5421 117.059 29.6446C117.23 29.7489 117.374 29.9036 117.486 30.1122C117.599 30.3209 117.657 30.6015 117.657 30.9522V33.8606H116.985V33.2634H116.952C116.905 33.3587 116.83 33.4613 116.723 33.571C116.616 33.6807 116.476 33.7724 116.299 33.8498C116.119 33.9289 115.903 33.9667 115.65 33.9667ZM115.752 33.3569C116.017 33.3569 116.242 33.3048 116.426 33.1987C116.609 33.0926 116.748 32.9577 116.841 32.7904C116.934 32.6231 116.982 32.4487 116.982 32.2652V31.6446C116.953 31.6788 116.891 31.7112 116.795 31.7382C116.698 31.7652 116.588 31.7904 116.465 31.8102C116.34 31.8299 116.221 31.8479 116.103 31.8623C115.985 31.8767 115.891 31.8893 115.82 31.8983C115.645 31.9217 115.483 31.9576 115.331 32.0098C115.18 32.0601 115.058 32.1357 114.966 32.2364C114.873 32.3371 114.827 32.4738 114.827 32.6465C114.827 32.8821 114.914 33.0602 115.087 33.1789C115.263 33.2976 115.484 33.3569 115.752 33.3569Z"
            fill="white"/>
    <path
            d="M119.559 29.4496V33.8652H118.887V29.4496H119.559ZM121.816 31.3453V31.9784H119.4V31.3453H121.816ZM122.327 29.4496V33.8652H121.655V29.4496H122.327Z"
            fill="white"/>
    <path
            d="M124.231 32.8634L126.338 29.4496H127.113V33.8652H126.441V30.4514L124.345 33.8652H123.559V29.4496H124.231V32.8634Z"
            fill="white"/>
    <path
            d="M128.069 32.7366H128.787C128.801 32.9362 128.892 33.0873 129.056 33.1917C129.22 33.296 129.434 33.3464 129.698 33.3464C129.967 33.3464 130.199 33.2906 130.39 33.1773C130.58 33.0639 130.677 32.8841 130.677 32.6323C130.677 32.4848 130.641 32.3553 130.568 32.2456C130.495 32.1359 130.395 32.0495 130.263 31.9884C130.131 31.9272 129.978 31.8967 129.799 31.8967H129.047V31.2869H129.799C130.067 31.2869 130.265 31.2258 130.393 31.1034C130.521 30.9811 130.586 30.8283 130.586 30.643C130.586 30.4452 130.516 30.2869 130.377 30.1682C130.238 30.0477 130.042 29.9883 129.787 29.9883C129.53 29.9883 129.316 30.0459 129.145 30.1628C128.974 30.2779 128.885 30.4272 128.874 30.6088H128.168C128.175 30.3714 128.249 30.161 128.384 29.9775C128.521 29.7941 128.707 29.6502 128.942 29.5459C129.177 29.4415 129.446 29.3894 129.751 29.3894C130.06 29.3894 130.327 29.4433 130.553 29.5513C130.78 29.6592 130.956 29.8067 131.081 29.9901C131.206 30.1754 131.268 30.384 131.268 30.6178C131.268 30.866 131.199 31.0675 131.06 31.2222C130.921 31.3751 130.748 31.4848 130.539 31.5495V31.5945C130.705 31.6053 130.848 31.6592 130.971 31.7546C131.094 31.8499 131.188 31.9722 131.258 32.1251C131.325 32.278 131.361 32.4453 131.361 32.6287C131.361 32.8967 131.29 33.1305 131.147 33.3284C131.005 33.5262 130.808 33.6809 130.561 33.7888C130.313 33.8967 130.028 33.9507 129.709 33.9507C129.398 33.9507 129.122 33.8985 128.876 33.796C128.632 33.6935 128.438 33.5514 128.293 33.3679C128.151 33.1899 128.076 32.9776 128.069 32.7366Z"
            fill="white"/>
    <path
            d="M132.983 29.4496V33.8652H132.311V29.4496H132.983ZM134.703 32.9444L136.231 29.4496H136.869L134.977 33.8652H134.43L132.573 29.4496H133.2L134.703 32.9444ZM136.423 33.8634V29.4478H137.095V33.8634H136.423Z"
            fill="white"/>
    <path
            d="M140.103 33.9556C139.708 33.9556 139.362 33.8603 139.066 33.6714C138.768 33.4826 138.536 33.2164 138.371 32.8746C138.205 32.5329 138.121 32.1354 138.121 31.6786C138.121 31.2181 138.205 30.817 138.371 30.4735C138.536 30.1299 138.768 29.8638 139.066 29.6749C139.364 29.486 139.709 29.3907 140.103 29.3907C140.497 29.3907 140.845 29.486 141.143 29.6749C141.44 29.8638 141.672 30.1317 141.838 30.4735C142.004 30.817 142.087 31.2181 142.087 31.6786C142.087 32.1354 142.004 32.5329 141.838 32.8746C141.672 33.2164 141.44 33.4808 141.143 33.6714C140.845 33.8621 140.497 33.9556 140.103 33.9556ZM140.103 33.3459C140.403 33.3459 140.651 33.2686 140.845 33.1139C141.039 32.9592 141.182 32.7541 141.275 32.5023C141.367 32.2487 141.414 31.9754 141.414 31.6804C141.414 31.3854 141.367 31.1102 141.275 30.8548C141.182 30.5994 141.037 30.3944 140.845 30.2361C140.651 30.0796 140.405 30.0005 140.103 30.0005C139.804 30.0005 139.556 30.0796 139.364 30.2361C139.169 30.3926 139.027 30.5994 138.934 30.8548C138.841 31.1102 138.795 31.3854 138.795 31.6804C138.795 31.9754 138.841 32.2487 138.934 32.5023C139.027 32.7559 139.171 32.9592 139.364 33.1139C139.556 33.2686 139.804 33.3459 140.103 33.3459Z"
            fill="white"/>
    <path
            d="M143.111 33.8634V29.4478H144.901C145.372 29.4478 145.746 29.5557 146.024 29.7698C146.302 29.9838 146.439 30.268 146.439 30.6205C146.439 30.8885 146.361 31.0953 146.202 31.2428C146.046 31.3885 145.842 31.4893 145.596 31.5396C145.759 31.563 145.915 31.6206 146.067 31.7123C146.218 31.804 146.347 31.9299 146.447 32.09C146.546 32.2501 146.598 32.4461 146.598 32.6781C146.598 32.9047 146.541 33.1062 146.427 33.2843C146.313 33.4623 146.149 33.6026 145.937 33.707C145.725 33.8113 145.47 33.8616 145.174 33.8616H143.111V33.8634ZM143.749 31.3004H144.901C145.081 31.3004 145.236 31.2752 145.365 31.2249C145.493 31.1745 145.593 31.1008 145.662 31.0072C145.732 30.9137 145.766 30.8004 145.766 30.6691C145.766 30.4838 145.689 30.3363 145.536 30.2302C145.382 30.1241 145.17 30.0701 144.901 30.0701H143.749V31.3004ZM143.749 33.2429H145.174C145.406 33.2429 145.587 33.1872 145.718 33.0757C145.849 32.9641 145.914 32.8131 145.914 32.6224C145.914 32.394 145.848 32.2141 145.718 32.0828C145.587 31.9515 145.406 31.8867 145.174 31.8867H143.749V33.2429Z"
            fill="white"/>
    <path
            d="M150.541 32.8634L152.65 29.4496H153.426V33.8652H152.754V30.4514L150.657 33.8652H149.871V29.4496H150.543V32.8634H150.541Z"
            fill="white"/>
    <path
            d="M157.582 29.4496V33.8652H156.91V29.4496H157.582ZM159.302 32.9444L160.83 29.4496H161.468L159.577 33.8652H159.03L157.172 29.4496H157.8L159.302 32.9444ZM161.024 33.8634V29.4478H161.696V33.8634H161.024Z"
            fill="white"/>
    <path
            d="M164.213 33.9667C163.935 33.9667 163.683 33.9127 163.459 33.8066C163.232 33.7005 163.052 33.5458 162.92 33.3444C162.787 33.1429 162.721 32.8983 162.721 32.6105C162.721 32.3569 162.771 32.1519 162.869 31.9936C162.967 31.8353 163.099 31.7112 163.264 31.6213C163.43 31.5314 163.612 31.463 163.813 31.418C164.015 31.3731 164.216 31.3371 164.42 31.3101C164.685 31.276 164.901 31.249 165.068 31.231C165.234 31.213 165.355 31.1824 165.432 31.1375C165.509 31.0925 165.548 31.017 165.548 30.9072V30.8838C165.548 30.5997 165.471 30.3802 165.318 30.2238C165.165 30.0673 164.933 29.9881 164.625 29.9881C164.304 29.9881 164.052 30.0583 163.87 30.2004C163.689 30.3425 163.56 30.4935 163.485 30.6536L162.847 30.4234C162.961 30.1554 163.113 29.945 163.305 29.7957C163.496 29.6446 163.705 29.5403 163.933 29.4792C164.159 29.418 164.384 29.3892 164.603 29.3892C164.744 29.3892 164.906 29.4054 165.088 29.4395C165.27 29.4737 165.448 29.5421 165.621 29.6446C165.792 29.7489 165.937 29.9036 166.051 30.1122C166.165 30.3209 166.222 30.6015 166.222 30.9522V33.8606H165.55V33.2634H165.516C165.469 33.3587 165.395 33.4613 165.288 33.571C165.181 33.6807 165.04 33.7724 164.863 33.8498C164.683 33.9289 164.468 33.9667 164.213 33.9667ZM164.316 33.3569C164.582 33.3569 164.806 33.3048 164.99 33.1987C165.174 33.0926 165.313 32.9577 165.405 32.7904C165.498 32.6231 165.546 32.4487 165.546 32.2652V31.6446C165.518 31.6788 165.455 31.7112 165.359 31.7382C165.263 31.7652 165.152 31.7904 165.029 31.8102C164.904 31.8299 164.785 31.8479 164.667 31.8623C164.55 31.8767 164.455 31.8893 164.384 31.8983C164.209 31.9217 164.047 31.9576 163.895 32.0098C163.744 32.0601 163.623 32.1357 163.532 32.2364C163.441 32.3371 163.393 32.4738 163.393 32.6465C163.393 32.8821 163.48 33.0602 163.653 33.1789C163.828 33.2976 164.049 33.3569 164.316 33.3569Z"
            fill="white"/>
    <path
            d="M167.449 29.4496H168.121V33.2321H169.774V29.4496H170.446V33.2321H172.098V29.4496H172.77V33.8652H167.449V29.4496Z"
            fill="white"/>
    <path
            d="M174.67 32.8634L176.779 29.4496H177.555V33.8652H176.882V30.4514L174.786 33.8652H174V29.4496H174.672V32.8634H174.67Z"
            fill="white"/>
    <path
            d="M179.461 29.4496V33.8652H178.789V29.4496H179.461ZM181.716 31.3453V31.9784H179.301V31.3453H181.716ZM182.23 29.4496V33.8652H181.557V29.4496H182.23Z"
            fill="white"/>
    <path
            d="M18.3418 27.595C14.6946 27.595 11.7266 24.6003 11.7266 20.9204C11.7266 17.2404 14.6946 14.2457 18.3418 14.2457C21.9891 14.2457 24.9571 17.2404 24.9571 20.9204C24.9554 24.6003 21.9891 27.595 18.3418 27.595ZM18.3418 15.6864C15.4808 15.6864 13.1527 18.0354 13.1527 20.9222C13.1527 23.8089 15.4808 26.1579 18.3418 26.1579C21.2029 26.1579 23.531 23.8089 23.531 20.9222C23.531 18.0354 21.2029 15.6864 18.3418 15.6864Z"
            fill="white"/>
    <path
            d="M7.81552 20.6977C7.81395 20.7714 7.81316 20.8453 7.81316 20.9194C7.81316 24.323 9.39822 27.3517 11.8654 29.2962C12.6336 29.9017 13.0346 30.9099 12.7066 31.8313L12.5381 32.3048C12.3431 32.8524 11.7239 33.119 11.1921 32.8843L10.8365 32.7273L8.14472 35.3425C7.80068 35.7148 7.20172 35.7112 6.83272 35.3641L3.93597 32.7147C3.52419 32.3874 3.48498 31.8046 3.80941 31.3891L5.2144 29.5972C5.76298 28.8976 5.78271 27.9261 5.40192 27.1227C5.02419 26.3258 4.27049 25.7511 3.38876 25.7333L1.11764 25.6875C0.636338 25.6551 0.215644 25.254 0.18534 24.745L0.0017468 20.8042C-0.0285577 20.2952 0.338645 19.86 0.853821 19.797L4.57771 19.333C4.6081 19.1864 4.64191 19.0399 4.67893 18.894C4.81548 18.3557 5.39704 18.0842 5.91911 18.2734L6.39906 18.4473C7.31487 18.7792 7.83626 19.7239 7.81552 20.6977Z"
            fill="white"/>
    <path
            d="M17.2505 31.4209C17.3844 31.4263 17.5189 31.4293 17.6538 31.43C21.4649 31.4479 24.8577 29.6334 27.008 26.8076C27.6052 26.0228 28.6263 25.6238 29.5523 25.9632L30.3347 26.25C30.8768 26.4487 31.1385 27.0638 30.9057 27.5921L30.6767 28.112L33.5435 31.1342C33.9518 31.5207 33.9447 32.1902 33.5604 32.6008L30.627 35.8248C30.2642 36.2834 29.6221 36.3242 29.1661 35.9594L27.2079 34.3864C26.4372 33.7673 25.3541 33.7407 24.4608 34.1638C23.588 34.5772 22.9582 35.4001 22.9345 36.3656L22.8714 38.9384C22.8333 39.4762 22.3892 39.9444 21.8284 39.9756L17.4864 40.1604C16.9255 40.1916 16.448 39.7789 16.3813 39.2028L15.8895 35.0381C15.6916 34.9955 15.4939 34.9471 15.2973 34.8934C14.7651 34.7482 14.4984 34.1704 14.6864 33.6518L14.9858 32.8256C15.3195 31.9048 16.2718 31.3814 17.2505 31.4209Z"
            fill="white"/>
    <path
            d="M29.1388 21.4433C29.1425 21.3521 29.1451 21.2607 29.1464 21.169C29.1985 17.642 27.5812 14.4806 25.0253 12.4388C24.2578 11.8257 23.87 10.8061 24.2152 9.88655L24.427 9.32246C24.6306 8.78019 25.2509 8.52389 25.7779 8.76427L26.1865 8.95062L29.0217 6.29676C29.3847 5.91833 30.0066 5.93132 30.3846 6.29488L33.3525 9.07081C33.7751 9.41464 33.807 10.016 33.4637 10.4392L31.9806 12.2604C31.3991 12.9744 31.364 13.9818 31.748 14.8189C32.126 15.6428 32.892 16.2433 33.7978 16.275L36.1723 16.3581C36.6716 16.399 37.1024 16.819 37.1261 17.3441L37.2568 21.4091C37.2805 21.9342 36.8925 22.3772 36.3566 22.434L32.4823 22.8545C32.4458 23.017 32.4053 23.1792 32.3608 23.3407C32.2141 23.8743 31.6311 24.136 31.1132 23.9409L30.5237 23.7189C29.6095 23.3745 29.0993 22.4194 29.1388 21.4433Z"
            fill="white"/>
    <path
            d="M19.4277 10.095C19.285 10.0907 19.1417 10.0889 18.9978 10.09C15.121 10.1175 11.6924 12.0194 9.54464 14.9416C8.95861 15.739 7.93802 16.1517 7.0057 15.8204L6.17038 15.5235C5.62791 15.3308 5.35989 14.7208 5.58472 14.1908L5.82102 13.6337L2.87578 10.5828C2.45679 10.1931 2.456 9.50958 2.84114 9.08575L5.77991 5.75913C6.14258 5.28663 6.79379 5.23726 7.26089 5.60419L9.26337 7.18379C10.054 7.80748 11.1588 7.82138 12.063 7.37795C12.941 6.9474 13.5674 6.10652 13.5799 5.12872L13.6136 2.48727C13.646 1.93777 14.091 1.45452 14.6598 1.4159L19.0641 1.17513C19.6329 1.13651 20.1224 1.55208 20.1969 2.13947L20.7455 6.38527C20.9531 6.42765 21.1604 6.47629 21.3668 6.53069C21.8988 6.67097 22.1713 7.24365 21.9908 7.76348L21.6793 8.66086C21.3573 9.58833 20.409 10.1249 19.4277 10.095Z"
            fill="#FF0000"/>
</svg>