<svg width="18" height="18" viewBox="0 0 18 18" fill="none" xmlns="http://www.w3.org/2000/svg">
<path d="M9.23657 12.2466C7.49952 12.2466 6.08594 10.833 6.08594 9.09596C6.08594 7.35891 7.49952 5.94531 9.23657 5.94531C10.9736 5.94531 12.3872 7.35891 12.3872 9.09596C12.3864 10.833 10.9736 12.2466 9.23657 12.2466ZM9.23657 6.62536C7.87393 6.62536 6.76514 7.73417 6.76514 9.09681C6.76514 10.4595 7.87393 11.5682 9.23657 11.5682C10.5992 11.5682 11.708 10.4595 11.708 9.09681C11.708 7.73417 10.5992 6.62536 9.23657 6.62536Z" fill="#FBFBFB"/>
<path d="M9.23565 14.111C8.77464 14.111 8.32808 14.0473 7.90442 13.931L7.32031 15.5568C7.56398 15.6442 7.81104 15.7147 8.06404 15.7682L8.30685 17.7379C8.33911 18.0104 8.56834 18.204 8.83493 18.1887L10.9014 18.0919C11.168 18.0758 11.3785 17.8533 11.3955 17.5986L11.4354 15.6188C11.9219 15.4583 12.3931 15.2359 12.8261 14.9625L14.3789 16.191C14.5861 16.3396 14.8917 16.3192 15.0742 16.1239L16.4632 14.5915C16.6449 14.3962 16.6466 14.0796 16.4513 13.8979L15.0802 12.4741C15.2024 12.2381 15.306 12.0003 15.3926 11.7592C15.3926 11.7584 15.3934 11.7575 15.3934 11.7575L13.7956 11.1836C13.0035 12.9105 11.2605 14.111 9.23565 14.111Z" fill="#FBFBFB"/>
<path d="M4.22114 9.09464C4.22114 8.789 4.25001 8.4893 4.30265 8.19894L2.86783 7.68359C2.79057 7.90009 2.7269 8.12253 2.68021 8.34582L0.906646 8.56487C0.661285 8.59458 0.486399 8.80003 0.500832 9.04029L0.588271 10.9005C0.602704 11.1407 0.803066 11.3301 1.0323 11.3453L2.8152 11.381C2.95953 11.8191 3.15989 12.2436 3.42053 12.6384L2.31429 14.0367C2.15978 14.2328 2.17845 14.5079 2.37457 14.6624L3.75419 15.913C3.92994 16.0768 4.2152 16.0785 4.37906 15.9028L5.66104 14.6683C5.8682 14.7753 6.07621 14.867 6.28846 14.9442C6.29185 14.9459 6.2961 14.9468 6.29949 14.9476L6.82248 13.4916C5.27136 12.6384 4.22114 10.9896 4.22114 9.09464Z" fill="#FBFBFB"/>
<path d="M17.8974 7.35425C17.883 7.10973 17.6835 6.90172 17.4449 6.90087L15.6289 6.86437C15.4811 6.4178 15.2774 5.98565 15.0116 5.58237L16.1391 4.15777C16.2962 3.95825 16.2716 3.69252 16.0771 3.52017L14.6712 2.24582C14.4921 2.07857 14.2017 2.07686 14.0344 2.25685L12.7278 3.51422C12.513 3.403 12.2974 3.30875 12.0775 3.2298L11.5664 4.65357C13.1634 5.49238 14.2535 7.16662 14.2535 9.0964C14.2535 9.44703 14.217 9.79003 14.1482 10.1203L15.5745 10.6322C15.6535 10.4115 15.7172 10.1874 15.7656 9.95727L17.5722 9.734C17.8227 9.70428 18.0001 9.49458 17.9857 9.25007L17.8974 7.35425Z" fill="#FBFBFB"/>
<path d="M9.23749 4.07868C9.70953 4.07868 10.1654 4.1449 10.5984 4.26715L11.1724 2.66935C11.1707 2.6685 11.1681 2.66765 11.1664 2.6668C10.9219 2.5785 10.6731 2.50888 10.4184 2.45455L10.1722 0.457699C10.1391 0.180926 9.90735 -0.0152042 9.63737 0.000926772L7.54289 0.0985742C7.2729 0.114705 7.05895 0.34053 7.04197 0.598626L7.00122 2.60567C6.50796 2.76868 6.02997 2.99365 5.59104 3.27043L4.01614 2.02495C3.7954 1.8509 3.50165 1.87808 3.31147 2.09287L1.90298 3.64655C1.71874 3.84521 1.71705 4.16527 1.91486 4.35035L3.30468 5.7945C3.18412 6.02543 3.07884 6.26571 2.9897 6.51277C2.98885 6.51532 2.988 6.5187 2.98715 6.52125L4.62996 7.1113C5.39746 5.3284 7.17102 4.07868 9.23749 4.07868Z" fill="#F92C0D"/>
</svg>
