<svg width="184" height="41" viewBox="0 0 184 41" fill="none"
     xmlns="http://www.w3.org/2000/svg">
    <path
            d="M63.5595 23.427H57.8034V20.9431H59.3044V14.0616L55.6963 23.4252H53.5483L49.8975 14.0814V20.9413H51.3985V23.4252H45.6424V20.9413H47.1434V11.8079H45.6424V9.32404H50.9813L54.6107 18.8153L58.2615 9.32404H63.5595V11.8079H62.0585V20.9413H63.5595V23.427Z"
            fill="#FF0000"/>
    <path
            d="M77.1793 23.4258H73.1328V22.289C72.8547 22.6811 72.4233 23.0121 71.8404 23.2783C71.2557 23.5445 70.6924 23.6776 70.1505 23.6776C69.3715 23.6776 68.6459 23.5337 67.9703 23.2459C67.2965 22.9581 66.7047 22.5625 66.1966 22.0571C65.6886 21.5516 65.2893 20.9635 64.9969 20.289C64.7046 19.6163 64.5584 18.9005 64.5584 18.1433C64.5584 17.386 64.7046 16.6702 64.9969 15.9975C65.2893 15.3248 65.6886 14.7349 66.1966 14.2295C66.7047 13.7241 67.2947 13.3283 67.9703 13.0406C68.6442 12.7528 69.3715 12.6089 70.1505 12.6089C70.7066 12.6089 71.2807 12.7492 71.8707 13.0298C72.4607 13.3103 72.9242 13.6611 73.2576 14.082V12.8607H77.1793V15.3446H75.8869V20.9419H77.1793V23.4258ZM73.1328 18.1433C73.1328 17.7368 73.0597 17.3536 72.9135 16.9957C72.7674 16.6378 72.5624 16.3303 72.2985 16.0695C72.0347 15.8105 71.7281 15.6036 71.3805 15.4489C71.0329 15.2943 70.6639 15.2169 70.2753 15.2169C69.8867 15.2169 69.5141 15.2943 69.1593 15.4489C68.8046 15.6036 68.498 15.8105 68.2413 16.0695C67.9846 16.3285 67.7796 16.6378 67.6263 16.9957C67.473 17.3536 67.3963 17.7368 67.3963 18.1433C67.3963 18.5497 67.473 18.9328 67.6263 19.2908C67.7796 19.6487 67.9846 19.9581 68.2413 20.2171C68.498 20.4761 68.8046 20.6829 69.1593 20.8376C69.5141 20.9923 69.8849 21.0696 70.2753 21.0696C70.6639 21.0696 71.0329 20.9923 71.3805 20.8376C71.7281 20.6829 72.0347 20.4761 72.2985 20.2171C72.5624 19.9581 72.7674 19.6487 72.9135 19.2908C73.0597 18.9328 73.1328 18.5515 73.1328 18.1433Z"
            fill="#FF0000"/>
    <path
            d="M89.2116 19.6163C89.0583 20.1775 88.8016 20.7045 88.4398 21.1937C88.0779 21.6847 87.6501 22.1164 87.1563 22.4887C86.6625 22.861 86.1241 23.1524 85.5394 23.3629C84.9547 23.5733 84.3718 23.6776 83.7871 23.6776C82.9939 23.6776 82.2541 23.5337 81.566 23.2459C80.8779 22.9581 80.2736 22.5625 79.7513 22.0571C79.2308 21.5516 78.819 20.9635 78.5213 20.289C78.2218 19.6163 78.0721 18.9005 78.0721 18.1433C78.0721 17.386 78.2147 16.6702 78.4999 15.9975C78.7851 15.3248 79.1737 14.7349 79.6675 14.2295C80.1613 13.7241 80.7353 13.3283 81.3877 13.0406C82.042 12.7528 82.7425 12.6089 83.4948 12.6089C84.0652 12.6089 84.6392 12.7276 85.215 12.9668C85.7926 13.2061 86.2133 13.501 86.4771 13.8499V12.8607H88.7303V16.3536H86.3737C86.1099 16.0029 85.748 15.7259 85.2899 15.5227C84.8318 15.3194 84.3522 15.2169 83.8513 15.2169C83.0313 15.2169 82.3361 15.5011 81.7657 16.0695C81.1952 16.6378 80.91 17.3285 80.91 18.1415C80.91 18.5479 80.9867 18.931 81.14 19.289C81.2933 19.6469 81.5018 19.9563 81.7657 20.2153C82.0295 20.4743 82.3397 20.6811 82.6944 20.8358C83.0491 20.9905 83.4342 21.0678 83.8513 21.0678C84.3647 21.0678 84.8656 20.9311 85.3523 20.6577C85.8389 20.3843 86.1865 20.0372 86.3951 19.6163H89.2116Z"
            fill="#FF0000"/>
    <path
            d="M91.3995 20.9427V11.8094H90.1071V9.3255H94.1536V13.8922C94.446 13.5127 94.8702 13.2051 95.4264 12.9659C95.9826 12.7267 96.5316 12.608 97.0735 12.608C97.6297 12.608 98.1538 12.7177 98.6476 12.9353C99.1414 13.1529 99.5728 13.4479 99.94 13.822C100.309 14.1944 100.598 14.635 100.806 15.1404C101.015 15.6458 101.118 16.1872 101.118 16.7646V20.9409H102.411V23.4248H97.0718V20.9409H98.3642V17.2232C98.3642 16.6602 98.1627 16.1854 97.7599 15.7969C97.357 15.4102 96.8703 15.216 96.2999 15.216C95.7027 15.216 95.1947 15.4102 94.7775 15.7969C94.3604 16.1836 94.1518 16.6602 94.1518 17.2232V20.9409H95.4442V23.4248H90.1053V20.9409H91.3995V20.9427Z"
            fill="#FF0000"/>
    <path
            d="M104.685 20.9424V15.3452H103.392V12.8613H107.439V20.9424H108.731V23.4263H103.392V20.9424H104.685ZM107.439 11.9782H104.687V9.327H107.439V11.9782Z"
            fill="#FF0000"/>
    <path
            d="M121.977 23.4258H116.679V20.9419H117.972V17.2386C117.972 16.6774 117.77 16.2008 117.367 15.8069C116.965 15.4148 116.478 15.2169 115.907 15.2169C115.31 15.2169 114.802 15.413 114.385 15.8069C113.968 16.199 113.759 16.6774 113.759 17.2386V20.9419H115.011V23.4258H109.734V20.9419H111.007V15.3446H109.715V12.8607H113.636V14.082C113.984 13.7312 114.449 13.3985 115.034 13.0819C115.619 12.7654 116.168 12.6089 116.681 12.6089C117.237 12.6089 117.761 12.7186 118.255 12.9344C118.749 13.1521 119.18 13.4507 119.548 13.8284C119.917 14.2079 120.205 14.6485 120.414 15.1539C120.622 15.6594 120.726 16.1989 120.726 16.7745V20.9419H121.977V23.4258Z"
            fill="#FF0000"/>
    <path
            d="M128.589 21.0693C128.992 21.0693 129.376 20.9847 129.736 20.8174C130.097 20.6484 130.409 20.4254 130.673 20.1448H133.907C133.698 20.6646 133.41 21.1376 133.041 21.5657C132.672 21.9938 132.251 22.3661 131.778 22.6808C131.306 22.9956 130.787 23.242 130.224 23.4164C129.661 23.5909 129.072 23.6791 128.461 23.6791C127.682 23.6791 126.956 23.5352 126.281 23.2474C125.607 22.9596 125.015 22.5639 124.507 22.0585C123.999 21.5531 123.6 20.9649 123.307 20.2905C123.015 19.6178 122.869 18.9019 122.869 18.1447C122.869 17.3875 123.015 16.6716 123.307 15.9989C123.6 15.3263 123.999 14.7363 124.507 14.2309C125.015 13.7255 125.605 13.3298 126.281 13.042C126.955 12.7543 127.682 12.6104 128.461 12.6104C129.267 12.6104 130.024 12.7543 130.734 13.042C131.443 13.3298 132.062 13.7255 132.59 14.2309C133.117 14.7363 133.534 15.3245 133.841 15.9989C134.146 16.6716 134.299 17.3875 134.299 18.1447C134.299 18.4397 134.263 18.7616 134.196 19.1124H125.874C126.069 19.6879 126.413 20.1574 126.907 20.5225C127.404 20.8858 127.964 21.0693 128.589 21.0693ZM128.589 15.2184C128.019 15.2184 127.502 15.3766 127.035 15.6914C126.57 16.0061 126.219 16.418 125.981 16.9217H131.196C130.958 16.4162 130.607 16.0061 130.142 15.6914C129.677 15.3766 129.16 15.2184 128.589 15.2184Z"
            fill="#FF0000"/>
    <path
            d="M144.774 19.3236C144.774 19.9693 144.667 20.5574 144.451 21.0916C144.236 21.624 143.931 22.0845 143.533 22.4694C143.138 22.8561 142.66 23.1529 142.105 23.3633C141.549 23.5737 140.924 23.6781 140.228 23.6781C139.881 23.6781 139.456 23.5827 138.956 23.3939C138.455 23.205 138.059 22.9478 137.767 22.6259V23.4262H135.389V19.07H137.954C137.954 19.6312 138.141 20.0772 138.517 20.4064C138.893 20.7355 139.344 20.901 139.874 20.901C140.387 20.901 140.833 20.7679 141.209 20.5017C141.585 20.2355 141.772 19.9189 141.772 19.5556C141.772 19.1347 141.669 18.8056 141.46 18.5664C141.252 18.3272 140.977 18.1275 140.637 17.9675C140.296 17.8056 139.902 17.6617 139.458 17.5358C139.013 17.4099 138.562 17.248 138.103 17.052C137.283 16.6868 136.602 16.1922 136.059 15.5681C135.517 14.944 135.246 14.1616 135.246 13.2209C135.246 12.6309 135.356 12.0842 135.579 11.5788C135.802 11.0734 136.1 10.6363 136.476 10.264C136.852 9.89166 137.292 9.60027 137.8 9.38983C138.308 9.17939 138.854 9.07507 139.437 9.07507C140.077 9.07507 140.604 9.19022 141.022 9.42224C141.439 9.65426 141.744 9.88807 141.94 10.1273V9.32691H144.255V13.3036H141.544C141.544 12.7982 141.35 12.3953 140.959 12.0932C140.571 11.791 140.166 11.6399 139.749 11.6399C139.317 11.6399 138.943 11.7874 138.622 12.0824C138.303 12.3773 138.143 12.7497 138.143 13.1975C138.143 13.5896 138.257 13.899 138.487 14.1238C138.717 14.3486 139.014 14.5339 139.383 14.6814C139.752 14.8289 140.159 14.962 140.603 15.0807C141.048 15.1994 141.485 15.3576 141.916 15.5537C142.695 15.9188 143.366 16.417 143.929 17.0484C144.492 17.6815 144.774 18.4387 144.774 19.3236Z"
            fill="white"/>
    <path
            d="M151.531 15.3455H149.841V20.9427H151.093V23.4266H147.089V15.3455H145.65V12.8616H147.089V9.3255H149.841V12.8616H151.531V15.3455Z"
            fill="white"/>
    <path
            d="M158.08 23.6776C157.301 23.6776 156.576 23.5337 155.9 23.2459C155.226 22.9581 154.634 22.5625 154.126 22.0571C153.618 21.5516 153.219 20.9635 152.927 20.289C152.634 19.6163 152.488 18.9005 152.488 18.1433C152.488 17.386 152.634 16.6702 152.927 15.9975C153.219 15.3248 153.618 14.7349 154.126 14.2295C154.634 13.7241 155.224 13.3283 155.9 13.0406C156.574 12.7528 157.301 12.6089 158.08 12.6089C158.886 12.6089 159.644 12.7528 160.353 13.0406C161.062 13.3283 161.681 13.7241 162.209 14.2295C162.736 14.7349 163.153 15.323 163.46 15.9975C163.765 16.6702 163.918 17.386 163.918 18.1433C163.918 18.9005 163.765 19.6163 163.46 20.289C163.153 20.9617 162.736 21.5516 162.209 22.0571C161.679 22.5625 161.061 22.9581 160.353 23.2459C159.644 23.5337 158.886 23.6776 158.08 23.6776ZM161.084 18.1433C161.084 17.7368 161.007 17.3536 160.854 16.9957C160.701 16.6378 160.496 16.3303 160.239 16.0695C159.982 15.8105 159.676 15.6036 159.321 15.4489C158.966 15.2943 158.594 15.2169 158.205 15.2169C157.816 15.2169 157.444 15.2943 157.089 15.4489C156.734 15.6036 156.428 15.8105 156.171 16.0695C155.914 16.3285 155.709 16.6378 155.556 16.9957C155.403 17.3536 155.326 17.7368 155.326 18.1433C155.326 18.5497 155.403 18.9328 155.556 19.2908C155.709 19.6487 155.914 19.9581 156.171 20.2171C156.428 20.4761 156.734 20.6829 157.089 20.8376C157.444 20.9923 157.816 21.0696 158.205 21.0696C158.594 21.0696 158.966 20.9923 159.321 20.8376C159.676 20.6829 159.98 20.4761 160.239 20.2171C160.496 19.9581 160.701 19.6487 160.854 19.2908C161.007 18.9328 161.084 18.5515 161.084 18.1433Z"
            fill="white"/>
    <path
            d="M166.195 20.9419V15.3446H164.902V12.8607H168.824V14.082C169.061 13.7169 169.421 13.3805 169.908 13.0711C170.394 12.7636 170.881 12.6089 171.368 12.6089H171.869V15.2187H171.368C170.701 15.2187 170.131 15.4885 169.658 16.0281C169.186 16.5677 168.949 17.2169 168.949 17.9742V20.9419H170.241V23.4258H164.902V20.9419H166.195Z"
            fill="white"/>
    <path
            d="M178.291 21.0693C178.693 21.0693 179.077 20.9847 179.437 20.8174C179.799 20.6484 180.111 20.4254 180.374 20.1448H183.608C183.4 20.6646 183.111 21.1376 182.742 21.5657C182.373 21.9938 181.952 22.3661 181.48 22.6808C181.007 22.9956 180.489 23.242 179.925 23.4164C179.362 23.5909 178.774 23.6791 178.162 23.6791C177.383 23.6791 176.658 23.5352 175.982 23.2474C175.308 22.9596 174.716 22.5639 174.208 22.0585C173.7 21.5531 173.301 20.9649 173.009 20.2905C172.716 19.6178 172.57 18.9019 172.57 18.1447C172.57 17.3875 172.716 16.6716 173.009 15.9989C173.301 15.3263 173.7 14.7363 174.208 14.2309C174.716 13.7255 175.306 13.3298 175.982 13.042C176.656 12.7543 177.383 12.6104 178.162 12.6104C178.968 12.6104 179.726 12.7543 180.435 13.042C181.145 13.3298 181.763 13.7255 182.291 14.2309C182.818 14.7363 183.236 15.3245 183.542 15.9989C183.847 16.6716 184 17.3875 184 18.1447C184 18.4397 183.965 18.7616 183.897 19.1124H175.576C175.77 19.6879 176.114 20.1574 176.608 20.5225C177.105 20.8858 177.665 21.0693 178.291 21.0693ZM178.291 15.2184C177.72 15.2184 177.203 15.3766 176.736 15.6914C176.271 16.0061 175.92 16.418 175.683 16.9217H180.897C180.66 16.4162 180.308 16.0061 179.843 15.6914C179.378 15.3766 178.861 15.2184 178.291 15.2184Z"
            fill="white"/>
    <path
            d="M47.4531 33.9562C47.0431 33.9562 46.6902 33.8591 46.3943 33.6631C46.0983 33.467 45.8702 33.199 45.7115 32.8554C45.5511 32.5119 45.4727 32.1217 45.4727 31.6792C45.4727 31.2313 45.5547 30.8338 45.7187 30.4903C45.8827 30.1468 46.1126 29.877 46.4085 29.6827C46.7044 29.4885 47.0485 29.3914 47.4442 29.3914C47.7526 29.3914 48.0289 29.4489 48.2767 29.564C48.5245 29.6791 48.7259 29.8392 48.8828 30.046C49.0397 30.2529 49.1377 30.4939 49.1769 30.7709H48.5049C48.4532 30.5694 48.3409 30.3914 48.1644 30.2349C47.9879 30.0784 47.7526 30.0011 47.4567 30.0011C47.1947 30.0011 46.9647 30.0694 46.7686 30.2061C46.5725 30.3428 46.4192 30.5353 46.3105 30.7835C46.2017 31.0317 46.1465 31.323 46.1465 31.6558C46.1465 31.9975 46.2 32.2943 46.3069 32.5461C46.4139 32.7997 46.5654 32.9958 46.7633 33.136C46.9611 33.2763 47.1911 33.3465 47.4567 33.3465C47.6314 33.3465 47.79 33.3159 47.9327 33.2548C48.0753 33.1936 48.1965 33.1055 48.2945 32.9903C48.3926 32.8752 48.4639 32.7368 48.5049 32.5767H49.1769C49.1395 32.8375 49.045 33.0713 48.8971 33.2799C48.7473 33.4886 48.5512 33.6523 48.307 33.7746C48.0592 33.8951 47.7758 33.9562 47.4531 33.9562Z"
            fill="white"/>
    <path
            d="M50.5899 35.5202C50.4758 35.5202 50.3742 35.5112 50.2851 35.4932C50.1959 35.4752 50.1335 35.4572 50.0997 35.4392L50.2708 34.8421C50.4348 34.8834 50.5792 34.8996 50.704 34.887C50.8288 34.8762 50.9411 34.8187 51.0391 34.7198C51.1372 34.6209 51.2263 34.4572 51.3083 34.2324L51.4331 33.887L49.8145 29.4498H50.5435L51.7522 32.9679H51.7985L53.0071 29.4498H53.7362L51.8787 34.5076C51.7949 34.736 51.6915 34.9248 51.5685 35.0759C51.4455 35.227 51.3029 35.3385 51.1407 35.4105C50.9767 35.4842 50.7931 35.5202 50.5899 35.5202Z"
            fill="white"/>
    <path d="M54.6211 33.8637V29.4481H58.0616V33.8637H57.3895V30.0812H55.2931V33.8637H54.6211Z"
          fill="white"/>
    <path
            d="M61.1272 33.9559C60.7065 33.9559 60.3428 33.8605 60.038 33.6735C59.7332 33.4846 59.4979 33.2202 59.3339 32.8803C59.1699 32.5404 59.0879 32.1446 59.0879 31.6914C59.0879 31.2399 59.1699 30.8407 59.3339 30.4935C59.4979 30.1482 59.7278 29.8766 60.0238 29.6823C60.3197 29.4881 60.6637 29.391 61.0595 29.391C61.2876 29.391 61.5122 29.4287 61.7351 29.5061C61.9579 29.5834 62.1593 29.7075 62.3412 29.8784C62.523 30.0493 62.6692 30.2759 62.7779 30.5583C62.8866 30.8407 62.9401 31.186 62.9401 31.5979V31.8856H59.5674V31.2993H62.2556C62.2556 31.0511 62.2075 30.8281 62.1094 30.632C62.0114 30.436 61.8723 30.2831 61.6941 30.1698C61.5158 30.0564 61.3037 30.0007 61.0595 30.0007C60.7921 30.0007 60.5603 30.0673 60.366 30.2004C60.1717 30.3335 60.022 30.5061 59.9168 30.7183C59.8116 30.9306 59.7599 31.159 59.7599 31.4018V31.7921C59.7599 32.1249 59.817 32.4072 59.9328 32.6393C60.0469 32.8695 60.2074 33.0458 60.4124 33.1645C60.6174 33.2832 60.8562 33.3443 61.1272 33.3443C61.3037 33.3443 61.4641 33.3191 61.6067 33.2688C61.7493 33.2184 61.8741 33.1411 61.9793 33.0385C62.0845 32.936 62.1647 32.8083 62.2217 32.6555L62.8706 32.8389C62.8029 33.062 62.687 33.2562 62.5265 33.4235C62.3643 33.5907 62.1665 33.722 61.9276 33.8138C61.6905 33.9091 61.4231 33.9559 61.1272 33.9559Z"
            fill="white"/>
    <path
            d="M63.9631 35.519V29.4487H64.612V30.1502H64.6922C64.7421 30.0728 64.8099 29.9757 64.899 29.8552C64.9881 29.7346 65.1147 29.6285 65.2805 29.5332C65.4463 29.4379 65.6726 29.3911 65.9579 29.3911C66.3269 29.3911 66.6513 29.4846 66.933 29.6699C67.2146 29.8552 67.4339 30.1196 67.5907 30.4595C67.7476 30.8012 67.8278 31.2023 67.8278 31.6664C67.8278 32.134 67.7494 32.5387 67.5907 32.8804C67.4321 33.2222 67.2146 33.4866 66.9347 33.6736C66.6549 33.8607 66.334 33.9542 65.9686 33.9542C65.6869 33.9542 65.4623 33.9074 65.2929 33.8121C65.1236 33.7168 64.9935 33.6089 64.9026 33.4866C64.8116 33.3642 64.7403 33.2635 64.6922 33.1826H64.6352V35.5172H63.9631V35.519ZM64.6245 31.6556C64.6245 31.9883 64.6726 32.2833 64.7689 32.5369C64.8651 32.7905 65.0077 32.9883 65.1931 33.1322C65.3785 33.2743 65.6067 33.3463 65.8776 33.3463C66.1593 33.3463 66.3946 33.2708 66.5836 33.1215C66.7725 32.9704 66.9151 32.7671 67.0114 32.5117C67.1076 32.2563 67.1558 31.9703 67.1558 31.6574C67.1558 31.3462 67.1094 31.0674 67.015 30.8174C66.9205 30.5674 66.7797 30.3696 66.5907 30.2221C66.4017 30.0764 66.1647 30.0027 65.8794 30.0027C65.6067 30.0027 65.3767 30.0728 65.1896 30.2113C65.0042 30.3498 64.8633 30.544 64.7671 30.7922C64.6708 31.0404 64.6245 31.3264 64.6245 31.6556Z"
            fill="white"/>
    <path
            d="M69.5256 29.4499V33.8655H68.8535V29.4499H69.5256ZM71.2458 32.9447L72.7735 29.4499H73.4117L71.5203 33.8655H70.973L69.1156 29.4499H69.743L71.2458 32.9447ZM72.966 33.8637V29.4481H73.6381V33.8637H72.966Z"
            fill="white"/>
    <path
            d="M76.1542 33.967C75.8761 33.967 75.6247 33.913 75.4001 33.8069C75.1737 33.7008 74.9955 33.5461 74.8618 33.3447C74.7281 33.1432 74.6621 32.8986 74.6621 32.6108C74.6621 32.3572 74.712 32.1522 74.8101 31.9939C74.9081 31.8356 75.04 31.7115 75.2058 31.6216C75.3716 31.5317 75.5534 31.4633 75.7549 31.4183C75.9545 31.3734 76.1577 31.3374 76.3609 31.3104C76.6265 31.2763 76.8422 31.2493 77.0098 31.2313C77.1756 31.2133 77.2968 31.1827 77.3752 31.1378C77.4519 31.0928 77.4911 31.0173 77.4911 30.9075V30.8841C77.4911 30.6 77.4145 30.3805 77.2612 30.2241C77.1079 30.0676 76.8779 29.9884 76.5677 29.9884C76.2468 29.9884 75.9955 30.0586 75.8137 30.2007C75.6318 30.3428 75.5035 30.4938 75.4286 30.6539L74.7905 30.4237C74.9045 30.1557 75.0561 29.9453 75.2468 29.796C75.4375 29.6449 75.6461 29.5406 75.8743 29.4795C76.1007 29.4183 76.3253 29.3895 76.5445 29.3895C76.6854 29.3895 76.8476 29.4057 77.0294 29.4398C77.213 29.474 77.3895 29.5424 77.5624 29.6449C77.7335 29.7492 77.8779 29.9039 77.9902 30.1125C78.1025 30.3212 78.1614 30.6018 78.1614 30.9525V33.8609H77.4893V33.2637H77.4555C77.4091 33.359 77.3342 33.4616 77.2273 33.5713C77.1203 33.681 76.9795 33.7727 76.803 33.8501C76.623 33.9292 76.4073 33.967 76.1542 33.967ZM76.2558 33.3572C76.5214 33.3572 76.746 33.3051 76.9296 33.199C77.1132 33.0929 77.2522 32.958 77.3449 32.7907C77.4376 32.6234 77.4858 32.449 77.4858 32.2655V31.645C77.4572 31.6791 77.3948 31.7115 77.2986 31.7385C77.2023 31.7655 77.0918 31.7907 76.9688 31.8105C76.844 31.8302 76.7246 31.8482 76.6069 31.8626C76.4893 31.877 76.3948 31.8896 76.3235 31.8986C76.1488 31.922 75.9866 31.9579 75.8351 32.0101C75.6835 32.0604 75.5623 32.136 75.4696 32.2367C75.3769 32.3374 75.3306 32.4741 75.3306 32.6468C75.3306 32.8824 75.4179 33.0605 75.5908 33.1792C75.7673 33.2979 75.9884 33.3572 76.2558 33.3572Z"
            fill="white"/>
    <path
            d="M79.3926 35.5188V29.4485H80.0415V30.15H80.1217C80.1716 30.0727 80.2393 29.9755 80.3285 29.855C80.4176 29.7345 80.5442 29.6284 80.7099 29.533C80.8757 29.4377 81.1021 29.391 81.3873 29.391C81.7563 29.391 82.0808 29.4845 82.3624 29.6697C82.6441 29.855 82.8633 30.1194 83.0202 30.4594C83.1771 30.8011 83.2573 31.2022 83.2573 31.6662C83.2573 32.1339 83.1789 32.5386 83.0202 32.8803C82.8616 33.222 82.6441 33.4864 82.3642 33.6735C82.0843 33.8605 81.7635 33.9541 81.398 33.9541C81.1164 33.9541 80.8918 33.9073 80.7224 33.812C80.5531 33.7166 80.4229 33.6087 80.332 33.4864C80.2411 33.3641 80.1698 33.2634 80.1217 33.1824H80.0646V35.517H79.3926V35.5188ZM80.0539 31.6554C80.0539 31.9882 80.1021 32.2832 80.1983 32.5368C80.2946 32.7904 80.4372 32.9882 80.6226 33.1321C80.808 33.2742 81.0361 33.3461 81.3071 33.3461C81.5888 33.3461 81.8241 33.2706 82.013 33.1213C82.202 32.9702 82.3446 32.767 82.4409 32.5116C82.5371 32.2562 82.5852 31.9702 82.5852 31.6572C82.5852 31.3461 82.5389 31.0673 82.4444 30.8173C82.3499 30.5673 82.2091 30.3694 82.0202 30.2219C81.8312 30.0762 81.5941 30.0025 81.3089 30.0025C81.0361 30.0025 80.8062 30.0726 80.619 30.2111C80.4336 30.3496 80.2928 30.5439 80.1965 30.7921C80.1003 31.0403 80.0539 31.3263 80.0539 31.6554Z"
            fill="white"/>
    <path
            d="M84.2793 33.8637V29.4481H84.9513V31.3673H85.3952L86.9675 29.4481H87.8338L86.0673 31.5759L87.857 33.8637H86.9906L85.5557 32.0004H84.9513V33.8637H84.2793Z"
            fill="white"/>
    <path
            d="M90.2424 33.9559C89.8218 33.9559 89.4581 33.8605 89.1533 33.6735C88.8484 33.4846 88.6131 33.2202 88.4491 32.8803C88.2851 32.5404 88.2031 32.1446 88.2031 31.6914C88.2031 31.2399 88.2851 30.8407 88.4491 30.4935C88.6131 30.1482 88.8431 29.8766 89.139 29.6823C89.4349 29.4881 89.779 29.391 90.1747 29.391C90.4029 29.391 90.6275 29.4287 90.8503 29.5061C91.0731 29.5834 91.2746 29.7075 91.4564 29.8784C91.6382 30.0493 91.7844 30.2759 91.8932 30.5583C92.0019 30.8407 92.0554 31.186 92.0554 31.5979V31.8856H88.6827V31.2993H91.3708C91.3708 31.0511 91.3227 30.8281 91.2247 30.632C91.1266 30.436 90.9876 30.2831 90.8093 30.1698C90.631 30.0564 90.4189 30.0007 90.1747 30.0007C89.9073 30.0007 89.6756 30.0673 89.4813 30.2004C89.287 30.3335 89.1372 30.5061 89.032 30.7183C88.9269 30.9306 88.8752 31.159 88.8752 31.4018V31.7921C88.8752 32.1249 88.9322 32.4072 89.0481 32.6393C89.1622 32.8695 89.3226 33.0458 89.5276 33.1645C89.7326 33.2832 89.9715 33.3443 90.2424 33.3443C90.4189 33.3443 90.5794 33.3191 90.722 33.2688C90.8646 33.2184 90.9893 33.1411 91.0945 33.0385C91.1997 32.936 91.2799 32.8083 91.337 32.6555L91.9858 32.8389C91.9181 33.062 91.8022 33.2562 91.6418 33.4235C91.4796 33.5907 91.2817 33.722 91.0428 33.8138C90.8058 33.9091 90.5401 33.9559 90.2424 33.9559Z"
            fill="white"/>
    <path d="M92.6699 30.0812V29.4481H96.2244V30.0812H94.7895V33.8637H94.1174V30.0812H92.6699Z"
          fill="white"/>
    <path
            d="M100.129 29.4499V33.8655H99.457V29.4499H100.129ZM101.849 32.9447L103.377 29.4499H104.015L102.124 33.8655H101.577L99.7191 29.4499H100.347L101.849 32.9447ZM103.57 33.8637V29.4481H104.242V33.8637H103.57Z"
            fill="white"/>
    <path
            d="M107.311 33.9562C106.89 33.9562 106.526 33.8609 106.221 33.6738C105.917 33.485 105.681 33.2206 105.517 32.8807C105.353 32.5407 105.271 32.145 105.271 31.6918C105.271 31.2403 105.353 30.841 105.517 30.4939C105.681 30.1486 105.911 29.877 106.207 29.6827C106.503 29.4885 106.847 29.3914 107.243 29.3914C107.471 29.3914 107.696 29.4291 107.919 29.5064C108.141 29.5838 108.343 29.7079 108.525 29.8788C108.706 30.0496 108.853 30.2763 108.961 30.5587C109.07 30.841 109.124 31.1863 109.124 31.5982V31.886H105.751V31.2997H108.439C108.439 31.0515 108.391 30.8284 108.293 30.6324C108.195 30.4363 108.056 30.2834 107.878 30.1701C107.699 30.0568 107.487 30.0011 107.243 30.0011C106.976 30.0011 106.744 30.0676 106.549 30.2007C106.355 30.3338 106.205 30.5065 106.1 30.7187C105.995 30.931 105.943 31.1594 105.943 31.4022V31.7925C105.943 32.1252 106 32.4076 106.116 32.6396C106.23 32.8698 106.391 33.0461 106.596 33.1649C106.801 33.2836 107.04 33.3447 107.311 33.3447C107.487 33.3447 107.648 33.3195 107.79 33.2691C107.933 33.2188 108.058 33.1414 108.163 33.0389C108.268 32.9364 108.348 32.8087 108.405 32.6558L109.054 32.8393C108.986 33.0623 108.87 33.2566 108.71 33.4238C108.548 33.5911 108.35 33.7224 108.111 33.8141C107.872 33.9095 107.607 33.9562 107.311 33.9562Z"
            fill="white"/>
    <path
            d="M110.535 29.4498L111.583 31.2556L112.632 29.4498H113.407L111.993 31.6567L113.407 33.8636H112.632L111.583 32.1514L110.535 33.8636H109.76L111.15 31.6567L109.76 29.4498H110.535Z"
            fill="white"/>
    <path
            d="M115.65 33.967C115.372 33.967 115.121 33.913 114.896 33.8069C114.67 33.7008 114.492 33.5461 114.358 33.3447C114.224 33.1432 114.158 32.8986 114.158 32.6108C114.158 32.3572 114.208 32.1522 114.306 31.9939C114.404 31.8356 114.536 31.7115 114.702 31.6216C114.868 31.5317 115.05 31.4633 115.251 31.4183C115.451 31.3734 115.654 31.3374 115.857 31.3104C116.123 31.2763 116.338 31.2493 116.506 31.2313C116.672 31.2133 116.793 31.1827 116.871 31.1378C116.948 31.0928 116.987 31.0173 116.987 30.9075V30.8841C116.987 30.6 116.911 30.3805 116.757 30.2241C116.604 30.0676 116.374 29.9884 116.064 29.9884C115.743 29.9884 115.492 30.0586 115.31 30.2007C115.128 30.3428 115 30.4938 114.925 30.6539L114.287 30.4237C114.401 30.1557 114.552 29.9453 114.743 29.796C114.934 29.6449 115.142 29.5406 115.37 29.4795C115.597 29.4183 115.821 29.3895 116.041 29.3895C116.181 29.3895 116.344 29.4057 116.526 29.4398C116.709 29.474 116.886 29.5424 117.059 29.6449C117.23 29.7492 117.374 29.9039 117.486 30.1125C117.599 30.3212 117.657 30.6018 117.657 30.9525V33.8609H116.985V33.2637H116.952C116.905 33.359 116.83 33.4616 116.723 33.5713C116.616 33.681 116.476 33.7727 116.299 33.8501C116.119 33.9292 115.903 33.967 115.65 33.967ZM115.752 33.3572C116.017 33.3572 116.242 33.3051 116.426 33.199C116.609 33.0929 116.748 32.958 116.841 32.7907C116.934 32.6234 116.982 32.449 116.982 32.2655V31.645C116.953 31.6791 116.891 31.7115 116.795 31.7385C116.698 31.7655 116.588 31.7907 116.465 31.8105C116.34 31.8302 116.221 31.8482 116.103 31.8626C115.985 31.877 115.891 31.8896 115.82 31.8986C115.645 31.922 115.483 31.9579 115.331 32.0101C115.18 32.0604 115.058 32.136 114.966 32.2367C114.873 32.3374 114.827 32.4741 114.827 32.6468C114.827 32.8824 114.914 33.0605 115.087 33.1792C115.263 33.2979 115.484 33.3572 115.752 33.3572Z"
            fill="white"/>
    <path
            d="M119.559 29.4498V33.8654H118.887V29.4498H119.559ZM121.816 31.3456V31.9787H119.4V31.3456H121.816ZM122.327 29.4498V33.8654H121.655V29.4498H122.327Z"
            fill="white"/>
    <path
            d="M124.231 32.8636L126.338 29.4498H127.113V33.8654H126.441V30.4517L124.345 33.8654H123.559V29.4498H124.231V32.8636Z"
            fill="white"/>
    <path
            d="M128.069 32.7368H128.787C128.801 32.9365 128.892 33.0876 129.056 33.1919C129.22 33.2962 129.434 33.3466 129.698 33.3466C129.967 33.3466 130.199 33.2908 130.39 33.1775C130.58 33.0642 130.677 32.8843 130.677 32.6325C130.677 32.485 130.641 32.3555 130.568 32.2458C130.495 32.1361 130.395 32.0498 130.263 31.9886C130.131 31.9275 129.978 31.8969 129.799 31.8969H129.047V31.2872H129.799C130.067 31.2872 130.265 31.226 130.393 31.1037C130.521 30.9814 130.586 30.8285 130.586 30.6433C130.586 30.4454 130.516 30.2871 130.377 30.1684C130.238 30.0479 130.042 29.9886 129.787 29.9886C129.53 29.9886 129.316 30.0461 129.145 30.163C128.974 30.2781 128.885 30.4274 128.874 30.6091H128.168C128.175 30.3717 128.249 30.1612 128.384 29.9778C128.521 29.7943 128.707 29.6504 128.942 29.5461C129.177 29.4418 129.446 29.3896 129.751 29.3896C130.06 29.3896 130.327 29.4436 130.553 29.5515C130.78 29.6594 130.956 29.8069 131.081 29.9904C131.206 30.1756 131.268 30.3843 131.268 30.6181C131.268 30.8663 131.199 31.0677 131.06 31.2224C130.921 31.3753 130.748 31.485 130.539 31.5498V31.5948C130.705 31.6055 130.848 31.6595 130.971 31.7548C131.094 31.8501 131.188 31.9725 131.258 32.1253C131.325 32.2782 131.361 32.4455 131.361 32.629C131.361 32.897 131.29 33.1308 131.147 33.3286C131.005 33.5264 130.808 33.6811 130.561 33.7891C130.313 33.897 130.028 33.9509 129.709 33.9509C129.398 33.9509 129.122 33.8988 128.876 33.7963C128.632 33.6937 128.438 33.5516 128.293 33.3682C128.151 33.1901 128.076 32.9779 128.069 32.7368Z"
            fill="white"/>
    <path
            d="M132.983 29.4499V33.8655H132.311V29.4499H132.983ZM134.703 32.9447L136.231 29.4499H136.869L134.977 33.8655H134.43L132.573 29.4499H133.2L134.703 32.9447ZM136.423 33.8637V29.4481H137.095V33.8637H136.423Z"
            fill="white"/>
    <path
            d="M140.103 33.9559C139.708 33.9559 139.362 33.8605 139.066 33.6717C138.768 33.4828 138.536 33.2166 138.371 32.8749C138.205 32.5332 138.121 32.1357 138.121 31.6788C138.121 31.2184 138.205 30.8173 138.371 30.4737C138.536 30.1302 138.768 29.864 139.066 29.6751C139.364 29.4863 139.709 29.391 140.103 29.391C140.497 29.391 140.845 29.4863 141.143 29.6751C141.44 29.864 141.672 30.132 141.838 30.4737C142.004 30.8173 142.087 31.2184 142.087 31.6788C142.087 32.1357 142.004 32.5332 141.838 32.8749C141.672 33.2166 141.44 33.481 141.143 33.6717C140.845 33.8623 140.497 33.9559 140.103 33.9559ZM140.103 33.3461C140.403 33.3461 140.651 33.2688 140.845 33.1141C141.039 32.9594 141.182 32.7544 141.275 32.5026C141.367 32.249 141.414 31.9756 141.414 31.6806C141.414 31.3857 141.367 31.1104 141.275 30.855C141.182 30.5996 141.037 30.3946 140.845 30.2363C140.651 30.0799 140.405 30.0007 140.103 30.0007C139.804 30.0007 139.556 30.0799 139.364 30.2363C139.169 30.3928 139.027 30.5996 138.934 30.855C138.841 31.1104 138.795 31.3857 138.795 31.6806C138.795 31.9756 138.841 32.249 138.934 32.5026C139.027 32.7562 139.171 32.9594 139.364 33.1141C139.556 33.2688 139.804 33.3461 140.103 33.3461Z"
            fill="white"/>
    <path
            d="M143.111 33.8637V29.4481H144.901C145.372 29.4481 145.746 29.556 146.024 29.7701C146.302 29.9841 146.439 30.2683 146.439 30.6208C146.439 30.8888 146.361 31.0956 146.202 31.2431C146.046 31.3888 145.842 31.4896 145.596 31.5399C145.759 31.5633 145.915 31.6209 146.067 31.7126C146.218 31.8043 146.347 31.9302 146.447 32.0903C146.546 32.2504 146.598 32.4464 146.598 32.6784C146.598 32.9051 146.541 33.1065 146.427 33.2846C146.313 33.4626 146.149 33.603 145.937 33.7073C145.725 33.8116 145.47 33.8619 145.174 33.8619H143.111V33.8637ZM143.749 31.3007H144.901C145.081 31.3007 145.236 31.2755 145.365 31.2252C145.493 31.1748 145.593 31.1011 145.662 31.0076C145.732 30.914 145.766 30.8007 145.766 30.6694C145.766 30.4841 145.689 30.3367 145.536 30.2305C145.382 30.1244 145.17 30.0704 144.901 30.0704H143.749V31.3007ZM143.749 33.2432H145.174C145.406 33.2432 145.587 33.1875 145.718 33.076C145.849 32.9644 145.914 32.8134 145.914 32.6227C145.914 32.3943 145.848 32.2144 145.718 32.0831C145.587 31.9518 145.406 31.8871 145.174 31.8871H143.749V33.2432Z"
            fill="white"/>
    <path
            d="M150.541 32.8636L152.65 29.4498H153.426V33.8654H152.754V30.4517L150.657 33.8654H149.871V29.4498H150.543V32.8636H150.541Z"
            fill="white"/>
    <path
            d="M157.582 29.4499V33.8655H156.91V29.4499H157.582ZM159.302 32.9447L160.83 29.4499H161.468L159.577 33.8655H159.03L157.172 29.4499H157.8L159.302 32.9447ZM161.024 33.8637V29.4481H161.696V33.8637H161.024Z"
            fill="white"/>
    <path
            d="M164.213 33.967C163.935 33.967 163.683 33.913 163.459 33.8069C163.232 33.7008 163.052 33.5461 162.92 33.3447C162.787 33.1432 162.721 32.8986 162.721 32.6108C162.721 32.3572 162.771 32.1522 162.869 31.9939C162.967 31.8356 163.099 31.7115 163.264 31.6216C163.43 31.5317 163.612 31.4633 163.813 31.4183C164.015 31.3734 164.216 31.3374 164.42 31.3104C164.685 31.2763 164.901 31.2493 165.068 31.2313C165.234 31.2133 165.355 31.1827 165.432 31.1378C165.509 31.0928 165.548 31.0173 165.548 30.9075V30.8841C165.548 30.6 165.471 30.3805 165.318 30.2241C165.165 30.0676 164.933 29.9884 164.625 29.9884C164.304 29.9884 164.052 30.0586 163.87 30.2007C163.689 30.3428 163.56 30.4938 163.485 30.6539L162.847 30.4237C162.961 30.1557 163.113 29.9453 163.305 29.796C163.496 29.6449 163.705 29.5406 163.933 29.4795C164.159 29.4183 164.384 29.3895 164.603 29.3895C164.744 29.3895 164.906 29.4057 165.088 29.4398C165.27 29.474 165.448 29.5424 165.621 29.6449C165.792 29.7492 165.937 29.9039 166.051 30.1125C166.165 30.3212 166.222 30.6018 166.222 30.9525V33.8609H165.55V33.2637H165.516C165.469 33.359 165.395 33.4616 165.288 33.5713C165.181 33.681 165.04 33.7727 164.863 33.8501C164.683 33.9292 164.468 33.967 164.213 33.967ZM164.316 33.3572C164.582 33.3572 164.806 33.3051 164.99 33.199C165.174 33.0929 165.313 32.958 165.405 32.7907C165.498 32.6234 165.546 32.449 165.546 32.2655V31.645C165.518 31.6791 165.455 31.7115 165.359 31.7385C165.263 31.7655 165.152 31.7907 165.029 31.8105C164.904 31.8302 164.785 31.8482 164.667 31.8626C164.55 31.877 164.455 31.8896 164.384 31.8986C164.209 31.922 164.047 31.9579 163.895 32.0101C163.744 32.0604 163.623 32.136 163.532 32.2367C163.441 32.3374 163.393 32.4741 163.393 32.6468C163.393 32.8824 163.48 33.0605 163.653 33.1792C163.828 33.2979 164.049 33.3572 164.316 33.3572Z"
            fill="white"/>
    <path
            d="M167.449 29.4498H168.121V33.2323H169.774V29.4498H170.446V33.2323H172.098V29.4498H172.77V33.8654H167.449V29.4498Z"
            fill="white"/>
    <path
            d="M174.67 32.8636L176.779 29.4498H177.555V33.8654H176.882V30.4517L174.786 33.8654H174V29.4498H174.672V32.8636H174.67Z"
            fill="white"/>
    <path
            d="M179.461 29.4498V33.8654H178.789V29.4498H179.461ZM181.716 31.3456V31.9787H179.301V31.3456H181.716ZM182.23 29.4498V33.8654H181.557V29.4498H182.23Z"
            fill="white"/>
    <path
            d="M18.3418 27.5952C14.6946 27.5952 11.7266 24.6006 11.7266 20.9206C11.7266 17.2406 14.6946 14.2459 18.3418 14.2459C21.9891 14.2459 24.9571 17.2406 24.9571 20.9206C24.9554 24.6006 21.9891 27.5952 18.3418 27.5952ZM18.3418 15.6866C15.4808 15.6866 13.1527 18.0356 13.1527 20.9224C13.1527 23.8092 15.4808 26.1581 18.3418 26.1581C21.2029 26.1581 23.531 23.8092 23.531 20.9224C23.531 18.0356 21.2029 15.6866 18.3418 15.6866Z"
            fill="white"/>
    <path
            d="M7.81552 20.698C7.81395 20.7717 7.81316 20.8456 7.81316 20.9196C7.81316 24.3232 9.39822 27.3519 11.8654 29.2965C12.6336 29.9019 13.0346 30.9102 12.7066 31.8315L12.5381 32.3051C12.3431 32.8527 11.7239 33.1193 11.1921 32.8845L10.8365 32.7275L8.14472 35.3427C7.80068 35.715 7.20172 35.7114 6.83272 35.3643L3.93597 32.715C3.52419 32.3876 3.48498 31.8048 3.80941 31.3894L5.2144 29.5975C5.76298 28.8979 5.78271 27.9263 5.40192 27.1229C5.02419 26.326 4.27049 25.7514 3.38876 25.7336L1.11764 25.6878C0.636338 25.6554 0.215644 25.2543 0.18534 24.7453L0.0017468 20.8045C-0.0285577 20.2955 0.338645 19.8602 0.853821 19.7973L4.57771 19.3332C4.6081 19.1866 4.64191 19.0402 4.67893 18.8942C4.81548 18.356 5.39704 18.0845 5.91911 18.2737L6.39906 18.4476C7.31487 18.7795 7.83626 19.7241 7.81552 20.698Z"
            fill="white"/>
    <path
            d="M17.2505 31.4211C17.3844 31.4265 17.5189 31.4296 17.6538 31.4302C21.4649 31.4482 24.8577 29.6337 27.008 26.8079C27.6052 26.0231 28.6263 25.624 29.5523 25.9634L30.3347 26.2502C30.8768 26.4489 31.1385 27.064 30.9057 27.5924L30.6767 28.1123L33.5435 31.1345C33.9518 31.521 33.9447 32.1904 33.5604 32.6011L30.627 35.8251C30.2642 36.2836 29.6221 36.3244 29.1661 35.9596L27.2079 34.3867C26.4372 33.7676 25.3541 33.741 24.4608 34.1641C23.588 34.5775 22.9582 35.4004 22.9345 36.3658L22.8714 38.9387C22.8333 39.4765 22.3892 39.9446 21.8284 39.9759L17.4864 40.1606C16.9255 40.1918 16.448 39.7792 16.3813 39.203L15.8895 35.0383C15.6916 34.9957 15.4939 34.9474 15.2973 34.8937C14.7651 34.7484 14.4984 34.1707 14.6864 33.652L14.9858 32.8259C15.3195 31.905 16.2718 31.3817 17.2505 31.4211Z"
            fill="white"/>
    <path
            d="M29.1388 21.4435C29.1425 21.3524 29.1451 21.2609 29.1464 21.1692C29.1985 17.6422 27.5812 14.4808 25.0253 12.439C24.2578 11.8259 23.87 10.8063 24.2152 9.88679L24.427 9.3227C24.6306 8.78043 25.2509 8.52414 25.7779 8.76451L26.1865 8.95086L29.0217 6.297C29.3847 5.91857 30.0066 5.93157 30.3846 6.29512L33.3525 9.07106C33.7751 9.41488 33.807 10.0162 33.4637 10.4394L31.9806 12.2606C31.3991 12.9746 31.364 13.982 31.748 14.8191C32.126 15.6431 32.892 16.2436 33.7978 16.2753L36.1723 16.3584C36.6716 16.3992 37.1024 16.8192 37.1261 17.3444L37.2568 21.4093C37.2805 21.9345 36.8925 22.3774 36.3566 22.4343L32.4823 22.8547C32.4458 23.0172 32.4053 23.1794 32.3608 23.341C32.2141 23.8746 31.6311 24.1363 31.1132 23.9412L30.5237 23.7192C29.6095 23.3748 29.0993 22.4196 29.1388 21.4435Z"
            fill="white"/>
    <path
            d="M19.4277 10.0952C19.285 10.0909 19.1417 10.0892 18.9978 10.0902C15.121 10.1177 11.6924 12.0197 9.54464 14.9419C8.95861 15.7392 7.93802 16.1519 7.0057 15.8206L6.17038 15.5238C5.62791 15.331 5.35989 14.7211 5.58472 14.191L5.82102 13.6339L2.87578 10.583C2.45679 10.1933 2.456 9.50983 2.84114 9.08599L5.77991 5.75937C6.14258 5.28687 6.79379 5.2375 7.26089 5.60443L9.26337 7.18403C10.054 7.80772 11.1588 7.82163 12.063 7.3782C12.941 6.94765 13.5674 6.10676 13.5799 5.12896L13.6136 2.48751C13.646 1.93802 14.091 1.45476 14.6598 1.41614L19.0641 1.17537C19.6329 1.13675 20.1224 1.55233 20.1969 2.13972L20.7455 6.38551C20.9531 6.4279 21.1604 6.47653 21.3668 6.53094C21.8988 6.67121 22.1713 7.24389 21.9908 7.76372L21.6793 8.66111C21.3573 9.58858 20.409 10.1252 19.4277 10.0952Z"
            fill="#FF0000"/>
</svg>