<svg width="40" height="40" viewBox="0 0 40 40" fill="none"
     xmlns="http://www.w3.org/2000/svg">
    <g clip-path="url(#clip0_1_851)">
        <path d="M19.4155 27.2118C15.5554 27.2118 12.4141 24.0705 12.4141 20.2104C12.4141 16.3503 15.5554 13.209 19.4155 13.209C23.2756 13.209 26.4169 16.3503 26.4169 20.2104C26.415 24.0705 23.2756 27.2118 19.4155 27.2118ZM19.4155 14.7202C16.3874 14.7202 13.9234 17.1842 13.9234 20.2123C13.9234 23.2404 16.3874 25.7044 19.4155 25.7044C22.4436 25.7044 24.9076 23.2404 24.9076 20.2123C24.9076 17.1842 22.4436 14.7202 19.4155 14.7202Z"
              fill="#131313"/>
        <path d="M19.4165 31.3549C18.392 31.3549 17.3996 31.2134 16.4582 30.9549L15.1602 34.5678C15.7016 34.7622 16.2507 34.9187 16.8129 35.0376L17.3525 39.4147C17.4242 40.0203 17.9335 40.4505 18.526 40.4165L23.1181 40.2014C23.7105 40.1656 24.1784 39.6713 24.2162 39.1053L24.3048 34.7056C25.3859 34.349 26.433 33.8547 27.3952 33.2472L30.8459 35.9772C31.3062 36.3074 31.9854 36.2621 32.3911 35.8282L35.4777 32.4227C35.8814 31.9888 35.8852 31.2851 35.4512 30.8813L32.4043 27.7174C32.676 27.1929 32.9061 26.6646 33.0986 26.1288C33.0986 26.1269 33.1005 26.125 33.1005 26.125L29.5498 24.8496C27.7895 28.6871 23.9162 31.3549 19.4165 31.3549Z"
              fill="#131313"/>
        <path d="M8.26923 20.209C8.26923 19.5298 8.33336 18.8638 8.45034 18.2186L5.26187 17.0734C5.09018 17.5545 4.94869 18.0488 4.84492 18.545L0.903673 19.0317C0.358426 19.0978 -0.0302093 19.5543 0.00186402 20.0883L0.196173 24.222C0.228246 24.7559 0.673496 25.1766 1.1829 25.2106L5.14489 25.2898C5.46563 26.2633 5.91088 27.2067 6.49009 28.084L4.03178 31.1913C3.68841 31.6271 3.72991 32.2384 4.16573 32.5818L7.23156 35.3609C7.6221 35.725 8.25602 35.7287 8.62014 35.3382L11.469 32.595C11.9293 32.8327 12.3916 33.0365 12.8633 33.2081C12.8708 33.2119 12.8802 33.2138 12.8878 33.2157L14.05 29.9801C10.603 28.084 8.26923 24.4201 8.26923 20.209Z"
              fill="#131313"/>
        <path d="M38.6587 16.3411C38.6266 15.7978 38.1833 15.3355 37.6531 15.3336L33.6175 15.2525C33.2893 14.2601 32.8365 13.2998 32.2459 12.4036L34.7514 9.23786C35.1005 8.79449 35.0458 8.20396 34.6137 7.82097L31.4894 4.98908C31.0913 4.61741 30.446 4.61361 30.0744 5.01359L27.1708 7.80775C26.6935 7.5606 26.2143 7.35116 25.7256 7.1757L24.5898 10.3396C28.1387 12.2037 30.5611 15.9242 30.5611 20.2126C30.5611 20.9918 30.48 21.754 30.3272 22.4879L33.4968 23.6256C33.6722 23.135 33.8137 22.6369 33.9213 22.1256L37.9361 21.6295C38.4927 21.5634 38.887 21.0974 38.8549 20.5541L38.6587 16.3411Z"
              fill="#131313"/>
        <path d="M19.4166 9.06372C20.4656 9.06372 21.4788 9.21088 22.441 9.48256L23.7164 5.93188C23.7126 5.93 23.7069 5.92811 23.7032 5.92622C23.1598 5.73001 22.607 5.5753 22.041 5.45455L21.4939 1.01711C21.4203 0.402057 20.9052 -0.0337872 20.3053 0.00205949L15.6509 0.219054C15.0509 0.2549 14.5755 0.756733 14.5377 1.33028L14.4472 5.79038C13.351 6.15262 12.2888 6.65256 11.3134 7.26761L7.81364 4.49989C7.32311 4.11312 6.67033 4.1735 6.24772 4.65083L3.11772 8.10344C2.70832 8.54492 2.70455 9.25615 3.14414 9.66745L6.23261 12.8767C5.9647 13.3898 5.73077 13.9238 5.53267 14.4728C5.53078 14.4785 5.52889 14.486 5.527 14.4917L9.17769 15.8029C10.8832 11.8409 14.8245 9.06372 19.4166 9.06372Z"
              fill="#FF0000"/>
    </g>
    <defs>
        <clipPath id="clip0_1_851">
            <rect width="40" height="40" rx="20" fill="white"/>
        </clipPath>
    </defs>
</svg>
