<svg width="248" height="54" viewBox="0 0 248 54" fill="none"
     xmlns="http://www.w3.org/2000/svg">
    <path
            d="M85.6692 30.8623H77.9111V27.5562H79.9341V18.3971L75.0713 30.8599H72.1761L67.2556 18.4235V27.5539H69.2786V30.8599H61.5206V27.5539H63.5436V15.3976H61.5206V12.0916H68.7164L73.6081 24.7243L78.5286 12.0916H85.6692V15.3976H83.6462V27.5539H85.6692V30.8623Z"
            fill="#FF0000"/>
    <path
            d="M104.025 30.8609H98.5713V29.348C98.1965 29.8698 97.615 30.3103 96.8294 30.6646C96.0413 31.0189 95.2821 31.1961 94.5517 31.1961C93.5018 31.1961 92.5239 31.0046 91.6133 30.6216C90.7052 30.2385 89.9075 29.7119 89.2228 29.0392C88.538 28.3665 87.9998 27.5837 87.6058 26.686C87.2118 25.7906 87.0148 24.8379 87.0148 23.83C87.0148 22.8222 87.2118 21.8694 87.6058 20.974C87.9998 20.0787 88.538 19.2935 89.2228 18.6209C89.9075 17.9482 90.7027 17.4215 91.6133 17.0384C92.5215 16.6554 93.5018 16.4639 94.5517 16.4639C95.3013 16.4639 96.075 16.6506 96.8702 17.0241C97.6655 17.3975 98.2902 17.8644 98.7395 18.4245V16.7991H104.025V20.1051H102.283V27.5549H104.025V30.8609ZM98.5713 23.83C98.5713 23.289 98.4728 22.7791 98.2757 22.3027C98.0787 21.8263 97.8024 21.417 97.4469 21.0698C97.0913 20.7251 96.678 20.4498 96.2095 20.2439C95.741 20.0381 95.2437 19.9351 94.7199 19.9351C94.1961 19.9351 93.694 20.0381 93.2159 20.2439C92.7378 20.4498 92.3245 20.7251 91.9785 21.0698C91.6326 21.4146 91.3562 21.8263 91.1496 22.3027C90.943 22.7791 90.8397 23.289 90.8397 23.83C90.8397 24.3711 90.943 24.8809 91.1496 25.3573C91.3562 25.8337 91.6326 26.2455 91.9785 26.5902C92.3245 26.935 92.7378 27.2102 93.2159 27.4161C93.694 27.622 94.1937 27.7249 94.7199 27.7249C95.2437 27.7249 95.741 27.622 96.2095 27.4161C96.678 27.2102 97.0913 26.935 97.4469 26.5902C97.8024 26.2455 98.0787 25.8337 98.2757 25.3573C98.4728 24.8809 98.5713 24.3735 98.5713 23.83Z"
            fill="#FF0000"/>
    <path
            d="M120.244 25.7906C120.038 26.5375 119.692 27.239 119.204 27.8901C118.716 28.5437 118.14 29.1182 117.474 29.6137C116.809 30.1093 116.083 30.4971 115.295 30.7772C114.507 31.0573 113.721 31.1961 112.933 31.1961C111.864 31.1961 110.867 31.0046 109.939 30.6216C109.012 30.2385 108.198 29.7119 107.494 29.0392C106.792 28.3665 106.237 27.5837 105.836 26.686C105.432 25.7906 105.23 24.8379 105.23 23.83C105.23 22.8222 105.423 21.8694 105.807 20.974C106.191 20.0787 106.715 19.2935 107.381 18.6209C108.046 17.9482 108.82 17.4215 109.699 17.0384C110.581 16.6554 111.525 16.4639 112.539 16.4639C113.308 16.4639 114.082 16.6219 114.858 16.9403C115.636 17.2587 116.203 17.6513 116.559 18.1157V16.7991H119.596V21.448H116.419C116.064 20.9812 115.576 20.6126 114.959 20.3421C114.341 20.0716 113.695 19.9351 113.02 19.9351C111.914 19.9351 110.977 20.3134 110.209 21.0698C109.44 21.8263 109.055 22.7456 109.055 23.8276C109.055 24.3687 109.159 24.8785 109.365 25.3549C109.572 25.8313 109.853 26.2431 110.209 26.5878C110.564 26.9326 110.982 27.2078 111.46 27.4137C111.938 27.6196 112.457 27.7225 113.02 27.7225C113.712 27.7225 114.387 27.5406 115.043 27.1767C115.699 26.8129 116.167 26.3508 116.448 25.7906H120.244Z"
            fill="#FF0000"/>
    <path
            d="M123.193 27.5558V15.3995H121.451V12.0935H126.905V18.1716C127.299 17.6665 127.871 17.2572 128.621 16.9388C129.37 16.6204 130.11 16.4624 130.841 16.4624C131.59 16.4624 132.297 16.6084 132.962 16.8981C133.628 17.1877 134.209 17.5804 134.704 18.0783C135.202 18.5739 135.591 19.1603 135.872 19.833C136.153 20.5057 136.292 21.2263 136.292 21.9947V27.5534H138.034V30.8594H130.838V27.5534H132.58V22.6052C132.58 21.8559 132.309 21.2239 131.766 20.7068C131.223 20.1921 130.567 19.9336 129.798 19.9336C128.993 19.9336 128.309 20.1921 127.746 20.7068C127.184 21.2215 126.903 21.8559 126.903 22.6052V27.5534H128.645V30.8594H121.449V27.5534H123.193V27.5558Z"
            fill="#FF0000"/>
    <path
            d="M141.099 27.5553V20.1055H139.358V16.7995H144.811V27.5553H146.553V30.8613H139.358V27.5553H141.099ZM144.811 15.6241H141.102V12.0954H144.811V15.6241Z"
            fill="#FF0000"/>
    <path
            d="M164.405 30.8609H157.264V27.5549H159.006V22.6259C159.006 21.879 158.734 21.2446 158.191 20.7203C157.649 20.1985 156.993 19.9351 156.224 19.9351C155.419 19.9351 154.734 20.1961 154.172 20.7203C153.61 21.2422 153.329 21.879 153.329 22.6259V27.5549H155.015V30.8609H147.904V27.5549H149.619V20.1051H147.877V16.7991H153.163V18.4245C153.631 17.9577 154.258 17.5148 155.047 17.0935C155.835 16.6722 156.575 16.4639 157.267 16.4639C158.016 16.4639 158.722 16.6099 159.388 16.8972C160.054 17.1868 160.635 17.5843 161.13 18.087C161.627 18.5921 162.016 19.1786 162.298 19.8513C162.579 20.524 162.718 21.2422 162.718 22.0082V27.5549H164.405V30.8609Z"
            fill="#FF0000"/>
    <path
            d="M173.317 27.7245C173.86 27.7245 174.377 27.612 174.862 27.3893C175.35 27.1643 175.77 26.8674 176.126 26.494H180.484C180.203 27.1858 179.814 27.8155 179.317 28.3852C178.819 28.955 178.252 29.4505 177.616 29.8694C176.979 30.2884 176.28 30.6163 175.52 30.8485C174.761 31.0807 173.968 31.1981 173.144 31.1981C172.094 31.1981 171.116 31.0065 170.206 30.6235C169.298 30.2405 168.5 29.7139 167.815 29.0412C167.131 28.3685 166.592 27.5856 166.198 26.6879C165.804 25.7926 165.607 24.8398 165.607 23.832C165.607 22.8241 165.804 21.8713 166.198 20.976C166.592 20.0807 167.131 19.2955 167.815 18.6228C168.5 17.9501 169.295 17.4234 170.206 17.0404C171.114 16.6574 172.094 16.4659 173.144 16.4659C174.23 16.4659 175.251 16.6574 176.208 17.0404C177.164 17.4234 177.998 17.9501 178.709 18.6228C179.42 19.2955 179.982 20.0783 180.395 20.976C180.806 21.8713 181.013 22.8241 181.013 23.832C181.013 24.2246 180.965 24.6531 180.873 25.1199H169.658C169.92 25.8859 170.384 26.5108 171.049 26.9967C171.72 27.4803 172.474 27.7245 173.317 27.7245ZM173.317 19.9371C172.548 19.9371 171.852 20.1477 171.222 20.5666C170.595 20.9856 170.122 21.5338 169.802 22.2041H176.83C176.51 21.5314 176.037 20.9856 175.41 20.5666C174.783 20.1477 174.086 19.9371 173.317 19.9371Z"
            fill="#FF0000"/>
    <path
            d="M195.128 25.4009C195.128 26.2603 194.984 27.0431 194.693 27.7541C194.402 28.4627 193.991 29.0755 193.456 29.5878C192.922 30.1025 192.278 30.4976 191.531 30.7777C190.782 31.0578 189.938 31.1966 189.001 31.1966C188.533 31.1966 187.961 31.0697 187.286 30.8183C186.611 30.567 186.077 30.2246 185.683 29.7961V30.8614H182.478V25.0634H185.936C185.936 25.8103 186.188 26.4039 186.695 26.842C187.202 27.2801 187.81 27.5003 188.523 27.5003C189.215 27.5003 189.816 27.3232 190.323 26.9689C190.83 26.6146 191.082 26.1933 191.082 25.7097C191.082 25.1495 190.943 24.7114 190.661 24.393C190.38 24.0746 190.01 23.809 189.551 23.5959C189.093 23.3805 188.562 23.1889 187.963 23.0213C187.363 22.8538 186.755 22.6383 186.137 22.3774C185.032 21.8914 184.114 21.2331 183.382 20.4024C182.651 19.5717 182.286 18.5303 182.286 17.2783C182.286 16.4931 182.435 15.7654 182.735 15.0927C183.036 14.42 183.437 13.8383 183.944 13.3427C184.451 12.8472 185.044 12.4593 185.729 12.1793C186.414 11.8992 187.149 11.7603 187.935 11.7603C188.797 11.7603 189.508 11.9136 190.07 12.2224C190.633 12.5312 191.043 12.8424 191.308 13.1608V12.0955H194.429V17.3884H190.774C190.774 16.7157 190.512 16.1795 189.986 15.7773C189.463 15.3751 188.917 15.174 188.355 15.174C187.774 15.174 187.269 15.3703 186.837 15.7629C186.406 16.1555 186.19 16.6511 186.19 17.2472C186.19 17.7691 186.344 18.1808 186.654 18.4801C186.964 18.7793 187.365 19.0259 187.862 19.2222C188.36 19.4185 188.908 19.5957 189.506 19.7537C190.106 19.9116 190.695 20.1223 191.277 20.3832C192.326 20.8692 193.23 21.5323 193.989 22.3726C194.748 23.2152 195.128 24.2231 195.128 25.4009Z"
            fill="white"/>
    <path
            d="M204.237 20.106H201.959V27.5558H203.646V30.8618H198.25V20.106H196.311V16.7999H198.25V12.0935H201.959V16.7999H204.237V20.106Z"
            fill="white"/>
    <path
            d="M213.063 31.1961C212.013 31.1961 211.036 31.0046 210.125 30.6216C209.217 30.2385 208.419 29.7119 207.734 29.0392C207.05 28.3665 206.512 27.5837 206.118 26.686C205.723 25.7906 205.526 24.8379 205.526 23.83C205.526 22.8222 205.723 21.8694 206.118 20.974C206.512 20.0787 207.05 19.2935 207.734 18.6209C208.419 17.9482 209.214 17.4215 210.125 17.0384C211.033 16.6554 212.013 16.4639 213.063 16.4639C214.149 16.4639 215.171 16.6554 216.127 17.0384C217.083 17.4215 217.917 17.9482 218.628 18.6209C219.339 19.2935 219.901 20.0763 220.314 20.974C220.725 21.8694 220.932 22.8222 220.932 23.83C220.932 24.8379 220.725 25.7906 220.314 26.686C219.901 27.5813 219.339 28.3665 218.628 29.0392C217.914 29.7119 217.081 30.2385 216.127 30.6216C215.171 31.0046 214.149 31.1961 213.063 31.1961ZM217.112 23.83C217.112 23.289 217.008 22.7791 216.802 22.3027C216.595 21.8263 216.319 21.417 215.973 21.0698C215.627 20.7251 215.214 20.4498 214.736 20.2439C214.258 20.0381 213.755 19.9351 213.232 19.9351C212.708 19.9351 212.206 20.0381 211.728 20.2439C211.249 20.4498 210.836 20.7251 210.49 21.0698C210.144 21.4146 209.868 21.8263 209.661 22.3027C209.455 22.7791 209.351 23.289 209.351 23.83C209.351 24.3711 209.455 24.8809 209.661 25.3573C209.868 25.8337 210.144 26.2455 210.49 26.5902C210.836 26.935 211.249 27.2102 211.728 27.4161C212.206 27.622 212.708 27.7249 213.232 27.7249C213.755 27.7249 214.258 27.622 214.736 27.4161C215.214 27.2102 215.625 26.935 215.973 26.5902C216.319 26.2455 216.595 25.8337 216.802 25.3573C217.008 24.8809 217.112 24.3735 217.112 23.83Z"
            fill="white"/>
    <path
            d="M224 27.5549V20.1051H222.258V16.7991H227.544V18.4245C227.863 17.9386 228.349 17.4909 229.004 17.0791C229.66 16.6698 230.316 16.4639 230.972 16.4639H231.647V19.9375H230.972C230.074 19.9375 229.305 20.2966 228.668 21.0148C228.031 21.733 227.712 22.5971 227.712 23.605V27.5549H229.454V30.8609H222.258V27.5549H224Z"
            fill="white"/>
    <path
            d="M240.303 27.7245C240.846 27.7245 241.362 27.612 241.848 27.3893C242.335 27.1643 242.756 26.8674 243.111 26.494H247.47C247.188 27.1858 246.799 27.8155 246.302 28.3852C245.805 28.955 245.238 29.4505 244.601 29.8694C243.964 30.2884 243.265 30.6163 242.506 30.8485C241.747 31.0807 240.954 31.1981 240.13 31.1981C239.08 31.1981 238.102 31.0065 237.191 30.6235C236.283 30.2405 235.485 29.7139 234.801 29.0412C234.116 28.3685 233.578 27.5856 233.184 26.6879C232.79 25.7926 232.593 24.8398 232.593 23.832C232.593 22.8241 232.79 21.8713 233.184 20.976C233.578 20.0807 234.116 19.2955 234.801 18.6228C235.485 17.9501 236.281 17.4234 237.191 17.0404C238.099 16.6574 239.08 16.4659 240.13 16.4659C241.216 16.4659 242.237 16.6574 243.193 17.0404C244.149 17.4234 244.983 17.9501 245.694 18.6228C246.405 19.2955 246.967 20.0783 247.381 20.976C247.792 21.8713 247.998 22.8241 247.998 23.832C247.998 24.2246 247.95 24.6531 247.859 25.1199H236.643C236.905 25.8859 237.369 26.5108 238.035 26.9967C238.705 27.4803 239.459 27.7245 240.303 27.7245ZM240.303 19.9371C239.534 19.9371 238.837 20.1477 238.208 20.5666C237.58 20.9856 237.107 21.5338 236.788 22.2041H243.815C243.496 21.5314 243.022 20.9856 242.395 20.5666C241.768 20.1477 241.071 19.9371 240.303 19.9371Z"
            fill="white"/>
    <path
            d="M63.9625 44.8764C63.4099 44.8764 62.9341 44.7472 62.5353 44.4863C62.1365 44.2253 61.829 43.8686 61.6151 43.4113C61.3989 42.9541 61.2932 42.4347 61.2932 41.8458C61.2932 41.2497 61.4037 40.7206 61.6247 40.2633C61.8458 39.8061 62.1557 39.447 62.5545 39.1885C62.9534 38.9299 63.4171 38.8007 63.9504 38.8007C64.3661 38.8007 64.7385 38.8773 65.0725 39.0305C65.4064 39.1837 65.6779 39.3968 65.8894 39.6721C66.1008 39.9474 66.2329 40.2681 66.2858 40.6368H65.38C65.3103 40.3687 65.159 40.1317 64.9211 39.9234C64.6832 39.7152 64.3661 39.6122 63.9673 39.6122C63.6141 39.6122 63.3041 39.7031 63.0398 39.8851C62.7756 40.067 62.569 40.3232 62.4224 40.6536C62.2758 40.9839 62.2013 41.3717 62.2013 41.8146C62.2013 42.2694 62.2734 42.6644 62.4176 42.9996C62.5617 43.3371 62.766 43.5981 63.0327 43.7848C63.2994 43.9715 63.6093 44.0649 63.9673 44.0649C64.2027 44.0649 64.4165 44.0242 64.6088 43.9428C64.801 43.8614 64.9643 43.7441 65.0965 43.5909C65.2286 43.4377 65.3247 43.2534 65.38 43.0403H66.2858C66.2353 43.3874 66.108 43.6986 65.9086 43.9763C65.7067 44.254 65.4424 44.4719 65.1133 44.6346C64.7793 44.795 64.3973 44.8764 63.9625 44.8764Z"
            fill="white"/>
    <path
            d="M68.1889 46.9582C68.0351 46.9582 67.8982 46.9462 67.7781 46.9223C67.6579 46.8984 67.5738 46.8744 67.5282 46.8505L67.7588 46.0557C67.9799 46.1107 68.1745 46.1323 68.3427 46.1155C68.5108 46.1011 68.6622 46.0246 68.7944 45.8929C68.9265 45.7612 69.0466 45.5434 69.1571 45.2442L69.3253 44.7845L67.1438 38.8787H68.1264L69.7554 43.5612H69.8179L71.4468 38.8787H72.4295L69.926 45.6104C69.813 45.9145 69.6737 46.1658 69.5079 46.3669C69.3421 46.568 69.1499 46.7164 68.9313 46.8122C68.7102 46.9103 68.4628 46.9582 68.1889 46.9582Z"
            fill="white"/>
    <path d="M73.623 44.7536V38.8765H78.2601V44.7536H77.3543V39.7192H74.5288V44.7536H73.623Z"
          fill="white"/>
    <path
            d="M82.3905 44.8762C81.8235 44.8762 81.3334 44.7493 80.9225 44.5003C80.5117 44.2489 80.1946 43.8971 79.9735 43.4446C79.7525 42.9921 79.642 42.4655 79.642 41.8622C79.642 41.2613 79.7525 40.7299 79.9735 40.2679C80.1946 39.8082 80.5045 39.4467 80.9033 39.1882C81.3022 38.9297 81.7659 38.8004 82.2992 38.8004C82.6068 38.8004 82.9095 38.8507 83.2098 38.9536C83.5101 39.0565 83.7816 39.2217 84.0267 39.4492C84.2718 39.6766 84.4688 39.9782 84.6153 40.3541C84.7619 40.7299 84.834 41.1895 84.834 41.7377V42.1208H80.2883V41.3403H83.9114C83.9114 41.01 83.8465 40.7131 83.7144 40.4522C83.5822 40.1913 83.3948 39.9878 83.1546 39.8369C82.9143 39.6861 82.6284 39.6119 82.2992 39.6119C81.9388 39.6119 81.6265 39.7005 81.3646 39.8777C81.1027 40.0548 80.9009 40.2846 80.7592 40.5671C80.6174 40.8496 80.5477 41.1536 80.5477 41.4768V41.9963C80.5477 42.4391 80.6246 42.815 80.7808 43.1238C80.9346 43.4302 81.1508 43.6649 81.4271 43.8229C81.7034 43.9809 82.0253 44.0622 82.3905 44.0622C82.6284 44.0622 82.8446 44.0287 83.0368 43.9617C83.2291 43.8946 83.3972 43.7917 83.539 43.6552C83.6807 43.5188 83.7888 43.3488 83.8657 43.1454L84.7403 43.3895C84.649 43.6864 84.4928 43.9449 84.2766 44.1676C84.0579 44.3902 83.7912 44.5649 83.4693 44.687C83.1497 44.8139 82.7894 44.8762 82.3905 44.8762Z"
            fill="white"/>
    <path
            d="M86.216 46.9565V38.877H87.0906V39.8106H87.1987C87.266 39.7077 87.3573 39.5784 87.4774 39.418C87.5975 39.2576 87.7681 39.1164 87.9916 38.9895C88.215 38.8626 88.5201 38.8004 88.9045 38.8004C89.4019 38.8004 89.8392 38.9249 90.2188 39.1714C90.5984 39.418 90.8939 39.7699 91.1053 40.2224C91.3167 40.6772 91.4249 41.2111 91.4249 41.8287C91.4249 42.4511 91.3191 42.9898 91.1053 43.4446C90.8915 43.8994 90.5984 44.2513 90.2211 44.5003C89.8439 44.7493 89.4115 44.8738 88.919 44.8738C88.5393 44.8738 88.2366 44.8115 88.0084 44.6846C87.7801 44.5578 87.6047 44.4141 87.4822 44.2513C87.3597 44.0885 87.2636 43.9545 87.1987 43.8468H87.1218V46.9541H86.216V46.9565ZM87.1074 41.8143C87.1074 42.2572 87.1723 42.6498 87.302 42.9874C87.4318 43.3249 87.624 43.5882 87.8738 43.7797C88.1237 43.9688 88.4312 44.0646 88.7964 44.0646C89.176 44.0646 89.4932 43.9641 89.7478 43.7654C90.0025 43.5643 90.1947 43.2938 90.3245 42.9538C90.4542 42.6139 90.5191 42.2333 90.5191 41.8167C90.5191 41.4026 90.4566 41.0315 90.3293 40.6988C90.2019 40.366 90.0121 40.1027 89.7575 39.9064C89.5028 39.7125 89.1832 39.6143 88.7988 39.6143C88.4312 39.6143 88.1213 39.7077 87.869 39.892C87.6192 40.0763 87.4293 40.3349 87.2996 40.6652C87.1699 40.9956 87.1074 41.3762 87.1074 41.8143Z"
            fill="white"/>
    <path
            d="M93.7125 38.8789V44.756H92.8067V38.8789H93.7125ZM96.031 43.5304L98.09 38.8789H98.9502L96.401 44.756H95.6634L93.1599 38.8789H94.0056L96.031 43.5304ZM98.3495 44.7536V38.8765H99.2553V44.7536H98.3495Z"
            fill="white"/>
    <path
            d="M102.648 44.891C102.273 44.891 101.934 44.8192 101.631 44.6779C101.326 44.5367 101.086 44.3308 100.906 44.0627C100.726 43.7946 100.637 43.469 100.637 43.086C100.637 42.7484 100.704 42.4756 100.836 42.2649C100.968 42.0542 101.146 41.889 101.37 41.7693C101.593 41.6496 101.838 41.5586 102.11 41.4988C102.379 41.4389 102.653 41.3911 102.926 41.3552C103.284 41.3097 103.575 41.2738 103.801 41.2499C104.024 41.2259 104.188 41.1852 104.293 41.1254C104.397 41.0655 104.45 40.965 104.45 40.8189V40.7878C104.45 40.4096 104.346 40.1175 104.14 39.9092C103.933 39.701 103.623 39.5956 103.205 39.5956C102.773 39.5956 102.434 39.689 102.189 39.8782C101.944 40.0673 101.771 40.2683 101.67 40.4814L100.81 40.175C100.963 39.8183 101.168 39.5382 101.425 39.3395C101.682 39.1384 101.963 38.9996 102.27 38.9182C102.576 38.8368 102.878 38.7985 103.174 38.7985C103.364 38.7985 103.582 38.82 103.827 38.8655C104.075 38.911 104.313 39.002 104.546 39.1384C104.776 39.2773 104.971 39.4831 105.122 39.7608C105.274 40.0385 105.353 40.412 105.353 40.8788V44.7497H104.447V43.9549H104.402C104.339 44.0818 104.238 44.2183 104.094 44.3644C103.95 44.5104 103.76 44.6324 103.522 44.7354C103.28 44.8407 102.989 44.891 102.648 44.891ZM102.785 44.0794C103.143 44.0794 103.445 44.01 103.693 43.8688C103.94 43.7276 104.128 43.548 104.253 43.3254C104.378 43.1027 104.442 42.8706 104.442 42.6264V41.8004C104.404 41.8459 104.32 41.889 104.19 41.9249C104.06 41.9608 103.911 41.9944 103.746 42.0207C103.578 42.047 103.417 42.071 103.258 42.0901C103.099 42.1093 102.972 42.126 102.876 42.138C102.641 42.1691 102.422 42.217 102.218 42.2864C102.013 42.3534 101.85 42.454 101.725 42.588C101.6 42.7221 101.538 42.904 101.538 43.1339C101.538 43.4475 101.655 43.6844 101.888 43.8424C102.126 44.0004 102.424 44.0794 102.785 44.0794Z"
            fill="white"/>
    <path
            d="M107.011 46.9565V38.877H107.886V39.8106H107.994C108.061 39.7077 108.152 39.5784 108.272 39.418C108.392 39.2576 108.563 39.1164 108.786 38.9895C109.01 38.8626 109.315 38.8004 109.699 38.8004C110.197 38.8004 110.634 38.9249 111.014 39.1714C111.393 39.418 111.689 39.7699 111.9 40.2224C112.112 40.6772 112.22 41.2111 112.22 41.8287C112.22 42.4511 112.114 42.9898 111.9 43.4446C111.686 43.8994 111.393 44.2513 111.016 44.5003C110.639 44.7493 110.206 44.8738 109.714 44.8738C109.334 44.8738 109.032 44.8115 108.803 44.6846C108.575 44.5578 108.4 44.4141 108.277 44.2513C108.155 44.0885 108.059 43.9545 107.994 43.8468H107.917V46.9541H107.011V46.9565ZM107.902 41.8143C107.902 42.2572 107.967 42.6498 108.097 42.9874C108.227 43.3249 108.419 43.5882 108.669 43.7797C108.919 43.9688 109.226 44.0646 109.591 44.0646C109.971 44.0646 110.288 43.9641 110.543 43.7654C110.797 43.5643 110.99 43.2938 111.119 42.9538C111.249 42.6139 111.314 42.2333 111.314 41.8167C111.314 41.4026 111.252 41.0315 111.124 40.6988C110.997 40.366 110.807 40.1027 110.552 39.9064C110.298 39.7125 109.978 39.6143 109.594 39.6143C109.226 39.6143 108.916 39.7077 108.664 39.892C108.414 40.0763 108.224 40.3349 108.095 40.6652C107.965 40.9956 107.902 41.3762 107.902 41.8143Z"
            fill="white"/>
    <path
            d="M113.597 44.7536V38.8765H114.503V41.4309H115.101L117.22 38.8765H118.388L116.007 41.7086L118.419 44.7536H117.251L115.317 42.2735H114.503V44.7536H113.597Z"
            fill="white"/>
    <path
            d="M121.632 44.8762C121.065 44.8762 120.574 44.7493 120.164 44.5003C119.753 44.2489 119.436 43.8971 119.215 43.4446C118.994 42.9921 118.883 42.4655 118.883 41.8622C118.883 41.2613 118.994 40.7299 119.215 40.2679C119.436 39.8082 119.746 39.4467 120.144 39.1882C120.543 38.9297 121.007 38.8004 121.54 38.8004C121.848 38.8004 122.151 38.8507 122.451 38.9536C122.751 39.0565 123.023 39.2217 123.268 39.4492C123.513 39.6766 123.71 39.9782 123.856 40.3541C124.003 40.7299 124.075 41.1895 124.075 41.7377V42.1208H119.529V41.3403H123.152C123.152 41.01 123.088 40.7131 122.955 40.4522C122.823 40.1913 122.636 39.9878 122.396 39.8369C122.155 39.6861 121.869 39.6119 121.54 39.6119C121.18 39.6119 120.868 39.7005 120.606 39.8777C120.344 40.0548 120.142 40.2846 120 40.5671C119.858 40.8496 119.789 41.1536 119.789 41.4768V41.9963C119.789 42.4391 119.866 42.815 120.022 43.1238C120.176 43.4302 120.392 43.6649 120.668 43.8229C120.944 43.9809 121.266 44.0622 121.632 44.0622C121.869 44.0622 122.086 44.0287 122.278 43.9617C122.47 43.8946 122.638 43.7917 122.78 43.6552C122.922 43.5188 123.03 43.3488 123.107 43.1454L123.981 43.3895C123.89 43.6864 123.734 43.9449 123.518 44.1676C123.299 44.3902 123.032 44.5649 122.71 44.687C122.391 44.8139 122.033 44.8762 121.632 44.8762Z"
            fill="white"/>
    <path d="M124.904 39.7192V38.8765H129.694V39.7192H127.76V44.7536H126.854V39.7192H124.904Z"
          fill="white"/>
    <path
            d="M134.96 38.8789V44.756H134.054V38.8789H134.96ZM137.278 43.5304L139.337 38.8789H140.197L137.648 44.756H136.911L134.407 38.8789H135.253L137.278 43.5304ZM139.597 44.7536V38.8765H140.503V44.7536H139.597Z"
            fill="white"/>
    <path
            d="M144.637 44.8764C144.07 44.8764 143.579 44.7495 143.169 44.5005C142.758 44.2492 142.441 43.8973 142.219 43.4448C141.998 42.9924 141.888 42.4657 141.888 41.8624C141.888 41.2616 141.998 40.7301 142.219 40.2681C142.441 39.8085 142.75 39.447 143.149 39.1884C143.548 38.9299 144.012 38.8007 144.545 38.8007C144.853 38.8007 145.155 38.8509 145.456 38.9538C145.756 39.0568 146.028 39.222 146.273 39.4494C146.518 39.6768 146.715 39.9785 146.861 40.3543C147.008 40.7302 147.08 41.1897 147.08 41.7379V42.121H142.534V41.3406H146.157C146.157 41.0102 146.092 40.7134 145.96 40.4524C145.828 40.1915 145.641 39.988 145.401 39.8372C145.16 39.6864 144.874 39.6122 144.545 39.6122C144.185 39.6122 143.872 39.7008 143.611 39.8779C143.349 40.0551 143.147 40.2849 143.005 40.5673C142.863 40.8498 142.794 41.1539 142.794 41.477V41.9965C142.794 42.4394 142.871 42.8152 143.027 43.124C143.181 43.4305 143.397 43.6651 143.673 43.8231C143.949 43.9811 144.271 44.0625 144.637 44.0625C144.874 44.0625 145.091 44.0289 145.283 43.9619C145.475 43.8949 145.643 43.7919 145.785 43.6555C145.927 43.519 146.035 43.3491 146.112 43.1456L146.986 43.3898C146.895 43.6866 146.739 43.9452 146.523 44.1678C146.304 44.3904 146.037 44.5652 145.715 44.6873C145.393 44.8142 145.035 44.8764 144.637 44.8764Z"
            fill="white"/>
    <path
            d="M148.985 38.8787L150.398 41.2822L151.81 38.8787H152.855L150.95 41.816L152.855 44.7534H151.81L150.398 42.4744L148.985 44.7534H147.94L149.814 41.816L147.94 38.8787H148.985Z"
            fill="white"/>
    <path
            d="M155.876 44.891C155.502 44.891 155.163 44.8192 154.86 44.6779C154.555 44.5367 154.315 44.3308 154.135 44.0627C153.954 43.7946 153.865 43.469 153.865 43.086C153.865 42.7484 153.933 42.4756 154.065 42.2649C154.197 42.0542 154.375 41.889 154.598 41.7693C154.822 41.6496 155.067 41.5586 155.338 41.4988C155.607 41.4389 155.881 41.3911 156.155 41.3552C156.513 41.3097 156.804 41.2738 157.03 41.2499C157.253 41.2259 157.416 41.1852 157.522 41.1254C157.626 41.0655 157.678 40.965 157.678 40.8189V40.7878C157.678 40.4096 157.575 40.1175 157.368 39.9092C157.162 39.701 156.852 39.5956 156.434 39.5956C156.001 39.5956 155.663 39.689 155.418 39.8782C155.172 40.0673 154.999 40.2683 154.899 40.4814L154.038 40.175C154.192 39.8183 154.396 39.5382 154.654 39.3395C154.911 39.1384 155.192 38.9996 155.499 38.9182C155.804 38.8368 156.107 38.7985 156.403 38.7985C156.592 38.7985 156.811 38.82 157.056 38.8655C157.304 38.911 157.541 39.002 157.774 39.1384C158.005 39.2773 158.2 39.4831 158.351 39.7608C158.502 40.0385 158.582 40.412 158.582 40.8788V44.7497H157.676V43.9549H157.63C157.568 44.0818 157.467 44.2183 157.323 44.3644C157.179 44.5104 156.989 44.6324 156.751 44.7354C156.508 44.8407 156.218 44.891 155.876 44.891ZM156.013 44.0794C156.371 44.0794 156.674 44.01 156.922 43.8688C157.169 43.7276 157.356 43.548 157.481 43.3254C157.606 43.1027 157.671 42.8706 157.671 42.6264V41.8004C157.633 41.8459 157.549 41.889 157.419 41.9249C157.289 41.9608 157.14 41.9944 156.974 42.0207C156.806 42.047 156.645 42.071 156.487 42.0901C156.328 42.1093 156.201 42.126 156.105 42.138C155.869 42.1691 155.651 42.217 155.446 42.2864C155.242 42.3534 155.079 42.454 154.954 42.588C154.829 42.7221 154.766 42.904 154.766 43.1339C154.766 43.4475 154.884 43.6844 155.117 43.8424C155.355 44.0004 155.653 44.0794 156.013 44.0794Z"
            fill="white"/>
    <path
            d="M161.144 38.8787V44.7558H160.239V38.8787H161.144ZM164.186 41.4019V42.2446H160.931V41.4019H164.186ZM164.876 38.8787V44.7558H163.97V38.8787H164.876Z"
            fill="white"/>
    <path
            d="M167.443 43.4224L170.283 38.8787H171.328V44.7558H170.422V40.2121L167.597 44.7558H166.537V38.8787H167.443V43.4224Z"
            fill="white"/>
    <path
            d="M172.615 43.2535H173.583C173.602 43.5193 173.725 43.7204 173.946 43.8592C174.167 43.9981 174.455 44.0651 174.811 44.0651C175.173 44.0651 175.486 43.9909 175.743 43.84C176 43.6892 176.13 43.4498 176.13 43.1147C176.13 42.9184 176.082 42.746 175.983 42.6C175.885 42.454 175.75 42.3391 175.572 42.2577C175.394 42.1763 175.188 42.1356 174.948 42.1356H173.934V41.324H174.948C175.308 41.324 175.575 41.2426 175.748 41.0798C175.921 40.9171 176.007 40.7136 176.007 40.467C176.007 40.2037 175.913 39.993 175.726 39.835C175.539 39.6746 175.274 39.5956 174.931 39.5956C174.585 39.5956 174.297 39.6722 174.066 39.8278C173.835 39.981 173.715 40.1797 173.701 40.4215H172.749C172.759 40.1055 172.857 39.8254 173.04 39.5813C173.225 39.3371 173.475 39.1456 173.792 39.0067C174.109 38.8679 174.472 38.7985 174.883 38.7985C175.298 38.7985 175.659 38.8703 175.964 39.0139C176.269 39.1576 176.507 39.3538 176.675 39.598C176.843 39.8446 176.927 40.1223 176.927 40.4335C176.927 40.7639 176.834 41.032 176.646 41.2379C176.459 41.4414 176.226 41.5874 175.945 41.6736V41.7334C176.168 41.7478 176.36 41.8196 176.526 41.9465C176.692 42.0734 176.819 42.2362 176.913 42.4396C177.004 42.6431 177.052 42.8658 177.052 43.1099C177.052 43.4666 176.956 43.7778 176.764 44.0412C176.572 44.3045 176.307 44.5104 175.974 44.654C175.64 44.7976 175.255 44.8694 174.825 44.8694C174.407 44.8694 174.035 44.8001 173.703 44.6636C173.374 44.5271 173.112 44.338 172.917 44.0938C172.725 43.8568 172.624 43.5743 172.615 43.2535Z"
            fill="white"/>
    <path
            d="M179.238 38.8789V44.756H178.332V38.8789H179.238ZM181.556 43.5304L183.615 38.8789H184.476L181.926 44.756H181.189L178.685 38.8789H179.531L181.556 43.5304ZM183.875 44.7536V38.8765H184.781V44.7536H183.875Z"
            fill="white"/>
    <path
            d="M188.834 44.8762C188.3 44.8762 187.834 44.7493 187.436 44.4979C187.034 44.2465 186.722 43.8923 186.499 43.4374C186.275 42.9826 186.162 42.4535 186.162 41.8455C186.162 41.2326 186.275 40.6987 186.499 40.2415C186.722 39.7843 187.034 39.43 187.436 39.1786C187.837 38.9273 188.303 38.8004 188.834 38.8004C189.365 38.8004 189.833 38.9273 190.235 39.1786C190.636 39.43 190.948 39.7867 191.172 40.2415C191.395 40.6987 191.508 41.2326 191.508 41.8455C191.508 42.4535 191.395 42.9826 191.172 43.4374C190.948 43.8923 190.636 44.2441 190.235 44.4979C189.833 44.7517 189.365 44.8762 188.834 44.8762ZM188.834 44.0646C189.237 44.0646 189.571 43.9617 189.833 43.7558C190.095 43.5499 190.287 43.277 190.412 42.9419C190.537 42.6043 190.6 42.2405 190.6 41.8479C190.6 41.4553 190.537 41.089 190.412 40.749C190.287 40.4091 190.093 40.1362 189.833 39.9255C189.571 39.7173 189.24 39.6119 188.834 39.6119C188.43 39.6119 188.096 39.7173 187.837 39.9255C187.575 40.1338 187.383 40.4091 187.258 40.749C187.133 41.089 187.07 41.4553 187.07 41.8479C187.07 42.2405 187.133 42.6043 187.258 42.9419C187.383 43.2794 187.577 43.5499 187.837 43.7558C188.096 43.9617 188.43 44.0646 188.834 44.0646Z"
            fill="white"/>
    <path
            d="M192.891 44.7536V38.8765H195.303C195.937 38.8765 196.442 39.0202 196.817 39.305C197.191 39.5899 197.377 39.9682 197.377 40.4374C197.377 40.7941 197.271 41.0694 197.057 41.2657C196.846 41.4596 196.572 41.5937 196.24 41.6607C196.459 41.6918 196.67 41.7684 196.874 41.8905C197.079 42.0126 197.252 42.1802 197.386 42.3932C197.521 42.6063 197.59 42.8672 197.59 43.176C197.59 43.4776 197.513 43.7458 197.36 43.9828C197.206 44.2198 196.985 44.4065 196.699 44.5454C196.413 44.6842 196.069 44.7512 195.671 44.7512H192.891V44.7536ZM193.751 41.3423H195.303C195.546 41.3423 195.755 41.3088 195.928 41.2418C196.101 41.1747 196.235 41.0766 196.329 40.9521C196.423 40.8276 196.468 40.6768 196.468 40.502C196.468 40.2554 196.365 40.0591 196.158 39.9179C195.952 39.7767 195.666 39.7048 195.303 39.7048H193.751V41.3423ZM193.751 43.9277H195.671C195.983 43.9277 196.228 43.8535 196.403 43.7051C196.581 43.5567 196.668 43.3556 196.668 43.1018C196.668 42.7978 196.579 42.5584 196.403 42.3837C196.228 42.2089 195.983 42.1227 195.671 42.1227H193.751V43.9277Z"
            fill="white"/>
    <path
            d="M202.903 43.4224L205.746 38.8787H206.791V44.7558H205.885V40.2121L203.06 44.7558H202V38.8787H202.906V43.4224H202.903Z"
            fill="white"/>
    <path
            d="M212.394 38.8789V44.756H211.488V38.8789H212.394ZM214.713 43.5304L216.772 38.8789H217.632L215.083 44.756H214.345L211.842 38.8789H212.687L214.713 43.5304ZM217.034 44.7536V38.8765H217.939V44.7536H217.034Z"
            fill="white"/>
    <path
            d="M221.331 44.891C220.957 44.891 220.618 44.8192 220.315 44.6779C220.01 44.5367 219.767 44.3308 219.59 44.0627C219.409 43.7946 219.32 43.469 219.32 43.086C219.32 42.7484 219.388 42.4756 219.52 42.2649C219.652 42.0542 219.83 41.889 220.053 41.7693C220.277 41.6496 220.522 41.5586 220.793 41.4988C221.065 41.4389 221.336 41.3911 221.61 41.3552C221.968 41.3097 222.259 41.2738 222.485 41.2499C222.708 41.2259 222.871 41.1852 222.975 41.1254C223.078 41.0655 223.131 40.965 223.131 40.8189V40.7878C223.131 40.4096 223.028 40.1175 222.821 39.9092C222.614 39.701 222.302 39.5956 221.886 39.5956C221.454 39.5956 221.115 39.689 220.87 39.8782C220.625 40.0673 220.452 40.2683 220.351 40.4814L219.491 40.175C219.645 39.8183 219.849 39.5382 220.108 39.3395C220.366 39.1384 220.647 38.9996 220.954 38.9182C221.259 38.8368 221.562 38.7985 221.858 38.7985C222.047 38.7985 222.266 38.82 222.511 38.8655C222.756 38.911 222.996 39.002 223.229 39.1384C223.46 39.2773 223.655 39.4831 223.808 39.7608C223.962 40.0385 224.039 40.412 224.039 40.8788V44.7497H223.133V43.9549H223.088C223.025 44.0818 222.924 44.2183 222.78 44.3644C222.636 44.5104 222.446 44.6324 222.208 44.7354C221.966 44.8407 221.675 44.891 221.331 44.891ZM221.471 44.0794C221.829 44.0794 222.131 44.01 222.379 43.8688C222.626 43.7276 222.814 43.548 222.939 43.3254C223.064 43.1027 223.129 42.8706 223.129 42.6264V41.8004C223.09 41.8459 223.006 41.889 222.876 41.9249C222.747 41.9608 222.598 41.9944 222.432 42.0207C222.264 42.047 222.103 42.071 221.944 42.0901C221.785 42.1093 221.658 42.126 221.562 42.138C221.327 42.1691 221.108 42.217 220.904 42.2864C220.7 42.3534 220.536 42.454 220.414 42.588C220.291 42.7221 220.226 42.904 220.226 43.1339C220.226 43.4475 220.344 43.6844 220.577 43.8424C220.812 44.0004 221.11 44.0794 221.471 44.0794Z"
            fill="white"/>
    <path
            d="M225.694 38.8787H226.599V43.9131H228.827V38.8787H229.732V43.9131H231.96V38.8787H232.865V44.7558H225.694V38.8787Z"
            fill="white"/>
    <path
            d="M235.428 43.4224L238.27 38.8787H239.315V44.7558H238.41V40.2121L235.584 44.7558H234.525V38.8787H235.43V43.4224H235.428Z"
            fill="white"/>
    <path
            d="M241.882 38.8787V44.7558H240.976V38.8787H241.882ZM244.921 41.4019V42.2446H241.665V41.4019H244.921ZM245.613 38.8787V44.7558H244.707V38.8787H245.613Z"
            fill="white"/>
    <path
            d="M24.7256 36.4097C19.8099 36.4097 15.8096 32.4239 15.8096 27.5259C15.8096 22.628 19.8099 18.6421 24.7256 18.6421C29.6413 18.6421 33.6417 22.628 33.6417 27.5259C33.6393 32.4239 29.6413 36.4097 24.7256 36.4097ZM24.7256 20.5596C20.8694 20.5596 17.7317 23.6861 17.7317 27.5283C17.7317 31.3706 20.8694 34.497 24.7256 34.497C28.5818 34.497 31.7196 31.3706 31.7196 27.5283C31.7196 23.6861 28.5818 20.5596 24.7256 20.5596Z"
            fill="white"/>
    <path
            d="M10.5564 26.6823C10.5393 26.961 10.5305 27.2419 10.5305 27.5246C10.5305 32.257 12.8619 36.4448 16.4446 39.0119C17.2453 39.5857 17.6459 40.6057 17.3118 41.5324L16.774 43.0242C16.5781 43.5678 15.9634 43.8327 15.4337 43.6017L14.6053 43.2406L10.9774 46.7214C10.5137 47.2169 9.70644 47.2122 9.2091 46.7502L5.30488 43.2239C4.74988 42.7882 4.69703 42.0126 5.1343 41.4596L7.02099 39.0834C7.76275 38.1492 7.78879 36.8426 7.27377 35.7666C6.76956 34.7133 5.77098 33.9558 4.60338 33.9326L1.50635 33.8708C0.857653 33.8278 0.290644 33.2939 0.2498 32.6164L0.00235433 27.3713C-0.0384899 26.6938 0.456423 26.1145 1.15077 26.0308L6.16981 25.4131C6.23409 25.1069 6.30973 24.8012 6.39564 24.4977C6.54605 23.9664 7.12217 23.6966 7.64206 23.8827L9.16365 24.4272C10.0852 24.757 10.6162 25.7053 10.5564 26.6823Z"
            fill="white"/>
    <path
            d="M22.6502 41.4668C23.0279 41.4964 23.4093 41.5126 23.7937 41.5144C29.1435 41.5393 33.8818 38.9184 36.7535 34.8866C37.3216 34.0891 38.3373 33.6977 39.258 34.031L41.2229 34.7422C41.7689 34.9399 42.0323 35.5596 41.7957 36.0899L41.3458 37.0983L45.2096 41.1208C45.76 41.6352 45.7505 42.5262 45.2325 43.0727L41.2788 47.3638C40.7899 47.9742 39.9244 48.0285 39.3098 47.5429L36.6609 45.4417C35.6255 44.6203 34.1808 44.5843 32.9841 45.1456C31.7996 45.7011 30.9425 46.8154 30.91 48.1232L30.8259 51.508C30.7745 52.2238 30.176 52.8469 29.4201 52.8885L23.568 53.1344C22.8121 53.1759 22.1685 52.6266 22.0786 51.8598L21.4157 46.3167C21.0396 46.2368 20.6643 46.1416 20.2924 46.0328C19.7599 45.8771 19.4912 45.2969 19.6824 44.7761L20.3961 42.8312C20.732 41.916 21.6784 41.3907 22.6502 41.4668Z"
            fill="white"/>
    <path
            d="M39.2441 28.7712C39.2683 28.469 39.283 28.1642 39.2876 27.8571C39.3608 22.9603 36.9858 18.593 33.2804 15.8942C32.4808 15.3119 32.0937 14.2807 32.4453 13.356L33.0567 11.7478C33.2613 11.2095 33.8772 10.9547 34.4022 11.1912L35.2982 11.5947L39.1195 8.06249C39.6087 7.55881 40.4469 7.57611 40.9563 8.05999L44.9564 11.7547C45.5261 12.2123 45.569 13.0127 45.1064 13.576L43.1147 15.9911C42.3286 16.9445 42.2816 18.2991 42.8009 19.4202C43.3053 20.5092 44.3203 21.3006 45.5199 21.3421L48.757 21.454C49.43 21.5084 50.0106 22.0673 50.0426 22.7663L50.2187 28.1767C50.2506 28.8756 49.7277 29.4652 49.0054 29.5409L43.7836 30.1005C43.7095 30.4269 43.6226 30.7525 43.5244 31.0754C43.3643 31.602 42.7866 31.8621 42.2708 31.6702L40.6052 31.0507C39.6853 30.7085 39.1658 29.7496 39.2441 28.7712Z"
            fill="white"/>
    <path
            d="M26.7904 13.1474C26.4002 13.1208 26.0062 13.1083 25.6092 13.1111C20.1707 13.1492 15.3867 15.8901 12.5224 20.0517C11.9654 20.861 10.9501 21.2659 10.023 20.9405L7.9827 20.2245C7.43623 20.0327 7.16638 19.4184 7.39492 18.8863L7.84962 17.8277L3.88003 13.767C3.31532 13.2484 3.31426 12.3386 3.83334 11.7745L7.7942 7.34683C8.28301 6.71794 9.16071 6.65223 9.79025 7.14061L12.499 9.25068C13.5613 10.0782 15.0352 10.0974 16.2464 9.50927C17.4379 8.93071 18.2904 7.79237 18.3075 6.46797L18.3524 2.99205C18.396 2.26069 18.9959 1.61749 19.7625 1.56608L25.6985 1.24562C26.4652 1.19422 27.125 1.74734 27.2254 2.52914L27.9647 8.18021C28.3537 8.25863 28.7419 8.35312 29.1269 8.46197C29.6593 8.61253 29.9339 9.18761 29.7504 9.70959L29.0317 11.754C28.7077 12.6757 27.7652 13.214 26.7904 13.1474Z"
            fill="#FF0000"/>
</svg>