<svg width="184" height="41" viewBox="0 0 184 41" fill="none"
     xmlns="http://www.w3.org/2000/svg">
    <path
            d="M63.5595 23.4268H57.8034V20.9429H59.3044V14.0614L55.6963 23.425H53.5483L49.8975 14.0812V20.9411H51.3985V23.425H45.6424V20.9411H47.1434V11.8078H45.6424V9.32391H50.9813L54.6107 18.8152L58.2615 9.32391H63.5595V11.8078H62.0585V20.9411H63.5595V23.4268Z"
            fill="#FF0000"/>
    <path
            d="M77.1793 23.4256H73.1328V22.2889C72.8547 22.681 72.4233 23.0119 71.8404 23.2781C71.2557 23.5443 70.6924 23.6775 70.1505 23.6775C69.3715 23.6775 68.6459 23.5335 67.9703 23.2458C67.2965 22.958 66.7047 22.5623 66.1966 22.0569C65.6886 21.5515 65.2893 20.9633 64.9969 20.2888C64.7046 19.6162 64.5584 18.9003 64.5584 18.1431C64.5584 17.3859 64.7046 16.67 64.9969 15.9973C65.2893 15.3246 65.6886 14.7347 66.1966 14.2293C66.7047 13.7239 67.2947 13.3282 67.9703 13.0404C68.6442 12.7526 69.3715 12.6088 70.1505 12.6088C70.7066 12.6088 71.2807 12.749 71.8707 13.0296C72.4607 13.3102 72.9242 13.6609 73.2576 14.0818V12.8606H77.1793V15.3445H75.8869V20.9417H77.1793V23.4256ZM73.1328 18.1431C73.1328 17.7366 73.0597 17.3535 72.9135 16.9956C72.7674 16.6376 72.5624 16.3301 72.2985 16.0693C72.0347 15.8103 71.7281 15.6035 71.3805 15.4488C71.0329 15.2941 70.6639 15.2168 70.2753 15.2168C69.8867 15.2168 69.5141 15.2941 69.1593 15.4488C68.8046 15.6035 68.498 15.8103 68.2413 16.0693C67.9846 16.3283 67.7796 16.6376 67.6263 16.9956C67.473 17.3535 67.3963 17.7366 67.3963 18.1431C67.3963 18.5496 67.473 18.9327 67.6263 19.2906C67.7796 19.6485 67.9846 19.9579 68.2413 20.2169C68.498 20.4759 68.8046 20.6828 69.1593 20.8374C69.5141 20.9921 69.8849 21.0695 70.2753 21.0695C70.6639 21.0695 71.0329 20.9921 71.3805 20.8374C71.7281 20.6828 72.0347 20.4759 72.2985 20.2169C72.5624 19.9579 72.7674 19.6485 72.9135 19.2906C73.0597 18.9327 73.1328 18.5514 73.1328 18.1431Z"
            fill="#FF0000"/>
    <path
            d="M89.2116 19.6162C89.0583 20.1773 88.8016 20.7043 88.4398 21.1936C88.0779 21.6846 87.6501 22.1162 87.1563 22.4886C86.6625 22.8609 86.1241 23.1523 85.5394 23.3627C84.9547 23.5731 84.3718 23.6775 83.7871 23.6775C82.9939 23.6775 82.2541 23.5335 81.566 23.2458C80.8779 22.958 80.2736 22.5623 79.7513 22.0569C79.2308 21.5515 78.819 20.9633 78.5213 20.2888C78.2218 19.6162 78.0721 18.9003 78.0721 18.1431C78.0721 17.3859 78.2147 16.67 78.4999 15.9973C78.7851 15.3246 79.1737 14.7347 79.6675 14.2293C80.1613 13.7239 80.7353 13.3282 81.3877 13.0404C82.042 12.7526 82.7425 12.6088 83.4948 12.6088C84.0652 12.6088 84.6392 12.7275 85.215 12.9667C85.7926 13.2059 86.2133 13.5009 86.4771 13.8498V12.8606H88.7303V16.3535H86.3737C86.1099 16.0027 85.748 15.7258 85.2899 15.5225C84.8318 15.3193 84.3522 15.2168 83.8513 15.2168C83.0313 15.2168 82.3361 15.5009 81.7657 16.0693C81.1952 16.6377 80.91 17.3283 80.91 18.1413C80.91 18.5478 80.9867 18.9309 81.14 19.2888C81.2933 19.6467 81.5018 19.9561 81.7657 20.2151C82.0295 20.4741 82.3397 20.681 82.6944 20.8356C83.0491 20.9903 83.4342 21.0677 83.8513 21.0677C84.3647 21.0677 84.8656 20.931 85.3523 20.6576C85.8389 20.3842 86.1865 20.037 86.3951 19.6162H89.2116Z"
            fill="#FF0000"/>
    <path
            d="M91.3995 20.9426V11.8093H90.1071V9.32538H94.1536V13.892C94.446 13.5125 94.8702 13.205 95.4264 12.9658C95.9826 12.7266 96.5316 12.6079 97.0735 12.6079C97.6297 12.6079 98.1538 12.7175 98.6476 12.9352C99.1414 13.1528 99.5728 13.4478 99.94 13.8219C100.309 14.1942 100.598 14.6349 100.806 15.1403C101.015 15.6457 101.118 16.1871 101.118 16.7644V20.9408H102.411V23.4247H97.0718V20.9408H98.3642V17.2231C98.3642 16.6601 98.1627 16.1853 97.7599 15.7968C97.357 15.4101 96.8703 15.2158 96.2999 15.2158C95.7027 15.2158 95.1947 15.4101 94.7775 15.7968C94.3604 16.1835 94.1518 16.6601 94.1518 17.2231V20.9408H95.4442V23.4247H90.1053V20.9408H91.3995V20.9426Z"
            fill="#FF0000"/>
    <path
            d="M104.685 20.9423V15.3451H103.392V12.8612H107.439V20.9423H108.731V23.4262H103.392V20.9423H104.685ZM107.439 11.9781H104.687V9.3269H107.439V11.9781Z"
            fill="#FF0000"/>
    <path
            d="M121.977 23.4256H116.679V20.9417H117.972V17.2384C117.972 16.6772 117.77 16.2006 117.367 15.8067C116.965 15.4146 116.478 15.2168 115.907 15.2168C115.31 15.2168 114.802 15.4128 114.385 15.8067C113.968 16.1988 113.759 16.6772 113.759 17.2384V20.9417H115.011V23.4256H109.734V20.9417H111.007V15.3445H109.715V12.8606H113.636V14.0818C113.984 13.7311 114.449 13.3983 115.034 13.0818C115.619 12.7652 116.168 12.6088 116.681 12.6088C117.237 12.6088 117.761 12.7184 118.255 12.9343C118.749 13.1519 119.18 13.4505 119.548 13.8282C119.917 14.2077 120.205 14.6484 120.414 15.1538C120.622 15.6592 120.726 16.1988 120.726 16.7743V20.9417H121.977V23.4256Z"
            fill="#FF0000"/>
    <path
            d="M128.589 21.0692C128.992 21.0692 129.376 20.9846 129.736 20.8174C130.097 20.6483 130.409 20.4253 130.673 20.1447H133.907C133.698 20.6645 133.41 21.1375 133.041 21.5656C132.672 21.9937 132.251 22.366 131.778 22.6807C131.306 22.9955 130.787 23.2419 130.224 23.4163C129.661 23.5908 129.072 23.679 128.461 23.679C127.682 23.679 126.956 23.5351 126.281 23.2473C125.607 22.9595 125.015 22.5638 124.507 22.0584C123.999 21.553 123.6 20.9649 123.307 20.2904C123.015 19.6177 122.869 18.9019 122.869 18.1446C122.869 17.3874 123.015 16.6715 123.307 15.9989C123.6 15.3262 123.999 14.7363 124.507 14.2308C125.015 13.7254 125.605 13.3297 126.281 13.0419C126.955 12.7542 127.682 12.6103 128.461 12.6103C129.267 12.6103 130.024 12.7542 130.734 13.0419C131.443 13.3297 132.062 13.7254 132.59 14.2308C133.117 14.7363 133.534 15.3244 133.841 15.9989C134.146 16.6715 134.299 17.3874 134.299 18.1446C134.299 18.4396 134.263 18.7615 134.196 19.1123H125.874C126.069 19.6878 126.413 20.1573 126.907 20.5224C127.404 20.8857 127.964 21.0692 128.589 21.0692ZM128.589 15.2183C128.019 15.2183 127.502 15.3765 127.035 15.6913C126.57 16.0061 126.219 16.418 125.981 16.9216H131.196C130.958 16.4162 130.607 16.0061 130.142 15.6913C129.677 15.3765 129.16 15.2183 128.589 15.2183Z"
            fill="#FF0000"/>
    <path
            d="M144.774 19.3235C144.774 19.9692 144.667 20.5573 144.451 21.0915C144.236 21.6239 143.931 22.0843 143.533 22.4692C143.138 22.8559 142.66 23.1528 142.105 23.3632C141.549 23.5736 140.924 23.6779 140.228 23.6779C139.881 23.6779 139.456 23.5826 138.956 23.3938C138.455 23.2049 138.059 22.9477 137.767 22.6257V23.4261H135.389V19.0699H137.954C137.954 19.631 138.141 20.0771 138.517 20.4062C138.893 20.7354 139.344 20.9008 139.874 20.9008C140.387 20.9008 140.833 20.7678 141.209 20.5016C141.585 20.2354 141.772 19.9188 141.772 19.5555C141.772 19.1346 141.669 18.8055 141.46 18.5662C141.252 18.327 140.977 18.1274 140.637 17.9673C140.296 17.8055 139.902 17.6615 139.458 17.5356C139.013 17.4097 138.562 17.2479 138.103 17.0518C137.283 16.6867 136.602 16.1921 136.059 15.568C135.517 14.9439 135.246 14.1614 135.246 13.2208C135.246 12.6308 135.356 12.0841 135.579 11.5787C135.802 11.0732 136.1 10.6362 136.476 10.2639C136.852 9.89154 137.292 9.60015 137.8 9.38971C138.308 9.17927 138.854 9.07495 139.437 9.07495C140.077 9.07495 140.604 9.19009 141.022 9.42212C141.439 9.65414 141.744 9.88794 141.94 10.1272V9.32678H144.255V13.3035H141.544C141.544 12.7981 141.35 12.3952 140.959 12.093C140.571 11.7909 140.166 11.6398 139.749 11.6398C139.317 11.6398 138.943 11.7873 138.622 12.0822C138.303 12.3772 138.143 12.7496 138.143 13.1974C138.143 13.5895 138.257 13.8989 138.487 14.1237C138.717 14.3485 139.014 14.5338 139.383 14.6813C139.752 14.8288 140.159 14.9618 140.603 15.0806C141.048 15.1993 141.485 15.3575 141.916 15.5536C142.695 15.9187 143.366 16.4169 143.929 17.0482C144.492 17.6813 144.774 18.4385 144.774 19.3235Z"
            fill="white"/>
    <path
            d="M151.531 15.3453H149.841V20.9426H151.093V23.4265H147.089V15.3453H145.65V12.8614H147.089V9.32538H149.841V12.8614H151.531V15.3453Z"
            fill="white"/>
    <path
            d="M158.08 23.6775C157.301 23.6775 156.576 23.5335 155.9 23.2458C155.226 22.958 154.634 22.5623 154.126 22.0569C153.618 21.5515 153.219 20.9633 152.927 20.2888C152.634 19.6162 152.488 18.9003 152.488 18.1431C152.488 17.3859 152.634 16.67 152.927 15.9973C153.219 15.3246 153.618 14.7347 154.126 14.2293C154.634 13.7239 155.224 13.3282 155.9 13.0404C156.574 12.7526 157.301 12.6088 158.08 12.6088C158.886 12.6088 159.644 12.7526 160.353 13.0404C161.062 13.3282 161.681 13.7239 162.209 14.2293C162.736 14.7347 163.153 15.3228 163.46 15.9973C163.765 16.67 163.918 17.3859 163.918 18.1431C163.918 18.9003 163.765 19.6162 163.46 20.2888C163.153 20.9615 162.736 21.5515 162.209 22.0569C161.679 22.5623 161.061 22.958 160.353 23.2458C159.644 23.5335 158.886 23.6775 158.08 23.6775ZM161.084 18.1431C161.084 17.7366 161.007 17.3535 160.854 16.9956C160.701 16.6376 160.496 16.3301 160.239 16.0693C159.982 15.8103 159.676 15.6035 159.321 15.4488C158.966 15.2941 158.594 15.2168 158.205 15.2168C157.816 15.2168 157.444 15.2941 157.089 15.4488C156.734 15.6035 156.428 15.8103 156.171 16.0693C155.914 16.3283 155.709 16.6376 155.556 16.9956C155.403 17.3535 155.326 17.7366 155.326 18.1431C155.326 18.5496 155.403 18.9327 155.556 19.2906C155.709 19.6485 155.914 19.9579 156.171 20.2169C156.428 20.4759 156.734 20.6828 157.089 20.8374C157.444 20.9921 157.816 21.0695 158.205 21.0695C158.594 21.0695 158.966 20.9921 159.321 20.8374C159.676 20.6828 159.98 20.4759 160.239 20.2169C160.496 19.9579 160.701 19.6485 160.854 19.2906C161.007 18.9327 161.084 18.5514 161.084 18.1431Z"
            fill="white"/>
    <path
            d="M166.195 20.9417V15.3445H164.902V12.8606H168.824V14.0818C169.061 13.7167 169.421 13.3803 169.908 13.071C170.394 12.7634 170.881 12.6088 171.368 12.6088H171.869V15.2186H171.368C170.701 15.2186 170.131 15.4884 169.658 16.0279C169.186 16.5675 168.949 17.2168 168.949 17.974V20.9417H170.241V23.4256H164.902V20.9417H166.195Z"
            fill="white"/>
    <path
            d="M178.291 21.0692C178.693 21.0692 179.077 20.9846 179.437 20.8174C179.799 20.6483 180.111 20.4253 180.374 20.1447H183.608C183.4 20.6645 183.111 21.1375 182.742 21.5656C182.373 21.9937 181.952 22.366 181.48 22.6807C181.007 22.9955 180.489 23.2419 179.925 23.4163C179.362 23.5908 178.774 23.679 178.162 23.679C177.383 23.679 176.658 23.5351 175.982 23.2473C175.308 22.9595 174.716 22.5638 174.208 22.0584C173.7 21.553 173.301 20.9649 173.009 20.2904C172.716 19.6177 172.57 18.9019 172.57 18.1446C172.57 17.3874 172.716 16.6715 173.009 15.9989C173.301 15.3262 173.7 14.7363 174.208 14.2308C174.716 13.7254 175.306 13.3297 175.982 13.0419C176.656 12.7542 177.383 12.6103 178.162 12.6103C178.968 12.6103 179.726 12.7542 180.435 13.0419C181.145 13.3297 181.763 13.7254 182.291 14.2308C182.818 14.7363 183.236 15.3244 183.542 15.9989C183.847 16.6715 184 17.3874 184 18.1446C184 18.4396 183.965 18.7615 183.897 19.1123H175.576C175.77 19.6878 176.114 20.1573 176.608 20.5224C177.105 20.8857 177.665 21.0692 178.291 21.0692ZM178.291 15.2183C177.72 15.2183 177.203 15.3765 176.736 15.6913C176.271 16.0061 175.92 16.418 175.683 16.9216H180.897C180.66 16.4162 180.308 16.0061 179.843 15.6913C179.378 15.3765 178.861 15.2183 178.291 15.2183Z"
            fill="white"/>
    <path
            d="M47.4531 33.9561C47.0431 33.9561 46.6902 33.859 46.3943 33.6629C46.0983 33.4669 45.8702 33.1989 45.7115 32.8553C45.5511 32.5118 45.4727 32.1215 45.4727 31.6791C45.4727 31.2312 45.5547 30.8337 45.7187 30.4902C45.8827 30.1466 46.1126 29.8768 46.4085 29.6826C46.7044 29.4883 47.0485 29.3912 47.4442 29.3912C47.7526 29.3912 48.0289 29.4488 48.2767 29.5639C48.5245 29.679 48.7259 29.8391 48.8828 30.0459C49.0397 30.2528 49.1377 30.4938 49.1769 30.7708H48.5049C48.4532 30.5693 48.3409 30.3913 48.1644 30.2348C47.9879 30.0783 47.7526 30.0009 47.4567 30.0009C47.1947 30.0009 46.9647 30.0693 46.7686 30.206C46.5725 30.3427 46.4192 30.5352 46.3105 30.7834C46.2017 31.0316 46.1465 31.3229 46.1465 31.6557C46.1465 31.9974 46.2 32.2942 46.3069 32.546C46.4139 32.7996 46.5654 32.9956 46.7633 33.1359C46.9611 33.2762 47.1911 33.3464 47.4567 33.3464C47.6314 33.3464 47.79 33.3158 47.9327 33.2547C48.0753 33.1935 48.1965 33.1053 48.2945 32.9902C48.3926 32.8751 48.4639 32.7367 48.5049 32.5766H49.1769C49.1395 32.8374 49.045 33.0712 48.8971 33.2798C48.7473 33.4885 48.5512 33.6521 48.307 33.7744C48.0592 33.8949 47.7758 33.9561 47.4531 33.9561Z"
            fill="white"/>
    <path
            d="M50.5899 35.52C50.4758 35.52 50.3742 35.5111 50.2851 35.4931C50.1959 35.4751 50.1335 35.4571 50.0997 35.4391L50.2708 34.842C50.4348 34.8833 50.5792 34.8995 50.704 34.8869C50.8288 34.8761 50.9411 34.8186 51.0391 34.7197C51.1372 34.6207 51.2263 34.4571 51.3083 34.2322L51.4331 33.8869L49.8145 29.4497H50.5435L51.7522 32.9678H51.7985L53.0071 29.4497H53.7362L51.8787 34.5074C51.7949 34.7359 51.6915 34.9247 51.5685 35.0758C51.4455 35.2269 51.3029 35.3384 51.1407 35.4103C50.9767 35.4841 50.7931 35.52 50.5899 35.52Z"
            fill="white"/>
    <path d="M54.6211 33.8635V29.4479H58.0616V33.8635H57.3895V30.0811H55.2931V33.8635H54.6211Z"
          fill="white"/>
    <path
            d="M61.1272 33.9557C60.7065 33.9557 60.3428 33.8604 60.038 33.6733C59.7332 33.4845 59.4979 33.2201 59.3339 32.8802C59.1699 32.5402 59.0879 32.1445 59.0879 31.6913C59.0879 31.2398 59.1699 30.8405 59.3339 30.4934C59.4979 30.1481 59.7278 29.8765 60.0238 29.6822C60.3197 29.488 60.6637 29.3909 61.0595 29.3909C61.2876 29.3909 61.5122 29.4286 61.7351 29.506C61.9579 29.5833 62.1593 29.7074 62.3412 29.8783C62.523 30.0492 62.6692 30.2758 62.7779 30.5582C62.8866 30.8406 62.9401 31.1858 62.9401 31.5977V31.8855H59.5674V31.2992H62.2556C62.2556 31.051 62.2075 30.8279 62.1094 30.6319C62.0114 30.4358 61.8723 30.283 61.6941 30.1696C61.5158 30.0563 61.3037 30.0006 61.0595 30.0006C60.7921 30.0006 60.5603 30.0671 60.366 30.2002C60.1717 30.3333 60.022 30.506 59.9168 30.7182C59.8116 30.9305 59.7599 31.1589 59.7599 31.4017V31.792C59.7599 32.1247 59.817 32.4071 59.9328 32.6391C60.0469 32.8694 60.2074 33.0457 60.4124 33.1644C60.6174 33.2831 60.8562 33.3442 61.1272 33.3442C61.3037 33.3442 61.4641 33.319 61.6067 33.2687C61.7493 33.2183 61.8741 33.1409 61.9793 33.0384C62.0845 32.9359 62.1647 32.8082 62.2217 32.6553L62.8706 32.8388C62.8029 33.0618 62.687 33.2561 62.5265 33.4234C62.3643 33.5906 62.1665 33.7219 61.9276 33.8136C61.6905 33.909 61.4231 33.9557 61.1272 33.9557Z"
            fill="white"/>
    <path
            d="M63.9631 35.5188V29.4485H64.612V30.15H64.6922C64.7421 30.0727 64.8099 29.9755 64.899 29.855C64.9881 29.7345 65.1147 29.6284 65.2805 29.533C65.4463 29.4377 65.6726 29.391 65.9579 29.391C66.3269 29.391 66.6513 29.4845 66.933 29.6697C67.2146 29.855 67.4339 30.1194 67.5907 30.4594C67.7476 30.8011 67.8278 31.2022 67.8278 31.6662C67.8278 32.1339 67.7494 32.5386 67.5907 32.8803C67.4321 33.222 67.2146 33.4864 66.9347 33.6735C66.6549 33.8605 66.334 33.9541 65.9686 33.9541C65.6869 33.9541 65.4623 33.9073 65.2929 33.812C65.1236 33.7166 64.9935 33.6087 64.9026 33.4864C64.8116 33.3641 64.7403 33.2634 64.6922 33.1824H64.6352V35.517H63.9631V35.5188ZM64.6245 31.6554C64.6245 31.9882 64.6726 32.2832 64.7689 32.5368C64.8651 32.7904 65.0077 32.9882 65.1931 33.1321C65.3785 33.2742 65.6067 33.3461 65.8776 33.3461C66.1593 33.3461 66.3946 33.2706 66.5836 33.1213C66.7725 32.9702 66.9151 32.767 67.0114 32.5116C67.1076 32.2562 67.1558 31.9702 67.1558 31.6572C67.1558 31.3461 67.1094 31.0673 67.015 30.8173C66.9205 30.5673 66.7797 30.3694 66.5907 30.2219C66.4017 30.0762 66.1647 30.0025 65.8794 30.0025C65.6067 30.0025 65.3767 30.0726 65.1896 30.2111C65.0042 30.3496 64.8633 30.5439 64.7671 30.7921C64.6708 31.0403 64.6245 31.3263 64.6245 31.6554Z"
            fill="white"/>
    <path
            d="M69.5256 29.4497V33.8653H68.8535V29.4497H69.5256ZM71.2458 32.9445L72.7735 29.4497H73.4117L71.5203 33.8653H70.973L69.1156 29.4497H69.743L71.2458 32.9445ZM72.966 33.8635V29.4479H73.6381V33.8635H72.966Z"
            fill="white"/>
    <path
            d="M76.1542 33.9668C75.8761 33.9668 75.6247 33.9128 75.4001 33.8067C75.1737 33.7006 74.9955 33.5459 74.8618 33.3445C74.7281 33.1431 74.6621 32.8984 74.6621 32.6106C74.6621 32.357 74.712 32.152 74.8101 31.9937C74.9081 31.8355 75.04 31.7113 75.2058 31.6214C75.3716 31.5315 75.5534 31.4631 75.7549 31.4181C75.9545 31.3732 76.1577 31.3372 76.3609 31.3103C76.6265 31.2761 76.8422 31.2491 77.0098 31.2311C77.1756 31.2131 77.2968 31.1826 77.3752 31.1376C77.4519 31.0926 77.4911 31.0171 77.4911 30.9074V30.884C77.4911 30.5998 77.4145 30.3804 77.2612 30.2239C77.1079 30.0674 76.8779 29.9883 76.5677 29.9883C76.2468 29.9883 75.9955 30.0584 75.8137 30.2005C75.6318 30.3426 75.5035 30.4937 75.4286 30.6537L74.7905 30.4235C74.9045 30.1556 75.0561 29.9451 75.2468 29.7958C75.4375 29.6447 75.6461 29.5404 75.8743 29.4793C76.1007 29.4181 76.3253 29.3893 76.5445 29.3893C76.6854 29.3893 76.8476 29.4055 77.0294 29.4397C77.213 29.4738 77.3895 29.5422 77.5624 29.6447C77.7335 29.7491 77.8779 29.9037 77.9902 30.1123C78.1025 30.321 78.1614 30.6016 78.1614 30.9523V33.8607H77.4893V33.2635H77.4555C77.4091 33.3589 77.3342 33.4614 77.2273 33.5711C77.1203 33.6808 76.9795 33.7725 76.803 33.8499C76.623 33.929 76.4073 33.9668 76.1542 33.9668ZM76.2558 33.3571C76.5214 33.3571 76.746 33.3049 76.9296 33.1988C77.1132 33.0927 77.2522 32.9578 77.3449 32.7905C77.4376 32.6232 77.4858 32.4488 77.4858 32.2653V31.6448C77.4572 31.6789 77.3948 31.7113 77.2986 31.7383C77.2023 31.7653 77.0918 31.7905 76.9688 31.8103C76.844 31.8301 76.7246 31.8481 76.6069 31.8624C76.4893 31.8768 76.3948 31.8894 76.3235 31.8984C76.1488 31.9218 75.9866 31.9577 75.8351 32.0099C75.6835 32.0603 75.5623 32.1358 75.4696 32.2365C75.3769 32.3372 75.3306 32.4739 75.3306 32.6466C75.3306 32.8822 75.4179 33.0603 75.5908 33.179C75.7673 33.2977 75.9884 33.3571 76.2558 33.3571Z"
            fill="white"/>
    <path
            d="M79.3926 35.5187V29.4484H80.0415V30.1499H80.1217C80.1716 30.0725 80.2393 29.9754 80.3285 29.8549C80.4176 29.7344 80.5442 29.6282 80.7099 29.5329C80.8757 29.4376 81.1021 29.3909 81.3873 29.3909C81.7563 29.3909 82.0808 29.4844 82.3624 29.6696C82.6441 29.8549 82.8633 30.1193 83.0202 30.4592C83.1771 30.801 83.2573 31.2021 83.2573 31.6661C83.2573 32.1337 83.1789 32.5384 83.0202 32.8802C82.8616 33.2219 82.6441 33.4863 82.3642 33.6733C82.0843 33.8604 81.7635 33.9539 81.398 33.9539C81.1164 33.9539 80.8918 33.9072 80.7224 33.8118C80.5531 33.7165 80.4229 33.6086 80.332 33.4863C80.2411 33.364 80.1698 33.2633 80.1217 33.1823H80.0646V35.5169H79.3926V35.5187ZM80.0539 31.6553C80.0539 31.988 80.1021 32.283 80.1983 32.5366C80.2946 32.7903 80.4372 32.9881 80.6226 33.132C80.808 33.274 81.0361 33.346 81.3071 33.346C81.5888 33.346 81.8241 33.2705 82.013 33.1212C82.202 32.9701 82.3446 32.7668 82.4409 32.5114C82.5371 32.256 82.5852 31.9701 82.5852 31.6571C82.5852 31.3459 82.5389 31.0672 82.4444 30.8172C82.3499 30.5672 82.2091 30.3693 82.0202 30.2218C81.8312 30.0761 81.5941 30.0024 81.3089 30.0024C81.0361 30.0024 80.8062 30.0725 80.619 30.211C80.4336 30.3495 80.2928 30.5437 80.1965 30.792C80.1003 31.0402 80.0539 31.3262 80.0539 31.6553Z"
            fill="white"/>
    <path
            d="M84.2793 33.8635V29.4479H84.9513V31.3671H85.3952L86.9675 29.4479H87.8338L86.0673 31.5757L87.857 33.8635H86.9906L85.5557 32.0002H84.9513V33.8635H84.2793Z"
            fill="white"/>
    <path
            d="M90.2424 33.9557C89.8218 33.9557 89.4581 33.8604 89.1533 33.6733C88.8484 33.4845 88.6131 33.2201 88.4491 32.8802C88.2851 32.5402 88.2031 32.1445 88.2031 31.6913C88.2031 31.2398 88.2851 30.8405 88.4491 30.4934C88.6131 30.1481 88.8431 29.8765 89.139 29.6822C89.4349 29.488 89.779 29.3909 90.1747 29.3909C90.4029 29.3909 90.6275 29.4286 90.8503 29.506C91.0731 29.5833 91.2746 29.7074 91.4564 29.8783C91.6382 30.0492 91.7844 30.2758 91.8932 30.5582C92.0019 30.8406 92.0554 31.1858 92.0554 31.5977V31.8855H88.6827V31.2992H91.3708C91.3708 31.051 91.3227 30.8279 91.2247 30.6319C91.1266 30.4358 90.9876 30.283 90.8093 30.1696C90.631 30.0563 90.4189 30.0006 90.1747 30.0006C89.9073 30.0006 89.6756 30.0671 89.4813 30.2002C89.287 30.3333 89.1372 30.506 89.032 30.7182C88.9269 30.9305 88.8752 31.1589 88.8752 31.4017V31.792C88.8752 32.1247 88.9322 32.4071 89.0481 32.6391C89.1622 32.8694 89.3226 33.0457 89.5276 33.1644C89.7326 33.2831 89.9715 33.3442 90.2424 33.3442C90.4189 33.3442 90.5794 33.319 90.722 33.2687C90.8646 33.2183 90.9893 33.1409 91.0945 33.0384C91.1997 32.9359 91.2799 32.8082 91.337 32.6553L91.9858 32.8388C91.9181 33.0618 91.8022 33.2561 91.6418 33.4234C91.4796 33.5906 91.2817 33.7219 91.0428 33.8136C90.8058 33.909 90.5401 33.9557 90.2424 33.9557Z"
            fill="white"/>
    <path d="M92.6699 30.0811V29.4479H96.2244V30.0811H94.7895V33.8635H94.1174V30.0811H92.6699Z"
          fill="white"/>
    <path
            d="M100.129 29.4497V33.8653H99.457V29.4497H100.129ZM101.849 32.9445L103.377 29.4497H104.015L102.124 33.8653H101.577L99.7191 29.4497H100.347L101.849 32.9445ZM103.57 33.8635V29.4479H104.242V33.8635H103.57Z"
            fill="white"/>
    <path
            d="M107.311 33.9561C106.89 33.9561 106.526 33.8608 106.221 33.6737C105.917 33.4849 105.681 33.2205 105.517 32.8805C105.353 32.5406 105.271 32.1449 105.271 31.6916C105.271 31.2402 105.353 30.8409 105.517 30.4938C105.681 30.1484 105.911 29.8768 106.207 29.6826C106.503 29.4883 106.847 29.3912 107.243 29.3912C107.471 29.3912 107.696 29.429 107.919 29.5063C108.141 29.5837 108.343 29.7078 108.525 29.8787C108.706 30.0495 108.853 30.2762 108.961 30.5585C109.07 30.8409 109.124 31.1862 109.124 31.5981V31.8859H105.751V31.2995H108.439C108.439 31.0513 108.391 30.8283 108.293 30.6323C108.195 30.4362 108.056 30.2833 107.878 30.17C107.699 30.0567 107.487 30.0009 107.243 30.0009C106.976 30.0009 106.744 30.0675 106.549 30.2006C106.355 30.3337 106.205 30.5064 106.1 30.7186C105.995 30.9308 105.943 31.1593 105.943 31.4021V31.7924C105.943 32.1251 106 32.4075 106.116 32.6395C106.23 32.8697 106.391 33.046 106.596 33.1647C106.801 33.2834 107.04 33.3446 107.311 33.3446C107.487 33.3446 107.648 33.3194 107.79 33.269C107.933 33.2187 108.058 33.1413 108.163 33.0388C108.268 32.9363 108.348 32.8086 108.405 32.6557L109.054 32.8392C108.986 33.0622 108.87 33.2564 108.71 33.4237C108.548 33.591 108.35 33.7223 108.111 33.814C107.872 33.9093 107.607 33.9561 107.311 33.9561Z"
            fill="white"/>
    <path
            d="M110.535 29.4497L111.583 31.2555L112.632 29.4497H113.407L111.993 31.6566L113.407 33.8635H112.632L111.583 32.1512L110.535 33.8635H109.76L111.15 31.6566L109.76 29.4497H110.535Z"
            fill="white"/>
    <path
            d="M115.65 33.9668C115.372 33.9668 115.121 33.9128 114.896 33.8067C114.67 33.7006 114.492 33.5459 114.358 33.3445C114.224 33.1431 114.158 32.8984 114.158 32.6106C114.158 32.357 114.208 32.152 114.306 31.9937C114.404 31.8355 114.536 31.7113 114.702 31.6214C114.868 31.5315 115.05 31.4631 115.251 31.4181C115.451 31.3732 115.654 31.3372 115.857 31.3103C116.123 31.2761 116.338 31.2491 116.506 31.2311C116.672 31.2131 116.793 31.1826 116.871 31.1376C116.948 31.0926 116.987 31.0171 116.987 30.9074V30.884C116.987 30.5998 116.911 30.3804 116.757 30.2239C116.604 30.0674 116.374 29.9883 116.064 29.9883C115.743 29.9883 115.492 30.0584 115.31 30.2005C115.128 30.3426 115 30.4937 114.925 30.6537L114.287 30.4235C114.401 30.1556 114.552 29.9451 114.743 29.7958C114.934 29.6447 115.142 29.5404 115.37 29.4793C115.597 29.4181 115.821 29.3893 116.041 29.3893C116.181 29.3893 116.344 29.4055 116.526 29.4397C116.709 29.4738 116.886 29.5422 117.059 29.6447C117.23 29.7491 117.374 29.9037 117.486 30.1123C117.599 30.321 117.657 30.6016 117.657 30.9523V33.8607H116.985V33.2635H116.952C116.905 33.3589 116.83 33.4614 116.723 33.5711C116.616 33.6808 116.476 33.7725 116.299 33.8499C116.119 33.929 115.903 33.9668 115.65 33.9668ZM115.752 33.3571C116.017 33.3571 116.242 33.3049 116.426 33.1988C116.609 33.0927 116.748 32.9578 116.841 32.7905C116.934 32.6232 116.982 32.4488 116.982 32.2653V31.6448C116.953 31.6789 116.891 31.7113 116.795 31.7383C116.698 31.7653 116.588 31.7905 116.465 31.8103C116.34 31.8301 116.221 31.8481 116.103 31.8624C115.985 31.8768 115.891 31.8894 115.82 31.8984C115.645 31.9218 115.483 31.9577 115.331 32.0099C115.18 32.0603 115.058 32.1358 114.966 32.2365C114.873 32.3372 114.827 32.4739 114.827 32.6466C114.827 32.8822 114.914 33.0603 115.087 33.179C115.263 33.2977 115.484 33.3571 115.752 33.3571Z"
            fill="white"/>
    <path
            d="M119.559 29.4497V33.8653H118.887V29.4497H119.559ZM121.816 31.3455V31.9786H119.4V31.3455H121.816ZM122.327 29.4497V33.8653H121.655V29.4497H122.327Z"
            fill="white"/>
    <path
            d="M124.231 32.8635L126.338 29.4497H127.113V33.8653H126.441V30.4515L124.345 33.8653H123.559V29.4497H124.231V32.8635Z"
            fill="white"/>
    <path
            d="M128.069 32.7367H128.787C128.801 32.9364 128.892 33.0875 129.056 33.1918C129.22 33.2961 129.434 33.3465 129.698 33.3465C129.967 33.3465 130.199 33.2907 130.39 33.1774C130.58 33.0641 130.677 32.8842 130.677 32.6324C130.677 32.4849 130.641 32.3554 130.568 32.2457C130.495 32.136 130.395 32.0497 130.263 31.9885C130.131 31.9274 129.978 31.8968 129.799 31.8968H129.047V31.287H129.799C130.067 31.287 130.265 31.2259 130.393 31.1036C130.521 30.9813 130.586 30.8284 130.586 30.6432C130.586 30.4453 130.516 30.287 130.377 30.1683C130.238 30.0478 130.042 29.9884 129.787 29.9884C129.53 29.9884 129.316 30.046 129.145 30.1629C128.974 30.278 128.885 30.4273 128.874 30.6089H128.168C128.175 30.3715 128.249 30.1611 128.384 29.9776C128.521 29.7942 128.707 29.6503 128.942 29.546C129.177 29.4417 129.446 29.3895 129.751 29.3895C130.06 29.3895 130.327 29.4435 130.553 29.5514C130.78 29.6593 130.956 29.8068 131.081 29.9902C131.206 30.1755 131.268 30.3841 131.268 30.618C131.268 30.8662 131.199 31.0676 131.06 31.2223C130.921 31.3752 130.748 31.4849 130.539 31.5497V31.5946C130.705 31.6054 130.848 31.6594 130.971 31.7547C131.094 31.85 131.188 31.9723 131.258 32.1252C131.325 32.2781 131.361 32.4454 131.361 32.6288C131.361 32.8968 131.29 33.1306 131.147 33.3285C131.005 33.5263 130.808 33.681 130.561 33.7889C130.313 33.8969 130.028 33.9508 129.709 33.9508C129.398 33.9508 129.122 33.8987 128.876 33.7961C128.632 33.6936 128.438 33.5515 128.293 33.368C128.151 33.19 128.076 32.9777 128.069 32.7367Z"
            fill="white"/>
    <path
            d="M132.983 29.4497V33.8653H132.311V29.4497H132.983ZM134.703 32.9445L136.231 29.4497H136.869L134.977 33.8653H134.43L132.573 29.4497H133.2L134.703 32.9445ZM136.423 33.8635V29.4479H137.095V33.8635H136.423Z"
            fill="white"/>
    <path
            d="M140.103 33.9557C139.708 33.9557 139.362 33.8604 139.066 33.6715C138.768 33.4827 138.536 33.2165 138.371 32.8748C138.205 32.533 138.121 32.1356 138.121 31.6787C138.121 31.2183 138.205 30.8171 138.371 30.4736C138.536 30.1301 138.768 29.8639 139.066 29.675C139.364 29.4862 139.709 29.3909 140.103 29.3909C140.497 29.3909 140.845 29.4862 141.143 29.675C141.44 29.8639 141.672 30.1319 141.838 30.4736C142.004 30.8171 142.087 31.2183 142.087 31.6787C142.087 32.1356 142.004 32.533 141.838 32.8748C141.672 33.2165 141.44 33.4809 141.143 33.6715C140.845 33.8622 140.497 33.9557 140.103 33.9557ZM140.103 33.346C140.403 33.346 140.651 33.2687 140.845 33.114C141.039 32.9593 141.182 32.7542 141.275 32.5024C141.367 32.2488 141.414 31.9755 141.414 31.6805C141.414 31.3855 141.367 31.1103 141.275 30.8549C141.182 30.5995 141.037 30.3945 140.845 30.2362C140.651 30.0797 140.405 30.0006 140.103 30.0006C139.804 30.0006 139.556 30.0797 139.364 30.2362C139.169 30.3927 139.027 30.5995 138.934 30.8549C138.841 31.1103 138.795 31.3855 138.795 31.6805C138.795 31.9755 138.841 32.2488 138.934 32.5024C139.027 32.756 139.171 32.9593 139.364 33.114C139.556 33.2687 139.804 33.346 140.103 33.346Z"
            fill="white"/>
    <path
            d="M143.111 33.8635V29.4479H144.901C145.372 29.4479 145.746 29.5559 146.024 29.7699C146.302 29.9839 146.439 30.2681 146.439 30.6206C146.439 30.8886 146.361 31.0955 146.202 31.243C146.046 31.3886 145.842 31.4894 145.596 31.5398C145.759 31.5631 145.915 31.6207 146.067 31.7124C146.218 31.8041 146.347 31.9301 146.447 32.0901C146.546 32.2502 146.598 32.4462 146.598 32.6782C146.598 32.9049 146.541 33.1063 146.427 33.2844C146.313 33.4625 146.149 33.6028 145.937 33.7071C145.725 33.8114 145.47 33.8617 145.174 33.8617H143.111V33.8635ZM143.749 31.3005H144.901C145.081 31.3005 145.236 31.2754 145.365 31.225C145.493 31.1746 145.593 31.1009 145.662 31.0074C145.732 30.9138 145.766 30.8005 145.766 30.6692C145.766 30.4839 145.689 30.3365 145.536 30.2304C145.382 30.1242 145.17 30.0703 144.901 30.0703H143.749V31.3005ZM143.749 33.243H145.174C145.406 33.243 145.587 33.1873 145.718 33.0758C145.849 32.9643 145.914 32.8132 145.914 32.6225C145.914 32.3941 145.848 32.2142 145.718 32.0829C145.587 31.9516 145.406 31.8869 145.174 31.8869H143.749V33.243Z"
            fill="white"/>
    <path
            d="M150.541 32.8635L152.65 29.4497H153.426V33.8653H152.754V30.4515L150.657 33.8653H149.871V29.4497H150.543V32.8635H150.541Z"
            fill="white"/>
    <path
            d="M157.582 29.4497V33.8653H156.91V29.4497H157.582ZM159.302 32.9445L160.83 29.4497H161.468L159.577 33.8653H159.03L157.172 29.4497H157.8L159.302 32.9445ZM161.024 33.8635V29.4479H161.696V33.8635H161.024Z"
            fill="white"/>
    <path
            d="M164.213 33.9668C163.935 33.9668 163.683 33.9128 163.459 33.8067C163.232 33.7006 163.052 33.5459 162.92 33.3445C162.787 33.1431 162.721 32.8984 162.721 32.6106C162.721 32.357 162.771 32.152 162.869 31.9937C162.967 31.8355 163.099 31.7113 163.264 31.6214C163.43 31.5315 163.612 31.4631 163.813 31.4181C164.015 31.3732 164.216 31.3372 164.42 31.3103C164.685 31.2761 164.901 31.2491 165.068 31.2311C165.234 31.2131 165.355 31.1826 165.432 31.1376C165.509 31.0926 165.548 31.0171 165.548 30.9074V30.884C165.548 30.5998 165.471 30.3804 165.318 30.2239C165.165 30.0674 164.933 29.9883 164.625 29.9883C164.304 29.9883 164.052 30.0584 163.87 30.2005C163.689 30.3426 163.56 30.4937 163.485 30.6537L162.847 30.4235C162.961 30.1556 163.113 29.9451 163.305 29.7958C163.496 29.6447 163.705 29.5404 163.933 29.4793C164.159 29.4181 164.384 29.3893 164.603 29.3893C164.744 29.3893 164.906 29.4055 165.088 29.4397C165.27 29.4738 165.448 29.5422 165.621 29.6447C165.792 29.7491 165.937 29.9037 166.051 30.1123C166.165 30.321 166.222 30.6016 166.222 30.9523V33.8607H165.55V33.2635H165.516C165.469 33.3589 165.395 33.4614 165.288 33.5711C165.181 33.6808 165.04 33.7725 164.863 33.8499C164.683 33.929 164.468 33.9668 164.213 33.9668ZM164.316 33.3571C164.582 33.3571 164.806 33.3049 164.99 33.1988C165.174 33.0927 165.313 32.9578 165.405 32.7905C165.498 32.6232 165.546 32.4488 165.546 32.2653V31.6448C165.518 31.6789 165.455 31.7113 165.359 31.7383C165.263 31.7653 165.152 31.7905 165.029 31.8103C164.904 31.8301 164.785 31.8481 164.667 31.8624C164.55 31.8768 164.455 31.8894 164.384 31.8984C164.209 31.9218 164.047 31.9577 163.895 32.0099C163.744 32.0603 163.623 32.1358 163.532 32.2365C163.441 32.3372 163.393 32.4739 163.393 32.6466C163.393 32.8822 163.48 33.0603 163.653 33.179C163.828 33.2977 164.049 33.3571 164.316 33.3571Z"
            fill="white"/>
    <path
            d="M167.449 29.4497H168.121V33.2322H169.774V29.4497H170.446V33.2322H172.098V29.4497H172.77V33.8653H167.449V29.4497Z"
            fill="white"/>
    <path
            d="M174.67 32.8635L176.779 29.4497H177.555V33.8653H176.882V30.4515L174.786 33.8653H174V29.4497H174.672V32.8635H174.67Z"
            fill="white"/>
    <path
            d="M179.461 29.4497V33.8653H178.789V29.4497H179.461ZM181.716 31.3455V31.9786H179.301V31.3455H181.716ZM182.23 29.4497V33.8653H181.557V29.4497H182.23Z"
            fill="white"/>
    <path
            d="M18.3418 27.5951C14.6946 27.5951 11.7266 24.6004 11.7266 20.9205C11.7266 17.2405 14.6946 14.2458 18.3418 14.2458C21.9891 14.2458 24.9571 17.2405 24.9571 20.9205C24.9554 24.6004 21.9891 27.5951 18.3418 27.5951ZM18.3418 15.6865C15.4808 15.6865 13.1527 18.0355 13.1527 20.9223C13.1527 23.8091 15.4808 26.158 18.3418 26.158C21.2029 26.158 23.531 23.8091 23.531 20.9223C23.531 18.0355 21.2029 15.6865 18.3418 15.6865Z"
            fill="white"/>
    <path
            d="M7.81552 20.6979C7.81395 20.7716 7.81316 20.8454 7.81316 20.9195C7.81316 24.3231 9.39822 27.3518 11.8654 29.2964C12.6336 29.9018 13.0346 30.91 12.7066 31.8314L12.5381 32.3049C12.3431 32.8526 11.7239 33.1191 11.1921 32.8844L10.8365 32.7274L8.14472 35.3426C7.80068 35.7149 7.20172 35.7113 6.83272 35.3642L3.93597 32.7148C3.52419 32.3875 3.48498 31.8047 3.80941 31.3892L5.2144 29.5974C5.76298 28.8977 5.78271 27.9262 5.40192 27.1228C5.02419 26.3259 4.27049 25.7512 3.38876 25.7335L1.11764 25.6876C0.636338 25.6553 0.215644 25.2542 0.18534 24.7452L0.0017468 20.8044C-0.0285577 20.2954 0.338645 19.8601 0.853821 19.7972L4.57771 19.3331C4.6081 19.1865 4.64191 19.0401 4.67893 18.8941C4.81548 18.3559 5.39704 18.0843 5.91911 18.2735L6.39906 18.4475C7.31487 18.7794 7.83626 19.724 7.81552 20.6979Z"
            fill="white"/>
    <path
            d="M17.2505 31.421C17.3844 31.4264 17.5189 31.4295 17.6538 31.4301C21.4649 31.4481 24.8577 29.6335 27.008 26.8077C27.6052 26.023 28.6263 25.6239 29.5523 25.9633L30.3347 26.2501C30.8768 26.4488 31.1385 27.0639 30.9057 27.5922L30.6767 28.1122L33.5435 31.1344C33.9518 31.5208 33.9447 32.1903 33.5604 32.6009L30.627 35.8249C30.2642 36.2835 29.6221 36.3243 29.1661 35.9595L27.2079 34.3866C26.4372 33.7675 25.3541 33.7408 24.4608 34.164C23.588 34.5774 22.9582 35.4003 22.9345 36.3657L22.8714 38.9386C22.8333 39.4764 22.3892 39.9445 21.8284 39.9757L17.4864 40.1605C16.9255 40.1917 16.448 39.779 16.3813 39.2029L15.8895 35.0382C15.6916 34.9956 15.4939 34.9472 15.2973 34.8936C14.7651 34.7483 14.4984 34.1705 14.6864 33.6519L14.9858 32.8258C15.3195 31.9049 16.2718 31.3815 17.2505 31.421Z"
            fill="white"/>
    <path
            d="M29.1388 21.4434C29.1425 21.3522 29.1451 21.2608 29.1464 21.1691C29.1985 17.6421 27.5812 14.4807 25.0253 12.4389C24.2578 11.8258 23.87 10.8062 24.2152 9.88667L24.427 9.32258C24.6306 8.78031 25.2509 8.52402 25.7779 8.76439L26.1865 8.95074L29.0217 6.29688C29.3847 5.91845 30.0066 5.93145 30.3846 6.295L33.3525 9.07093C33.7751 9.41476 33.807 10.0161 33.4637 10.4393L31.9806 12.2605C31.3991 12.9745 31.364 13.9819 31.748 14.819C32.126 15.6429 32.892 16.2434 33.7978 16.2752L36.1723 16.3583C36.6716 16.3991 37.1024 16.8191 37.1261 17.3442L37.2568 21.4092C37.2805 21.9343 36.8925 22.3773 36.3566 22.4342L32.4823 22.8546C32.4458 23.0171 32.4053 23.1793 32.3608 23.3408C32.2141 23.8744 31.6311 24.1362 31.1132 23.9411L30.5237 23.719C29.6095 23.3747 29.0993 22.4195 29.1388 21.4434Z"
            fill="white"/>
    <path
            d="M19.4277 10.0951C19.285 10.0908 19.1417 10.0891 18.9978 10.0901C15.121 10.1176 11.6924 12.0196 9.54464 14.9418C8.95861 15.7391 7.93802 16.1518 7.0057 15.8205L6.17038 15.5237C5.62791 15.3309 5.35989 14.721 5.58472 14.1909L5.82102 13.6338L2.87578 10.5829C2.45679 10.1932 2.456 9.50971 2.84114 9.08587L5.77991 5.75925C6.14258 5.28675 6.79379 5.23738 7.26089 5.60431L9.26337 7.18391C10.054 7.8076 11.1588 7.8215 12.063 7.37807C12.941 6.94752 13.5674 6.10664 13.5799 5.12884L13.6136 2.48739C13.646 1.9379 14.091 1.45464 14.6598 1.41602L19.0641 1.17525C19.6329 1.13663 20.1224 1.55221 20.1969 2.13959L20.7455 6.38539C20.9531 6.42777 21.1604 6.47641 21.3668 6.53082C21.8988 6.67109 22.1713 7.24377 21.9908 7.7636L21.6793 8.66099C21.3573 9.58846 20.409 10.1251 19.4277 10.0951Z"
            fill="#FF0000"/>
</svg>