<svg width="14" height="14" viewBox="0 0 14 14" fill="none"
     xmlns="http://www.w3.org/2000/svg">
    <path
            d="M13.668 13C13.668 13.0938 13.6497 13.1823 13.6133 13.2656C13.5768 13.3438 13.5273 13.4141 13.4648 13.4766C13.4023 13.5339 13.3294 13.5807 13.2461 13.6172C13.168 13.6484 13.0846 13.6641 12.9961 13.6641C12.8138 13.6641 12.6576 13.599 12.5273 13.4688L8.93359 9.875C8.45964 10.2396 7.94401 10.5182 7.38672 10.7109C6.83464 10.9036 6.25911 11 5.66016 11C5.17057 11 4.69661 10.9375 4.23828 10.8125C3.78516 10.6823 3.36068 10.5026 2.96484 10.2734C2.57422 10.0391 2.21484 9.76042 1.88672 9.4375C1.5638 9.11458 1.28776 8.75521 1.05859 8.35938C0.829427 7.96354 0.64974 7.53906 0.519531 7.08594C0.394531 6.6276 0.332031 6.15365 0.332031 5.66406C0.332031 5.17448 0.394531 4.70312 0.519531 4.25C0.64974 3.79688 0.829427 3.3724 1.05859 2.97656C1.29297 2.58073 1.57161 2.22135 1.89453 1.89844C2.21745 1.57552 2.57682 1.29948 2.97266 1.07031C3.36849 0.835938 3.79297 0.65625 4.24609 0.53125C4.69922 0.401042 5.17057 0.335938 5.66016 0.335938C6.39453 0.335938 7.08464 0.476562 7.73047 0.757812C8.38151 1.03385 8.94661 1.41406 9.42578 1.89844C9.91016 2.38281 10.293 2.94792 10.5742 3.59375C10.8555 4.23958 10.9961 4.92969 10.9961 5.66406C10.9961 6.26302 10.8997 6.84115 10.707 7.39844C10.5143 7.95052 10.2357 8.46354 9.87109 8.9375L13.4648 12.5312C13.5326 12.599 13.582 12.6693 13.6133 12.7422C13.6497 12.8151 13.668 12.901 13.668 13ZM5.66016 9.66406H5.73828C6.27995 9.66406 6.78776 9.55729 7.26172 9.34375C7.74089 9.125 8.15755 8.83333 8.51172 8.46875C8.86589 8.09896 9.14453 7.67448 9.34766 7.19531C9.55599 6.71094 9.66016 6.20052 9.66016 5.66406C9.66016 5.11198 9.55599 4.59375 9.34766 4.10938C9.13932 3.61979 8.85286 3.19531 8.48828 2.83594C8.12891 2.47135 7.70443 2.1849 7.21484 1.97656C6.73047 1.76823 6.21224 1.66406 5.66016 1.66406C5.10807 1.66406 4.58724 1.76823 4.09766 1.97656C3.61328 2.1849 3.1888 2.47135 2.82422 2.83594C2.46484 3.19531 2.18099 3.61979 1.97266 4.10938C1.76432 4.59375 1.66016 5.11198 1.66016 5.66406C1.66016 6.21615 1.76432 6.73698 1.97266 7.22656C2.18099 7.71094 2.46484 8.13542 2.82422 8.5C3.1888 8.85938 3.61328 9.14323 4.09766 9.35156C4.58724 9.5599 5.10807 9.66406 5.66016 9.66406Z"
            fill="#757575"/>
</svg>