<svg width="8" height="8" viewBox="0 0 8 8" fill="none"
     xmlns="http://www.w3.org/2000/svg">
    <path
            d="M4.00195 4.71094L0.855469 7.85742C0.757812 7.95508 0.640625 8.00391 0.503906 8.00391C0.363281 8.00391 0.244141 7.95508 0.146484 7.85742C0.0488281 7.75977 0 7.64062 0 7.5C0 7.36328 0.0488281 7.24609 0.146484 7.14844L3.29297 4.00195L0.146484 0.855469C0.0488281 0.757812 0 0.638672 0 0.498047C0 0.427734 0.0136719 0.363281 0.0410156 0.304688C0.0683594 0.242188 0.103516 0.189453 0.146484 0.146484C0.193359 0.0996094 0.246094 0.0644531 0.304688 0.0410156C0.367188 0.0136719 0.433594 0 0.503906 0C0.640625 0 0.757812 0.0488281 0.855469 0.146484L4.00195 3.29297L7.14844 0.146484C7.24609 0.0488281 7.36328 0 7.5 0C7.64062 0 7.75977 0.0488281 7.85742 0.146484C7.95508 0.244141 8.00391 0.363281 8.00391 0.503906C8.00391 0.640625 7.95508 0.757812 7.85742 0.855469L4.71094 4.00195L7.85742 7.14844C7.95508 7.24609 8.00391 7.36523 8.00391 7.50586C8.00391 7.57617 7.99023 7.64258 7.96289 7.70508C7.93555 7.76367 7.89844 7.81641 7.85156 7.86328C7.80859 7.90625 7.75586 7.94141 7.69336 7.96875C7.63477 7.99219 7.57031 8.00391 7.5 8.00391C7.36328 8.00391 7.24609 7.95508 7.14844 7.85742L4.00195 4.71094Z"
            fill="#FBFBFB"/>
</svg>