<svg width="74" height="53" viewBox="0 0 74 53" fill="none"
     xmlns="http://www.w3.org/2000/svg">
    <path d="M18.8971 52.8346C13.9048 52.8346 9.63932 51.1065 6.10078 47.6503C2.56224 44.194 0.792969 39.9697 0.792969 34.9773C0.792969 30.6982 2.0822 26.8853 4.66068 23.5388C7.23915 20.1923 10.6131 18.0527 14.7826 17.1201C16.1541 12.0728 18.8971 7.98568 23.0117 4.85859C27.1263 1.73151 31.7895 0.167969 37.0013 0.167969C43.4201 0.167969 48.865 2.40356 53.3362 6.87474C57.8074 11.3459 60.043 16.7909 60.043 23.2096C63.8284 23.6485 66.9692 25.2806 69.4654 28.106C71.9615 30.9313 73.2096 34.2367 73.2096 38.0221C73.2096 42.1367 71.7695 45.6341 68.8893 48.5143C66.0091 51.3945 62.5117 52.8346 58.3971 52.8346H40.293C38.4826 52.8346 36.9327 52.19 35.6435 50.9008C34.3543 49.6115 33.7096 48.0617 33.7096 46.2513V29.2992L28.443 34.4013L23.8346 29.793L37.0013 16.6263L50.168 29.793L45.5596 34.4013L40.293 29.2992V46.2513H58.3971C60.7013 46.2513 62.6489 45.4558 64.2398 43.8648C65.8308 42.2739 66.6263 40.3263 66.6263 38.0221C66.6263 35.718 65.8308 33.7704 64.2398 32.1794C62.6489 30.5885 60.7013 29.793 58.3971 29.793H53.4596V23.2096C53.4596 18.6562 51.8549 14.7747 48.6456 11.5654C45.4362 8.35599 41.5548 6.7513 37.0013 6.7513C32.4478 6.7513 28.5664 8.35599 25.357 11.5654C22.1477 14.7747 20.543 18.6562 20.543 23.2096H18.8971C15.7152 23.2096 12.9996 24.3343 10.7503 26.5836C8.50095 28.8329 7.3763 31.5485 7.3763 34.7305C7.3763 37.9124 8.50095 40.628 10.7503 42.8773C12.9996 45.1267 15.7152 46.2513 18.8971 46.2513H27.1263V52.8346H18.8971Z"
          fill="#E2E2E2"/>
</svg>
