<svg width="12" height="12" viewBox="0 0 12 12" fill="none"
     xmlns="http://www.w3.org/2000/svg">
    <path
            d="M2.5 1C1.67157 1 1 1.67157 1 2.5V4.5C1 4.77614 0.776142 5 0.5 5C0.223858 5 2.98023e-08 4.77614 2.98023e-08 4.5V2.5C2.98023e-08 1.11929 1.11929 0 2.5 0H9.5C10.8807 0 12 1.11929 12 2.5V9.5C12 10.8807 10.8807 12 9.5 12H7.5C7.22386 12 7 11.7761 7 11.5C7 11.2239 7.22386 11 7.5 11H9.5C10.3284 11 11 10.3284 11 9.5V6H7.5C6.67157 6 6 5.32843 6 4.5V1H2.5ZM7 1V4.5C7 4.77614 7.22386 5 7.5 5H11V2.5C11 1.67157 10.3284 1 9.5 1H7ZM0.5 8C0.223858 8 2.98023e-08 7.77614 2.98023e-08 7.5C2.98023e-08 7.22386 0.223858 7 0.5 7H4.5C4.77614 7 5 7.22386 5 7.5V11.5C5 11.7761 4.77614 12 4.5 12C4.22386 12 4 11.7761 4 11.5V8.70711L0.853553 11.8536C0.658291 12.0488 0.341709 12.0488 0.146447 11.8536C-0.0488155 11.6583 -0.0488155 11.3417 0.146447 11.1464L3.29289 8H0.5Z"
            fill="#282828"/>
</svg>