<svg width="128" height="128" viewBox="0 0 128 128" fill="none" xmlns="http://www.w3.org/2000/svg">
<mask id="path-1-inside-1_3315_37083" fill="white">
<path d="M128 64C128 78.8067 122.866 93.1554 113.473 104.601C104.079 116.047 91.008 123.882 76.4858 126.77C61.9636 129.659 46.889 127.423 33.8306 120.443C20.7722 113.463 10.538 102.171 4.87171 88.4917C-0.794582 74.8121 -1.54235 59.591 2.75582 45.4218C7.05398 31.2526 16.1321 19.0121 28.4435 10.7859C40.7549 2.55976 55.5377 -1.14314 70.2731 0.308177C85.0085 1.75949 98.7849 8.27522 109.255 18.7452L97.9069 30.0931C90.0624 22.2486 79.7405 17.3667 68.7001 16.2793C57.6596 15.1919 46.5837 17.9663 37.3595 24.1297C28.1353 30.2931 21.3336 39.4642 18.1132 50.0804C14.8928 60.6965 15.4531 72.1009 19.6985 82.3503C23.9439 92.5997 31.6119 101.06 41.3958 106.29C51.1797 111.519 62.4742 113.195 73.3549 111.03C84.2356 108.866 94.0292 102.996 101.067 94.4202C108.105 85.8445 111.952 75.0939 111.952 64H128Z"/>
</mask>
<path d="M128 64C128 78.8067 122.866 93.1554 113.473 104.601C104.079 116.047 91.008 123.882 76.4858 126.77C61.9636 129.659 46.889 127.423 33.8306 120.443C20.7722 113.463 10.538 102.171 4.87171 88.4917C-0.794582 74.8121 -1.54235 59.591 2.75582 45.4218C7.05398 31.2526 16.1321 19.0121 28.4435 10.7859C40.7549 2.55976 55.5377 -1.14314 70.2731 0.308177C85.0085 1.75949 98.7849 8.27522 109.255 18.7452L97.9069 30.0931C90.0624 22.2486 79.7405 17.3667 68.7001 16.2793C57.6596 15.1919 46.5837 17.9663 37.3595 24.1297C28.1353 30.2931 21.3336 39.4642 18.1132 50.0804C14.8928 60.6965 15.4531 72.1009 19.6985 82.3503C23.9439 92.5997 31.6119 101.06 41.3958 106.29C51.1797 111.519 62.4742 113.195 73.3549 111.03C84.2356 108.866 94.0292 102.996 101.067 94.4202C108.105 85.8445 111.952 75.0939 111.952 64H128Z" fill="#C4CAE5" stroke="#4759AF" mask="url(#path-1-inside-1_3315_37083)"/>
<path d="M112.264 21.9688C121.653 32.7503 127.162 46.3652 127.912 60.6424L111.886 61.4843C111.324 50.7872 107.196 40.5864 100.161 32.5084L112.264 21.9688Z" fill="#EDEDED"/>
</svg>
