<svg width="86" height="86" viewBox="0 0 86 86" fill="none" xmlns="http://www.w3.org/2000/svg">
<mask id="path-1-inside-1_3315_37296" fill="white">
<path d="M86 43C86 52.9483 82.5506 62.5888 76.2394 70.2789C69.9283 77.969 61.146 83.233 51.3889 85.1738C41.6318 87.1146 31.5035 85.6122 22.7299 80.9226C13.9563 76.233 7.08022 68.6464 3.27318 59.4554C-0.53386 50.2644 -1.03627 40.0377 1.85156 30.5178C4.7394 20.9979 10.8388 12.7738 19.1105 7.24681C27.3822 1.71984 37.3144 -0.768044 47.2147 0.207056C57.1151 1.18216 66.3711 5.55991 73.4056 12.5944L65.7812 20.2188C60.5106 14.9482 53.5757 11.6682 46.1579 10.9377C38.7401 10.2071 31.2984 12.0711 25.1009 16.2121C18.9034 20.3532 14.3335 26.515 12.1698 33.6478C10.0061 40.7805 10.3825 48.4428 13.2349 55.3291C16.0873 62.2154 21.2392 67.8996 27.8128 71.4133C34.3863 74.9269 41.9749 76.0526 49.2853 74.5984C56.5958 73.1443 63.1759 69.2003 67.9044 63.4386C72.633 57.6768 75.2175 50.4537 75.2175 43H86Z"/>
</mask>
<path d="M86 43C86 52.9483 82.5506 62.5888 76.2394 70.2789C69.9283 77.969 61.146 83.233 51.3889 85.1738C41.6318 87.1146 31.5035 85.6122 22.7299 80.9226C13.9563 76.233 7.08022 68.6464 3.27318 59.4554C-0.53386 50.2644 -1.03627 40.0377 1.85156 30.5178C4.7394 20.9979 10.8388 12.7738 19.1105 7.24681C27.3822 1.71984 37.3144 -0.768044 47.2147 0.207056C57.1151 1.18216 66.3711 5.55991 73.4056 12.5944L65.7812 20.2188C60.5106 14.9482 53.5757 11.6682 46.1579 10.9377C38.7401 10.2071 31.2984 12.0711 25.1009 16.2121C18.9034 20.3532 14.3335 26.515 12.1698 33.6478C10.0061 40.7805 10.3825 48.4428 13.2349 55.3291C16.0873 62.2154 21.2392 67.8996 27.8128 71.4133C34.3863 74.9269 41.9749 76.0526 49.2853 74.5984C56.5958 73.1443 63.1759 69.2003 67.9044 63.4386C72.633 57.6768 75.2175 50.4537 75.2175 43H86Z" fill="#CDF0A9" stroke="#97BC71" mask="url(#path-1-inside-1_3315_37296)"/>
<path d="M75.4271 14.7603C81.7355 22.0041 85.4368 31.1516 85.9408 40.7441L75.1731 41.3098C74.7955 34.1227 72.0224 27.269 67.2958 21.8416L75.4271 14.7603Z" fill="#EDEDED"/>
</svg>
